<svg enable-background="new 0 0 512 512" height="512" viewBox="0 0 512 512" width="512" xmlns="http://www.w3.org/2000/svg"><g id="_x33_1_x2C__ambulance_x2C__healthcare_and_medical_x2C__medical_service_x2C__medical_assistance_x2C__transportation_x2C__emergency"><g><g id="XMLID_762_"><path d="m501 446.001h-40c-5.522 0-10-4.478-10-10s4.478-10 10-10h30v-117.088l-65.489-102.912h-94.511v220h30c5.522 0 10 4.478 10 10s-4.478 10-10 10h-40c-5.522 0-10-4.478-10-10v-240c0-5.522 4.478-10 10-10h110c3.419 0 6.601 1.747 8.437 4.631l70 110c1.021 1.604 1.563 3.468 1.563 5.369v130c0 5.522-4.478 10-10 10z"/></g><g id="XMLID_763_"><path d="m321 446.001h-170c-5.522 0-10-4.478-10-10s4.478-10 10-10h160v-270h-290v270h30c5.522 0 10 4.478 10 10s-4.478 10-10 10h-40c-5.522 0-10-4.478-10-10v-290c0-5.522 4.478-10 10-10h310c5.522 0 10 4.478 10 10v290c0 5.522-4.478 10-10 10z"/></g><g id="XMLID_764_"><path d="m411 496.001c-33.084 0-60-26.916-60-60s26.916-60 60-60 60 26.916 60 60-26.916 60-60 60zm0-100c-22.056 0-40 17.944-40 40s17.944 40 40 40 40-17.944 40-40-17.944-40-40-40z"/></g><g id="XMLID_765_"><path d="m101 496.001c-33.084 0-60-26.916-60-60s26.916-60 60-60 60 26.916 60 60-26.916 60-60 60zm0-100c-22.056 0-40 17.944-40 40s17.944 40 40 40 40-17.944 40-40-17.944-40-40-40z"/></g><g id="XMLID_766_"><path d="m321 356.001h-310c-5.522 0-10-4.478-10-10s4.478-10 10-10h310c5.522 0 10 4.478 10 10s-4.478 10-10 10z"/></g><g id="XMLID_767_"><path d="m501 316.001h-140c-5.522 0-10-4.478-10-10v-110c0-5.522 4.478-10 10-10s10 4.478 10 10v100h130c5.522 0 10 4.478 10 10s-4.478 10-10 10z"/></g><g id="XMLID_768_"><path d="m381 356.001h-20c-5.522 0-10-4.478-10-10s4.478-10 10-10h20c5.522 0 10 4.478 10 10s-4.478 10-10 10z"/></g><g id="XMLID_769_"><path d="m261 156.001h-50c-5.522 0-10-4.478-10-10v-25c0-19.299 15.701-35 35-35s35 15.701 35 35v25c0 5.522-4.478 10-10 10zm-40-20h30v-15c0-8.271-6.729-15-15-15s-15 6.729-15 15z"/></g><g id="XMLID_770_"><path d="m236 66.001c-5.522 0-10-4.478-10-10v-30c0-5.522 4.478-10 10-10s10 4.478 10 10v30c0 5.522-4.478 10-10 10z"/></g><g id="XMLID_772_"><path d="m270.453 64.321c-4.596-3.063-5.837-9.272-2.773-13.867l20-30c3.063-4.597 9.272-5.837 13.867-2.773 4.596 3.063 5.837 9.272 2.773 13.867l-20 30c-3.072 4.609-9.285 5.828-13.867 2.773z"/></g><g id="XMLID_774_"><path d="m187.68 61.547-20-30c-3.063-4.595-1.822-10.804 2.773-13.867s10.804-1.823 13.867 2.773l20 30c3.063 4.595 1.822 10.804-2.773 13.867-4.575 3.051-10.791 1.843-13.867-2.773z"/></g><g id="XMLID_776_"><path d="m186 316.001h-40c-5.522 0-10-4.478-10-10v-30h-30c-5.522 0-10-4.478-10-10v-40c0-5.522 4.478-10 10-10h30v-30c0-5.522 4.478-10 10-10h40c5.522 0 10 4.478 10 10v30h30c5.522 0 10 4.478 10 10v40c0 5.522-4.478 10-10 10h-30v30c0 5.522-4.478 10-10 10zm-30-20h20v-30c0-5.522 4.478-10 10-10h30v-20h-30c-5.522 0-10-4.478-10-10v-30h-20v30c0 5.522-4.478 10-10 10h-30v20h30c5.522 0 10 4.478 10 10z"/></g></g></g></svg>