<svg id="Layer_1" enable-background="new 0 0 512 512" height="512" viewBox="0 0 512 512" width="512" xmlns="http://www.w3.org/2000/svg"><path d="m425.375 164.251c42.803 0 77.625-34.822 77.625-77.625s-34.822-77.626-77.625-77.626-77.625 34.823-77.625 77.626 34.823 77.625 77.625 77.625zm0-141.251c35.083 0 63.625 28.543 63.625 63.626s-28.542 63.625-63.625 63.625-63.625-28.542-63.625-63.625 28.542-63.626 63.625-63.626zm-22.649 86.274v17.788c0 3.866 3.134 7 7 7h31.299c3.866 0 7-3.134 7-7v-17.788h17.788c3.866 0 7-3.134 7-7v-31.298c0-3.866-3.134-7-7-7h-17.788v-17.788c0-3.866-3.134-7-7-7h-31.299c-3.866 0-7 3.134-7 7v17.788h-17.789c-3.866 0-7 3.134-7 7v31.299c0 3.866 3.134 7 7 7h17.789zm-10.789-31.298h17.789c3.866 0 7-3.134 7-7v-17.788h17.299v17.788c0 3.866 3.134 7 7 7h17.788v17.299h-17.788c-3.866 0-7 3.134-7 7v17.788h-17.299v-17.788c0-3.866-3.134-7-7-7h-17.789zm97.975 320.661c-.852-3.177-2.284-4.077-11.602-9.934-1.92-1.206-4.154-2.61-5.763-3.674l-6.817-25.445 1.548-.415c3.734-1.001 5.95-4.839 4.95-8.573l-36.011-134.396c-1.918-7.157-6.527-13.15-12.979-16.876-6.453-3.725-13.946-4.721-21.107-2.804-14.822 3.972-23.65 19.262-19.68 34.086l36.012 134.396c.48 1.793 1.654 3.322 3.262 4.251 1.073.619 2.282.938 3.5.938.606 0 1.216-.079 1.812-.238l1.548-.415 34.371 128.273c.48 1.793 1.654 3.322 3.262 4.251 1.073.619 2.282.938 3.5.938.606 0 1.216-.079 1.812-.238 18.059-4.839 36.597-36.149 30.114-60.346zm-59.738-44.019-2.761-10.306 26.718-7.159 2.762 10.306zm-24.42-144.573c1.176-.315 2.37-.471 3.559-.471 2.399 0 4.775.634 6.925 1.875 3.214 1.855 5.507 4.83 6.456 8.375l27.814 103.805-26.719 7.159-27.814-103.804c-1.974-7.367 2.413-14.966 9.779-16.939zm68.413 275.513-32.059-119.643 10.099-2.706 7.476 27.902c.395 1.472 1.258 2.774 2.46 3.71 1.59 1.239 4.354 2.993 8.717 5.736 1.904 1.196 4.522 2.842 6.121 3.914l11.139 41.568c3.709 13.842-5.001 31.704-13.953 39.519zm-298.725-275.292c0 5.522-4.478 10-10 10-5.523 0-10-4.478-10-10s4.478-10 10-10c5.523-.001 10 4.477 10 10zm46.482 0c0-5.522 4.477-10 10-10 5.522 0 10 4.478 10 10s-4.478 10-10 10c-5.523 0-10-4.478-10-10zm-30.24-127.212c0-3.856 3.145-7 7-7s7 3.144 7 7-3.145 7-7 7c-3.856 0-7-3.144-7-7zm168.407 254.227-63.241-14.694c-8.821-14.017-20.661-26.182-34.925-35.505 10.644-12.676 17.543-28.583 19.015-46.017h4.25c16.983 0 30.8-13.816 30.8-30.8 0-10.811-5.604-20.331-14.054-25.829v-19.416c0-49.039-25.377-83.708-63.789-88.4-3.087-19.001-19.604-33.556-39.464-33.556s-36.377 14.554-39.464 33.556c-38.412 4.692-63.789 39.361-63.789 88.4v19.416c-8.45 5.497-14.054 15.018-14.054 25.829 0 16.983 13.816 30.8 30.799 30.8h4.25c1.472 17.434 8.37 33.341 19.014 46.016-14.193 9.286-26.056 21.448-34.909 35.502l-63.257 14.697c-16.647 3.869-28.273 18.594-28.273 35.807v122.913c0 3.866 3.134 7 7 7h365.367c3.866 0 7-3.134 7-7v-122.913c0-17.04-11.6-31.757-28.276-35.806zm-84.201-19.564-18.46-4.289v-12.475c6.878 4.869 13.064 10.506 18.46 16.764zm-145.782-83.652.001-40.599h137.148l.001 40.599c0 6.917-1.04 13.595-2.953 19.895-10.028-5.679-33.612-16.65-65.622-16.235-.546-.007-1.083-.01-1.625-.01-31.177 0-54.134 10.676-63.996 16.249-1.915-6.301-2.954-12.98-2.954-19.899zm66.983 17.651c.499 0 1.001.003 1.504.009.059.002.117.002.176 0 30.426-.361 52.638 10.915 60.048 15.261-11.669 21.23-34.247 35.654-60.136 35.654s-48.468-14.424-60.137-35.655c7.3-4.287 28.896-15.269 58.545-15.269zm-43.153 51.695c12.904 8.355 28.261 13.229 44.745 13.229s31.842-4.874 44.746-13.229v13.236l-44.746 59.416-44.745-59.416zm131.252-76.346h-3.932l-.001-33.599h3.933c9.264 0 16.8 7.536 16.8 16.799 0 9.264-7.536 16.8-16.8 16.8zm-86.507-170c14.33 0 25.988 11.658 25.988 25.988s-11.658 25.988-25.988 25.988-25.988-11.658-25.988-25.988 11.658-25.988 25.988-25.988zm-103.307 153.201c0-9.263 7.536-16.799 16.799-16.799h3.934l-.001 33.599h-3.933c-9.262-.001-16.799-7.537-16.799-16.8zm27.732-30.799h-10.933c-.926 0-1.84.048-2.745.129v-14.574c0-40.71 19.831-69.662 50.01-74.303 3.586 18.395 19.815 32.324 39.243 32.324s35.657-13.929 39.243-32.324c30.179 4.642 50.01 33.593 50.01 74.303v14.574c-.906-.081-1.82-.129-2.746-.129h-10.933zm16.83 121.476v12.484l-18.445 4.286c5.406-6.268 11.589-11.912 18.445-16.77zm234.429 188.057h-351.367v-115.913c0-10.836 7.01-19.744 17.442-22.169l51.519-11.97c-3.589 8.418-6.191 17.292-7.698 26.46-16.436 4.467-30.195 22.095-37.735 49.059-4.894 17.5-3.76 30.64 3.37 39.055 5.017 5.922 11.755 8.038 17.132 8.697 1.824 1.913 4.388 3.114 7.229 3.114 5.508 0 10-4.492 10-10s-4.492-10-10-10c-2.672 0-5.099 1.063-6.896 2.78-2.387-.472-4.965-1.494-6.784-3.641-3.832-4.523-4.034-13.841-.568-26.235 6.893-24.647 19.39-39.959 32.614-39.959s25.722 15.312 32.614 39.959c3.466 12.395 3.264 21.712-.568 26.235-1.818 2.146-4.396 3.169-6.784 3.641-1.797-1.717-4.224-2.78-6.896-2.78-5.508 0-10 4.492-10 10s4.492 10 10 10c2.842 0 5.407-1.202 7.23-3.116 5.371-.658 12.111-2.77 17.131-8.695 7.129-8.415 8.263-21.555 3.369-39.055-7.905-28.27-22.646-46.283-40.14-49.619 2.052-10.584 5.765-20.69 10.927-29.978l34.578-8.034 49.005 65.073c1.322 1.756 3.394 2.789 5.592 2.789s4.27-1.033 5.592-2.789l49.006-65.073 34.588 8.037c8.236 14.839 12.772 31.727 12.772 49.273v2.111c-14.491 3.209-25.365 16.152-25.365 31.595 0 17.847 14.52 32.366 32.365 32.366 17.847 0 32.366-14.52 32.366-32.366 0-15.443-10.875-28.386-25.366-31.595v-2.111c0-15.798-3.233-31.123-9.221-45.195l51.435 11.951c10.474 2.543 17.511 11.458 17.511 22.185v115.913zm-66.725-89.514c10.127 0 18.366 8.239 18.366 18.366s-8.239 18.366-18.366 18.366-18.365-8.239-18.365-18.366 8.238-18.366 18.365-18.366z"/></svg>