<svg width="1422" height="1389" viewBox="0 0 1422 1389" fill="none" xmlns="http://www.w3.org/2000/svg">
<path d="M621.401 1124.43C629.511 1159.82 637.62 1195.21 645.73 1230.6C647.491 1238.28 652.024 1248.07 642.262 1250.88C635.327 1252.87 625.633 1248.95 620.636 1244.2C613.646 1237.55 609.932 1228.27 606.328 1219.32C579.636 1152.95 548.59 1088.23 526.021 1020.35C518.048 996.372 511.126 971.986 500.75 948.952C484.871 913.725 460.555 880.178 459.955 841.538C459.463 810.12 475.082 780.628 493.8 755.396C554.433 673.692 620.964 598.159 702.226 535.857C723.921 519.213 746.366 503.538 769.44 488.874C775.856 484.805 782.656 480.695 790.247 480.149C797.169 479.658 803.9 482.197 810.344 484.778C832.639 493.694 854.579 503.497 876.096 514.161C879.482 515.84 883.387 518.393 883.114 522.175C882.936 524.77 880.779 526.722 878.786 528.374C792.117 600.425 705.435 672.49 618.766 744.541C615.23 747.477 611.598 750.48 607.311 752.119C601.795 754.222 595.679 753.921 589.821 754.686C575.24 756.611 561.806 765.786 554.72 778.676C547.634 791.565 547.074 807.826 553.245 821.166C563.621 843.558 589.262 854.14 613.182 860.257C625.565 863.425 638.535 865.964 651.082 863.507C663.629 861.049 675.739 852.502 678.921 840.118C682.593 825.781 673.978 809.574 680.491 796.275C683.153 790.827 687.986 786.827 692.683 782.99C776.116 714.899 859.563 646.794 942.996 578.702C958.874 565.745 978.766 598.855 987.504 609.642C1003 628.757 1016.74 649.292 1028.48 670.92C1030.1 673.91 1031.74 677.296 1030.85 680.6C1030.16 683.181 1028.05 685.12 1026.03 686.881C942.736 759.642 844.681 815.459 739.581 849.935C734.229 851.696 727.894 854.495 727.307 860.107C727.047 862.537 728.016 864.913 728.945 867.179C769.999 967.125 778.696 1076.31 784.075 1183.13C784.717 1195.92 785.154 1208.73 785.304 1221.54C785.441 1233.21 784.84 1239.61 772.225 1242.9C760.592 1245.94 748.742 1248.12 736.795 1249.42C734.201 1249.7 731.28 1249.84 729.341 1248.09C727.948 1246.84 727.443 1244.91 726.993 1243.11C708.425 1167.08 703.892 1088.14 684.464 1012.33C679.439 992.699 673.364 972.45 677.091 952.529C678.047 947.436 679.631 942.289 678.825 937.169C678.019 932.049 673.691 926.969 668.544 927.57C665.937 927.87 663.711 929.523 661.636 931.12C657.895 933.974 654.154 936.841 650.413 939.695C647.082 942.234 643.423 945.429 643.491 949.621C643.546 952.734 645.703 955.356 647.573 957.854C660.407 974.881 664.407 996.781 668.039 1017.79C680.887 1092.14 693.734 1166.47 706.581 1240.83C708.151 1249.92 698.758 1257.95 690.444 1251.25C685.228 1247.04 683.808 1239.8 682.73 1233.18C675.521 1188.78 668.312 1144.36 661.117 1099.96C654.646 1060.11 648.16 1020.16 637.402 981.243C633.989 968.873 630.248 955.096 636.228 943.736C641.266 934.165 651.983 928.908 658.209 920.06C663.588 912.387 665.117 902.147 662.196 893.231C659.274 884.315 651.983 876.969 643.095 873.979C629.347 869.35 613.933 874.976 599.897 871.303C589.712 868.64 581.452 861.431 572.441 855.97C563.43 850.508 551.921 846.753 542.555 851.559C532.834 856.543 529.257 869.391 531.919 880C534.582 890.609 542.077 899.279 549.955 906.844C557.833 914.408 566.448 921.44 572.455 930.574C579.377 941.115 582.312 953.69 585.125 965.992C597.235 1018.82 609.331 1071.64 621.442 1124.47L621.401 1124.43Z" fill="#0144DB"/>
<path d="M489.8 264.829V191.74C489.8 188.258 492.981 185.65 496.394 186.306L531.319 193.133C533.913 193.638 535.783 195.918 535.783 198.567V367.587C535.783 367.765 535.783 367.942 535.756 368.133C535.442 371.165 533.148 402.964 577.793 402.5C581.043 402.473 583.637 405.217 583.377 408.467L580.606 442.97C580.36 445.974 577.766 448.24 574.762 448.049C555.73 446.82 492.954 437.59 489.814 369.485V264.829H489.8Z" fill="#FE0000"/>
<path d="M777.563 198.745V441.673C777.563 445.196 780.416 448.063 783.953 448.063H812.009C815.9 448.063 819.054 444.909 819.054 441.017V334.6C819.054 334.6 822.495 310.501 848.654 317.137C874.813 323.772 874.021 350.984 874.553 359.177V441.413C874.553 445.086 877.53 448.063 881.202 448.063H909.519C913.847 448.063 917.355 444.554 917.355 440.226V336.197C917.355 336.197 911.812 261.416 819.054 268.816V198.362C819.054 194.922 816.269 192.136 812.828 192.136H784.198C780.539 192.136 777.577 195.099 777.577 198.758L777.563 198.745Z" fill="#FE0000"/>
<path d="M1421.31 707.471C1421.05 757.622 1415.48 807.772 1404.89 856.789C1402.34 868.6 1399.5 880.355 1396.37 892.029C1376.42 964.654 1345.03 1034.17 1304.03 1097.29C1280.1 1134.11 1252.79 1168.74 1222.7 1200.76C1222.7 1200.76 1222.7 1200.76 1222.69 1200.77C1219.56 1203.38 1216.4 1205.89 1213.17 1208.31C1221.54 1194.43 1232.85 1183.43 1242.4 1170.44C1251.77 1157.72 1260.63 1144.64 1269 1131.24C1285.71 1104.44 1300.38 1076.38 1312.95 1047.42C1338.17 989.367 1354.96 927.707 1363.14 864.968C1380.07 735.065 1359.9 599.661 1299.72 482.812C1189.4 268.625 951.283 128.264 711.128 130.148C470.973 128.264 232.838 268.625 122.522 482.812C62.3538 599.661 42.1747 735.065 59.1044 864.968C67.2825 927.707 84.0756 989.367 109.293 1047.42C121.867 1076.38 136.53 1104.44 153.241 1131.24C161.611 1144.64 170.471 1157.72 179.837 1170.44C189.394 1183.43 200.699 1194.43 209.068 1208.31C205.874 1205.9 202.72 1203.42 199.607 1200.82C169.488 1168.78 142.155 1134.14 118.208 1097.29C77.2764 1034.29 45.9293 964.9 25.9824 892.425C22.8149 880.615 19.9341 868.736 17.3537 856.789C6.75901 807.772 1.18861 757.622 0.929199 707.471C1.42071 545.332 61.2069 384.859 163.085 258.971C214.925 195.946 277.196 141.494 346.881 99.263C456.378 34.3256 583.76 0.600767 711.128 0C838.291 0.600767 965.482 34.2164 1074.86 98.9627C1144.73 141.235 1207.19 195.795 1259.16 258.971C1361.04 384.859 1420.82 545.332 1421.31 707.471Z" fill="#0049FF"/>
<path d="M1275.7 826.573C1275.5 786.704 1271.08 746.835 1262.65 707.867C1260.62 698.473 1258.37 689.134 1255.88 679.85C1240.03 622.121 1215.07 566.851 1182.48 516.673C1163.45 487.399 1141.76 459.873 1117.82 434.423C1115.34 432.347 1112.83 430.354 1110.26 428.429C1116.91 439.461 1125.9 448.199 1133.5 458.522C1140.94 468.639 1147.98 479.03 1154.64 489.68C1167.93 510.993 1179.59 533.29 1189.58 556.31C1209.62 602.46 1222.98 651.477 1229.48 701.354C1242.94 804.618 1226.91 912.264 1179.06 1005.15C1091.36 1175.43 902.065 1287.01 711.155 1285.5C520.246 1287.01 330.935 1175.43 243.242 1005.15C195.415 912.264 179.373 804.618 192.821 701.354C199.32 651.477 212.673 602.46 232.715 556.31C242.709 533.29 254.369 510.98 267.653 489.68C274.302 479.03 281.347 468.639 288.802 458.522C296.393 448.199 305.39 439.447 312.039 428.429C309.499 430.34 306.987 432.32 304.516 434.382C280.569 459.86 258.847 487.399 239.801 516.687C207.266 566.769 182.336 621.93 166.485 679.549C163.973 688.943 161.679 698.378 159.631 707.881C151.207 746.849 146.784 786.718 146.579 826.587C146.975 955.479 194.501 1083.05 275.49 1183.13C316.695 1233.24 366.2 1276.52 421.604 1310.09C508.655 1361.72 609.919 1388.52 711.169 1389C812.255 1388.52 913.369 1361.8 1000.32 1310.33C1055.88 1276.73 1105.53 1233.35 1146.83 1183.13C1227.82 1083.05 1275.35 955.479 1275.75 826.587L1275.7 826.573Z" fill="#FE0000"/>
<path d="M680.463 192.109C637.293 192.109 601.7 225.233 597.768 267.41C597.522 269.976 597.399 272.571 597.399 275.192V442.711C597.399 447.653 603.556 449.933 606.765 446.192L632.774 415.963C635.764 412.481 637.402 408.057 637.402 403.47V275.192C637.402 273.868 637.457 272.543 637.607 271.246C639.6 249.346 658.045 232.128 680.45 232.128C704.192 232.128 723.511 251.448 723.511 275.192C723.511 298.936 704.192 318.256 680.45 318.256C674.429 318.256 668.681 317.014 663.466 314.747V356.514C668.94 357.675 674.62 358.275 680.45 358.275C726.255 358.275 763.528 321.001 763.528 275.192C763.528 229.384 726.255 192.109 680.45 192.109H680.463ZM701.148 276.913C701.148 288.327 691.891 297.584 680.477 297.584C669.063 297.584 659.807 288.327 659.807 276.913C659.807 265.498 669.063 256.241 680.477 256.241C691.891 256.241 701.148 265.498 701.148 276.913Z" fill="#0144DB"/>
</svg>
