<svg width="1853" height="1659" viewBox="0 0 1853 1659" fill="none" xmlns="http://www.w3.org/2000/svg">
<path d="M865.442 765.048C870.961 789.127 876.48 813.207 881.999 837.286C883.197 842.507 886.282 849.168 879.639 851.081C874.919 852.438 868.322 849.771 864.921 846.539C860.164 842.014 857.637 835.697 855.184 829.612C837.019 784.454 815.891 740.42 800.532 694.231C795.106 677.918 790.396 661.327 783.334 645.655C772.528 621.687 755.98 598.862 755.572 572.571C755.237 551.195 765.866 531.129 778.605 513.962C819.868 458.371 865.144 406.979 920.446 364.59C935.21 353.265 950.485 342.601 966.188 332.623C970.555 329.855 975.182 327.059 980.348 326.687C985.058 326.353 989.639 328.081 994.024 329.836C1009.2 335.903 1024.13 342.573 1038.77 349.828C1041.08 350.971 1043.73 352.708 1043.55 355.281C1043.43 357.046 1041.96 358.375 1040.6 359.499C981.62 408.522 922.63 457.553 863.648 506.576C861.242 508.573 858.77 510.617 855.853 511.732C852.099 513.163 847.937 512.958 843.951 513.478C834.028 514.788 824.885 521.031 820.063 529.801C815.241 538.57 814.86 549.635 819.059 558.711C826.121 573.946 843.57 581.146 859.848 585.308C868.276 587.463 877.102 589.191 885.641 587.519C894.18 585.846 902.421 580.031 904.586 571.605C907.085 561.851 901.223 550.824 905.655 541.775C907.466 538.069 910.755 535.347 913.952 532.736C970.731 486.408 1027.52 440.07 1084.3 393.741C1095.1 384.925 1108.64 407.453 1114.59 414.792C1125.13 427.798 1134.48 441.77 1142.47 456.485C1143.58 458.52 1144.69 460.824 1144.09 463.072C1143.61 464.827 1142.18 466.147 1140.81 467.345C1084.12 516.851 1017.39 554.828 945.867 578.285C942.225 579.483 937.914 581.387 937.514 585.205C937.338 586.859 937.998 588.475 938.629 590.018C966.569 658.019 972.487 732.31 976.148 804.985C976.585 813.69 976.882 822.404 976.984 831.117C977.077 839.06 976.668 843.417 968.083 845.656C960.167 847.718 952.102 849.205 943.972 850.087C942.207 850.282 940.218 850.375 938.899 849.186C937.951 848.331 937.607 847.022 937.301 845.795C924.665 794.069 921.58 740.355 908.358 688.778C904.939 675.419 900.804 661.642 903.341 648.089C903.991 644.623 905.069 641.121 904.521 637.637C903.973 634.154 901.027 630.698 897.525 631.107C895.75 631.311 894.235 632.435 892.823 633.522C890.277 635.464 887.732 637.414 885.186 639.356C882.919 641.084 880.429 643.258 880.475 646.11C880.512 648.228 881.98 650.012 883.253 651.712C891.987 663.296 894.709 678.197 897.181 692.494C905.924 743.077 914.667 793.651 923.41 844.244C924.479 850.431 918.086 855.893 912.428 851.332C908.879 848.471 907.912 843.547 907.178 839.042C902.273 808.831 897.367 778.611 892.47 748.4C888.066 721.283 883.653 694.101 876.331 667.625C874.008 659.208 871.462 649.835 875.532 642.106C878.961 635.594 886.254 632.017 890.491 625.997C894.152 620.776 895.193 613.809 893.204 607.743C891.216 601.676 886.254 596.678 880.206 594.644C870.849 591.495 860.359 595.322 850.808 592.823C843.876 591.012 838.255 586.107 832.123 582.391C825.991 578.675 818.158 576.12 811.784 579.39C805.169 582.781 802.734 591.523 804.546 598.741C806.358 605.959 811.459 611.858 816.82 617.005C822.181 622.151 828.044 626.936 832.132 633.15C836.843 640.322 838.841 648.878 840.755 657.248C848.996 693.191 857.228 729.133 865.47 765.076L865.442 765.048Z" fill="#0144DB"/>
<path d="M775.882 180.186V130.457C775.882 128.089 778.047 126.314 780.37 126.76L804.137 131.405C805.903 131.749 807.176 133.3 807.176 135.102V250.102C807.176 250.222 807.176 250.343 807.157 250.473C806.943 252.536 805.382 274.172 835.765 273.856C837.976 273.837 839.742 275.704 839.565 277.915L837.679 301.391C837.512 303.435 835.746 304.977 833.702 304.847C820.75 304.011 778.029 297.731 775.892 251.393V180.186H775.882Z" fill="#FE0000"/>
<path d="M971.716 135.223V300.508C971.716 302.905 973.658 304.856 976.065 304.856H995.158C997.806 304.856 999.953 302.71 999.953 300.063V227.657C999.953 227.657 1002.29 211.261 1020.1 215.776C1037.9 220.29 1037.36 238.805 1037.72 244.379V300.332C1037.72 302.831 1039.75 304.856 1042.25 304.856H1061.52C1064.46 304.856 1066.85 302.469 1066.85 299.524V228.744C1066.85 228.744 1063.08 177.864 999.953 182.899V134.963C999.953 132.622 998.057 130.727 995.716 130.727H976.232C973.742 130.727 971.726 132.743 971.726 135.233L971.716 135.223Z" fill="#FE0000"/>
<path d="M1409.81 481.354C1409.64 515.476 1405.84 549.597 1398.63 582.948C1396.9 590.984 1394.96 598.982 1392.84 606.925C1379.26 656.338 1357.9 703.633 1330 746.58C1313.71 771.634 1295.13 795.194 1274.65 816.978C1274.65 816.978 1274.65 816.981 1274.64 816.988C1272.51 818.762 1270.36 820.471 1268.17 822.116C1273.86 812.677 1281.55 805.189 1288.06 796.355C1294.43 787.697 1300.46 778.797 1306.16 769.684C1317.53 751.448 1327.51 732.357 1336.07 712.653C1353.23 673.153 1364.66 631.2 1370.22 588.513C1381.74 500.129 1368.02 408.001 1327.06 328.499C1251.99 182.769 1089.94 87.269 926.505 88.551C763.07 87.269 601.011 182.769 525.937 328.499C484.99 408.001 471.257 500.129 482.778 588.513C488.344 631.2 499.772 673.153 516.933 712.653C525.491 732.357 535.469 751.448 546.842 769.684C552.538 778.797 558.568 787.697 564.942 796.355C571.446 805.189 579.139 812.677 584.834 822.116C582.66 820.481 580.514 818.79 578.395 817.025C557.899 795.221 539.298 771.653 523.001 746.58C495.145 703.716 473.812 656.505 460.238 607.195C458.082 599.159 456.122 591.077 454.365 582.948C447.155 549.597 443.365 515.476 443.188 481.354C443.522 371.037 484.209 261.853 553.541 176.201C588.82 133.319 631.198 96.2708 678.621 67.5373C753.138 23.3547 839.826 0.408754 926.505 0C1013.04 0.408754 1099.6 23.2804 1174.03 67.3329C1221.59 96.0943 1264.1 133.217 1299.46 176.201C1368.79 261.853 1409.48 371.037 1409.81 481.354Z" fill="#0049FF"/>
<path d="M1310.72 562.39C1310.58 535.263 1307.57 508.137 1301.84 481.624C1300.45 475.232 1298.92 468.878 1297.23 462.561C1286.44 423.283 1269.46 385.678 1247.28 351.538C1234.33 331.62 1219.56 312.892 1203.27 295.575C1201.58 294.163 1199.87 292.807 1198.13 291.497C1202.65 299.003 1208.77 304.949 1213.94 311.972C1219 318.856 1223.8 325.925 1228.33 333.172C1237.37 347.673 1245.31 362.843 1252.11 378.506C1265.75 409.906 1274.84 443.256 1279.26 477.192C1288.42 547.451 1277.51 620.693 1244.95 683.892C1185.27 799.746 1056.44 875.662 926.523 874.64C796.602 875.662 667.768 799.746 608.09 683.892C575.543 620.693 564.625 547.451 573.777 477.192C578.2 443.256 587.287 409.906 600.927 378.506C607.728 362.843 615.663 347.664 624.703 333.172C629.228 325.925 634.022 318.856 639.095 311.972C644.261 304.949 650.384 298.994 654.909 291.497C653.181 292.798 651.471 294.145 649.79 295.548C633.493 312.882 618.71 331.62 605.749 351.547C583.608 385.622 566.642 423.153 555.854 462.356C554.145 468.748 552.584 475.167 551.19 481.633C545.457 508.146 542.447 535.272 542.308 562.399C542.577 650.095 574.92 736.89 630.036 804.985C658.078 839.079 691.768 868.528 729.472 891.371C788.714 926.496 857.628 944.732 926.532 945.058C995.325 944.732 1064.14 926.552 1123.31 891.529C1161.12 868.667 1194.91 839.153 1223.02 804.985C1278.13 736.89 1310.48 650.095 1310.75 562.399L1310.72 562.39Z" fill="#FE0000"/>
<path d="M905.636 130.708C876.257 130.708 852.034 153.246 849.358 181.942C849.191 183.688 849.107 185.454 849.107 187.237V301.215C849.107 304.577 853.298 306.129 855.481 303.583L873.181 283.016C875.216 280.647 876.331 277.637 876.331 274.515V187.237C876.331 186.336 876.368 185.435 876.47 184.552C877.827 169.651 890.38 157.937 905.627 157.937C921.784 157.937 934.931 171.082 934.931 187.237C934.931 203.392 921.784 216.537 905.627 216.537C901.529 216.537 897.617 215.692 894.068 214.15V242.568C897.794 243.357 901.659 243.766 905.627 243.766C936.799 243.766 962.164 218.405 962.164 187.237C962.164 156.07 936.799 130.708 905.627 130.708H905.636ZM919.712 188.408C919.712 196.174 913.413 202.473 905.645 202.473C897.878 202.473 891.578 196.174 891.578 188.408C891.578 180.641 897.878 174.343 905.645 174.343C913.413 174.343 919.712 180.641 919.712 188.408Z" fill="#0144DB"/>
<path d="M568.457 1596H544.877V1508.75H448.985V1596H425.405V1408.93H448.985V1488.06H544.877V1408.93H568.457V1596ZM738.55 1525.52C738.55 1537.22 736.978 1547.62 733.834 1556.7C730.865 1565.61 726.498 1573.21 720.734 1579.49C715.145 1585.78 708.246 1590.59 700.036 1593.9C692.002 1597.05 683.006 1598.62 673.05 1598.62C663.793 1598.62 655.234 1597.05 647.374 1593.9C639.514 1590.59 632.702 1585.78 626.938 1579.49C621.174 1573.21 616.633 1565.61 613.314 1556.7C610.17 1547.62 608.598 1537.22 608.598 1525.52C608.598 1509.98 611.218 1496.88 616.458 1486.22C621.698 1475.39 629.209 1467.18 638.99 1461.59C648.772 1455.83 660.387 1452.95 673.836 1452.95C686.587 1452.95 697.766 1455.83 707.372 1461.59C717.154 1467.18 724.752 1475.39 730.166 1486.22C735.756 1496.88 738.55 1509.98 738.55 1525.52ZM632.44 1525.52C632.44 1536.53 633.838 1546.13 636.632 1554.34C639.602 1562.38 644.143 1568.58 650.256 1572.94C656.37 1577.31 664.142 1579.49 673.574 1579.49C683.006 1579.49 690.779 1577.31 696.892 1572.94C703.006 1568.58 707.46 1562.38 710.254 1554.34C713.224 1546.13 714.708 1536.53 714.708 1525.52C714.708 1514.34 713.224 1504.82 710.254 1496.96C707.285 1489.1 702.744 1483.08 696.63 1478.89C690.692 1474.52 682.919 1472.34 673.312 1472.34C658.99 1472.34 648.597 1477.05 642.134 1486.48C635.672 1495.92 632.44 1508.93 632.44 1525.52ZM866.529 1557.22C866.529 1566.31 864.259 1573.9 859.717 1580.02C855.176 1586.13 848.713 1590.76 840.329 1593.9C831.945 1597.05 821.989 1598.62 810.461 1598.62C800.68 1598.62 792.209 1597.83 785.047 1596.26C778.061 1594.69 771.86 1592.51 766.445 1589.71V1568.75C772.035 1571.55 778.759 1574.17 786.619 1576.61C794.654 1578.88 802.776 1580.02 810.985 1580.02C822.688 1580.02 831.159 1578.18 836.399 1574.52C841.639 1570.67 844.259 1565.61 844.259 1559.32C844.259 1555.83 843.299 1552.68 841.377 1549.89C839.456 1547.09 835.963 1544.3 830.897 1541.5C826.007 1538.71 818.933 1535.57 809.675 1532.07C800.593 1528.58 792.82 1525.09 786.357 1521.59C779.895 1518.1 774.917 1513.91 771.423 1509.02C767.93 1504.13 766.183 1497.84 766.183 1490.15C766.183 1478.27 770.987 1469.1 780.593 1462.64C790.375 1456.18 803.125 1452.95 818.845 1452.95C827.404 1452.95 835.351 1453.82 842.687 1455.57C850.198 1457.14 857.185 1459.41 863.647 1462.38L855.787 1480.72C851.945 1478.97 847.84 1477.49 843.473 1476.27C839.281 1474.87 835.002 1473.82 830.635 1473.12C826.269 1472.25 821.815 1471.81 817.273 1471.81C807.841 1471.81 800.593 1473.38 795.527 1476.53C790.637 1479.5 788.191 1483.6 788.191 1488.84C788.191 1492.68 789.327 1496 791.597 1498.8C793.868 1501.42 797.623 1504.04 802.863 1506.66C808.278 1509.1 815.439 1512.07 824.347 1515.57C833.255 1518.88 840.853 1522.29 847.141 1525.78C853.429 1529.28 858.233 1533.56 861.551 1538.62C864.87 1543.51 866.529 1549.71 866.529 1557.22ZM967.272 1452.95C984.564 1452.95 998.45 1458.97 1008.93 1471.03C1019.59 1483.08 1024.91 1501.24 1024.91 1525.52C1024.91 1541.42 1022.47 1554.87 1017.58 1565.87C1012.86 1576.7 1006.14 1584.91 997.402 1590.5C988.844 1595.91 978.713 1598.62 967.01 1598.62C959.849 1598.62 953.474 1597.66 947.884 1595.74C942.295 1593.82 937.492 1591.37 933.474 1588.4C929.632 1585.26 926.313 1581.85 923.518 1578.18H921.946C922.296 1581.15 922.645 1584.91 922.994 1589.45C923.344 1593.99 923.518 1597.92 923.518 1601.24V1658.88H900.462V1455.57H919.326L922.47 1474.69H923.518C926.313 1470.68 929.632 1467.01 933.474 1463.69C937.492 1460.37 942.208 1457.75 947.622 1455.83C953.212 1453.91 959.762 1452.95 967.272 1452.95ZM963.08 1472.34C953.648 1472.34 946.05 1474.17 940.286 1477.84C934.522 1481.33 930.33 1486.66 927.71 1493.82C925.09 1500.98 923.693 1510.06 923.518 1521.07V1525.52C923.518 1537.05 924.741 1546.83 927.186 1554.87C929.632 1562.9 933.736 1569.01 939.5 1573.21C945.439 1577.4 953.474 1579.49 963.604 1579.49C972.163 1579.49 979.15 1577.14 984.564 1572.42C990.154 1567.7 994.258 1561.33 996.878 1553.29C999.673 1545.08 1001.07 1535.74 1001.07 1525.26C1001.07 1509.19 997.926 1496.35 991.638 1486.75C985.525 1477.14 976.006 1472.34 963.08 1472.34ZM1084.71 1455.57V1596H1061.65V1455.57H1084.71ZM1073.44 1402.91C1076.94 1402.91 1079.99 1404.13 1082.61 1406.57C1085.41 1408.84 1086.81 1412.51 1086.81 1417.58C1086.81 1422.47 1085.41 1426.14 1082.61 1428.58C1079.99 1431.03 1076.94 1432.25 1073.44 1432.25C1069.6 1432.25 1066.37 1431.03 1063.75 1428.58C1061.13 1426.14 1059.82 1422.47 1059.82 1417.58C1059.82 1412.51 1061.13 1408.84 1063.75 1406.57C1066.37 1404.13 1069.6 1402.91 1073.44 1402.91ZM1176.1 1579.76C1179.59 1579.76 1183.17 1579.49 1186.84 1578.97C1190.51 1578.27 1193.48 1577.57 1195.75 1576.87V1594.43C1193.3 1595.65 1189.81 1596.61 1185.27 1597.31C1180.73 1598.18 1176.36 1598.62 1172.17 1598.62C1164.83 1598.62 1158.02 1597.4 1151.73 1594.95C1145.62 1592.33 1140.64 1587.88 1136.8 1581.59C1132.96 1575.3 1131.03 1566.48 1131.03 1555.13V1473.38H1111.12V1462.38L1131.3 1453.21L1140.47 1423.34H1154.09V1455.57H1194.7V1473.38H1154.09V1554.6C1154.09 1563.16 1156.1 1569.54 1160.12 1573.73C1164.31 1577.75 1169.64 1579.76 1176.1 1579.76ZM1277.05 1453.21C1294.17 1453.21 1306.84 1456.97 1315.04 1464.48C1323.25 1471.99 1327.36 1483.95 1327.36 1500.37V1596H1310.59L1306.14 1576.09H1305.09C1301.07 1581.15 1296.88 1585.43 1292.51 1588.93C1288.32 1592.24 1283.43 1594.69 1277.84 1596.26C1272.43 1597.83 1265.79 1598.62 1257.93 1598.62C1249.54 1598.62 1241.95 1597.14 1235.13 1594.17C1228.5 1591.2 1223.26 1586.66 1219.41 1580.54C1215.57 1574.25 1213.65 1566.39 1213.65 1556.96C1213.65 1542.99 1219.15 1532.25 1230.16 1524.74C1241.16 1517.05 1258.1 1512.86 1280.98 1512.16L1304.83 1511.37V1502.99C1304.83 1491.29 1302.29 1483.17 1297.23 1478.62C1292.16 1474.08 1285 1471.81 1275.74 1471.81C1268.41 1471.81 1261.42 1472.95 1254.78 1475.22C1248.15 1477.31 1241.95 1479.76 1236.18 1482.55L1229.11 1465.26C1235.22 1461.94 1242.47 1459.15 1250.85 1456.88C1259.24 1454.43 1267.97 1453.21 1277.05 1453.21ZM1283.87 1528.14C1266.4 1528.84 1254.26 1531.64 1247.45 1536.53C1240.81 1541.42 1237.49 1548.32 1237.49 1557.22C1237.49 1565.08 1239.85 1570.85 1244.57 1574.52C1249.46 1578.18 1255.66 1580.02 1263.17 1580.02C1275.05 1580.02 1284.91 1576.79 1292.77 1570.32C1300.63 1563.69 1304.56 1553.56 1304.56 1539.93V1527.36L1283.87 1528.14ZM1393.79 1596H1370.73V1396.88H1393.79V1596Z" fill="#FE0000"/>
<path d="M568.457 1596V1600H572.457V1596H568.457ZM544.877 1596H540.877V1600H544.877V1596ZM544.877 1508.75H548.877V1504.75H544.877V1508.75ZM448.985 1508.75V1504.75H444.985V1508.75H448.985ZM448.985 1596V1600H452.985V1596H448.985ZM425.405 1596H421.405V1600H425.405V1596ZM425.405 1408.93V1404.93H421.405V1408.93H425.405ZM448.985 1408.93H452.985V1404.93H448.985V1408.93ZM448.985 1488.06H444.985V1492.06H448.985V1488.06ZM544.877 1488.06V1492.06H548.877V1488.06H544.877ZM544.877 1408.93V1404.93H540.877V1408.93H544.877ZM568.457 1408.93H572.457V1404.93H568.457V1408.93ZM568.457 1592H544.877V1600H568.457V1592ZM548.877 1596V1508.75H540.877V1596H548.877ZM544.877 1504.75H448.985V1512.75H544.877V1504.75ZM444.985 1508.75V1596H452.985V1508.75H444.985ZM448.985 1592H425.405V1600H448.985V1592ZM429.405 1596V1408.93H421.405V1596H429.405ZM425.405 1412.93H448.985V1404.93H425.405V1412.93ZM444.985 1408.93V1488.06H452.985V1408.93H444.985ZM448.985 1492.06H544.877V1484.06H448.985V1492.06ZM548.877 1488.06V1408.93H540.877V1488.06H548.877ZM544.877 1412.93H568.457V1404.93H544.877V1412.93ZM564.457 1408.93V1596H572.457V1408.93H564.457ZM733.834 1556.7L730.055 1555.39L730.047 1555.41L730.04 1555.44L733.834 1556.7ZM720.734 1579.49L717.786 1576.79L717.765 1576.81L717.745 1576.84L720.734 1579.49ZM700.036 1593.9L701.494 1597.63L701.515 1597.62L701.536 1597.61L700.036 1593.9ZM647.374 1593.9L645.819 1597.59L645.854 1597.6L645.889 1597.62L647.374 1593.9ZM626.938 1579.49L623.99 1582.2L623.99 1582.2L626.938 1579.49ZM613.314 1556.7L609.535 1558.01L609.55 1558.05L609.566 1558.1L613.314 1556.7ZM616.458 1486.22L620.048 1487.99L620.054 1487.98L620.059 1487.96L616.458 1486.22ZM638.99 1461.59L640.975 1465.07L640.998 1465.05L641.021 1465.04L638.99 1461.59ZM707.372 1461.59L705.314 1465.02L705.351 1465.05L705.388 1465.07L707.372 1461.59ZM730.166 1486.22L726.589 1488.01L726.606 1488.05L726.624 1488.08L730.166 1486.22ZM636.632 1554.34L632.846 1555.63L632.863 1555.68L632.88 1555.73L636.632 1554.34ZM650.256 1572.94L652.581 1569.69L652.581 1569.69L650.256 1572.94ZM696.892 1572.94L694.568 1569.69L694.568 1569.69L696.892 1572.94ZM710.254 1554.34L706.493 1552.98L706.485 1553L706.476 1553.03L710.254 1554.34ZM710.254 1496.96L713.996 1495.55L713.996 1495.55L710.254 1496.96ZM696.63 1478.89L694.261 1482.11L694.314 1482.15L694.368 1482.18L696.63 1478.89ZM642.134 1486.48L645.434 1488.74L645.434 1488.74L642.134 1486.48ZM734.55 1525.52C734.55 1536.87 733.025 1546.81 730.055 1555.39L737.614 1558.01C740.932 1548.42 742.55 1537.58 742.55 1525.52H734.55ZM730.04 1555.44C727.23 1563.86 723.133 1570.96 717.786 1576.79L723.683 1582.2C729.864 1575.45 734.5 1567.35 737.629 1557.96L730.04 1555.44ZM717.745 1576.84C712.586 1582.64 706.206 1587.1 698.537 1590.2L701.536 1597.61C710.285 1594.08 717.704 1588.92 723.724 1582.15L717.745 1576.84ZM698.579 1590.18C691.074 1593.12 682.584 1594.62 673.05 1594.62V1602.62C683.429 1602.62 692.929 1600.98 701.494 1597.63L698.579 1590.18ZM673.05 1594.62C664.254 1594.62 656.205 1593.13 648.86 1590.19L645.889 1597.62C654.264 1600.97 663.332 1602.62 673.05 1602.62V1594.62ZM648.93 1590.22C641.6 1587.12 635.263 1582.66 629.887 1576.79L623.99 1582.2C630.142 1588.91 637.429 1594.05 645.819 1597.59L648.93 1590.22ZM629.887 1576.79C624.509 1570.92 620.222 1563.78 617.063 1555.3L609.566 1558.1C613.044 1567.43 617.84 1575.49 623.99 1582.2L629.887 1576.79ZM617.094 1555.39C614.124 1546.81 612.598 1536.87 612.598 1525.52H604.598C604.598 1537.58 606.217 1548.42 609.535 1558.01L617.094 1555.39ZM612.598 1525.52C612.598 1510.41 615.148 1497.95 620.048 1487.99L612.869 1484.46C607.289 1495.8 604.598 1509.55 604.598 1525.52H612.598ZM620.059 1487.96C624.973 1477.81 631.943 1470.23 640.975 1465.07L637.006 1458.12C626.475 1464.14 618.424 1472.98 612.858 1484.48L620.059 1487.96ZM641.021 1465.04C650.082 1459.7 660.969 1456.95 673.836 1456.95V1448.95C659.806 1448.95 647.461 1451.96 636.96 1458.15L641.021 1465.04ZM673.836 1456.95C685.964 1456.95 696.412 1459.68 705.314 1465.02L709.43 1458.16C699.12 1451.98 687.21 1448.95 673.836 1448.95V1456.95ZM705.388 1465.07C714.432 1470.23 721.5 1477.83 726.589 1488.01L733.744 1484.43C728.004 1472.95 719.876 1464.13 709.357 1458.12L705.388 1465.07ZM726.624 1488.08C731.838 1498.02 734.55 1510.44 734.55 1525.52H742.55C742.55 1509.51 739.674 1495.73 733.709 1484.36L726.624 1488.08ZM628.44 1525.52C628.44 1536.85 629.878 1546.91 632.846 1555.63L640.419 1553.05C637.798 1545.35 636.44 1536.2 636.44 1525.52H628.44ZM632.88 1555.73C636.087 1564.41 641.078 1571.3 647.932 1576.2L652.581 1569.69C647.209 1565.85 643.116 1560.35 640.384 1552.96L632.88 1555.73ZM647.932 1576.2C654.879 1581.16 663.523 1583.49 673.574 1583.49V1575.49C664.762 1575.49 657.86 1573.46 652.581 1569.69L647.932 1576.2ZM673.574 1583.49C683.626 1583.49 692.27 1581.16 699.217 1576.2L694.568 1569.69C689.289 1573.46 682.387 1575.49 673.574 1575.49V1583.49ZM699.217 1576.2C706.091 1571.29 711.003 1564.36 714.032 1555.66L706.476 1553.03C703.916 1560.39 699.92 1565.87 694.568 1569.69L699.217 1576.2ZM714.016 1555.7C717.178 1546.96 718.708 1536.87 718.708 1525.52H710.708C710.708 1536.18 709.269 1545.31 706.493 1552.98L714.016 1555.7ZM718.708 1525.52C718.708 1514.01 717.182 1503.98 713.996 1495.55L706.513 1498.38C709.265 1505.66 710.708 1514.68 710.708 1525.52H718.708ZM713.996 1495.55C710.778 1487.03 705.768 1480.3 698.893 1475.59L694.368 1482.18C699.72 1485.85 703.792 1491.18 706.513 1498.38L713.996 1495.55ZM699 1475.66C692.192 1470.66 683.513 1468.34 673.312 1468.34V1476.34C682.325 1476.34 689.191 1478.38 694.261 1482.11L699 1475.66ZM673.312 1468.34C658.046 1468.34 646.233 1473.43 638.835 1484.22L645.434 1488.74C650.961 1480.68 659.934 1476.34 673.312 1476.34V1468.34ZM638.835 1484.22C631.753 1494.56 628.44 1508.47 628.44 1525.52H636.44C636.44 1509.39 639.591 1497.27 645.434 1488.74L638.835 1484.22ZM859.717 1580.02L856.506 1577.63L856.506 1577.63L859.717 1580.02ZM840.329 1593.9L838.925 1590.16L840.329 1593.9ZM785.047 1596.26L784.169 1600.16L784.179 1600.17L784.19 1600.17L785.047 1596.26ZM766.445 1589.71H762.445V1592.15L764.611 1593.27L766.445 1589.71ZM766.445 1568.75L768.234 1565.17L762.445 1562.28V1568.75H766.445ZM786.619 1576.61L785.431 1580.43L785.481 1580.45L785.531 1580.46L786.619 1576.61ZM836.399 1574.52L838.693 1577.79L838.729 1577.77L838.765 1577.74L836.399 1574.52ZM841.377 1549.89L844.673 1547.62L844.673 1547.62L841.377 1549.89ZM830.897 1541.5L828.913 1544.98L828.939 1544.99L828.965 1545.01L830.897 1541.5ZM809.675 1532.07L808.239 1535.81L808.251 1535.81L808.263 1535.81L809.675 1532.07ZM771.423 1509.02L768.168 1511.34L768.168 1511.34L771.423 1509.02ZM780.593 1462.64L778.388 1459.3L778.374 1459.31L778.361 1459.32L780.593 1462.64ZM842.687 1455.57L841.761 1459.46L841.814 1459.47L841.868 1459.48L842.687 1455.57ZM863.647 1462.38L867.324 1463.96L868.859 1460.37L865.317 1458.75L863.647 1462.38ZM855.787 1480.72L854.132 1484.36L857.854 1486.05L859.464 1482.3L855.787 1480.72ZM843.473 1476.27L842.208 1480.06L842.301 1480.09L842.395 1480.12L843.473 1476.27ZM830.635 1473.12L829.851 1477.04L829.927 1477.06L830.003 1477.07L830.635 1473.12ZM795.527 1476.53L797.603 1479.95L797.62 1479.94L797.637 1479.93L795.527 1476.53ZM791.597 1498.8L788.493 1501.32L788.533 1501.37L788.575 1501.42L791.597 1498.8ZM802.863 1506.66L801.074 1510.24L801.145 1510.27L801.217 1510.3L802.863 1506.66ZM824.347 1515.57L822.887 1519.29L822.919 1519.3L822.951 1519.31L824.347 1515.57ZM847.141 1525.78L845.199 1529.28L845.199 1529.28L847.141 1525.78ZM861.551 1538.62L858.205 1540.81L858.223 1540.84L858.241 1540.87L861.551 1538.62ZM862.529 1557.22C862.529 1565.62 860.442 1572.33 856.506 1577.63L862.928 1582.4C868.075 1575.47 870.529 1567 870.529 1557.22H862.529ZM856.506 1577.63C852.5 1583.03 846.717 1587.24 838.925 1590.16L841.734 1597.65C850.709 1594.28 857.852 1589.24 862.928 1582.4L856.506 1577.63ZM838.925 1590.16C831.098 1593.09 821.641 1594.62 810.461 1594.62V1602.62C822.338 1602.62 832.792 1601 841.734 1597.65L838.925 1590.16ZM810.461 1594.62C800.879 1594.62 792.709 1593.85 785.905 1592.36L784.19 1600.17C791.708 1601.82 800.481 1602.62 810.461 1602.62V1594.62ZM785.925 1592.36C779.215 1590.85 773.344 1588.77 768.28 1586.16L764.611 1593.27C770.376 1596.24 776.907 1598.53 784.169 1600.16L785.925 1592.36ZM770.445 1589.71V1568.75H762.445V1589.71H770.445ZM764.656 1572.33C770.489 1575.25 777.425 1577.94 785.431 1580.43L787.808 1572.79C780.093 1570.39 773.581 1567.85 768.234 1565.17L764.656 1572.33ZM785.531 1580.46C793.914 1582.83 802.402 1584.02 810.985 1584.02V1576.02C803.15 1576.02 795.394 1574.94 787.707 1572.76L785.531 1580.46ZM810.985 1584.02C822.919 1584.02 832.421 1582.18 838.693 1577.79L834.105 1571.24C829.898 1574.18 822.457 1576.02 810.985 1576.02V1584.02ZM838.765 1577.74C844.992 1573.18 848.259 1566.93 848.259 1559.32H840.259C840.259 1564.28 838.287 1568.17 834.034 1571.29L838.765 1577.74ZM848.259 1559.32C848.259 1555.04 847.068 1551.1 844.673 1547.62L838.081 1552.15C839.53 1554.26 840.259 1556.61 840.259 1559.32H848.259ZM844.673 1547.62C842.234 1544.07 838.106 1540.91 832.83 1538L828.965 1545.01C833.82 1547.68 836.678 1550.11 838.081 1552.15L844.673 1547.62ZM832.882 1538.03C827.721 1535.08 820.419 1531.85 811.088 1528.33L808.263 1535.81C817.447 1539.28 824.293 1542.34 828.913 1544.98L832.882 1538.03ZM811.111 1528.34C802.14 1524.89 794.532 1521.46 788.259 1518.07L784.455 1525.11C791.108 1528.71 799.045 1532.27 808.239 1535.81L811.111 1528.34ZM788.259 1518.07C782.216 1514.81 777.747 1510.99 774.678 1506.69L768.168 1511.34C772.086 1516.83 777.574 1521.39 784.455 1525.11L788.259 1518.07ZM774.678 1506.69C771.789 1502.65 770.183 1497.24 770.183 1490.15H762.183C762.183 1498.44 764.071 1505.6 768.168 1511.34L774.678 1506.69ZM770.183 1490.15C770.183 1479.56 774.358 1471.66 782.826 1465.96L778.361 1459.32C767.615 1466.55 762.183 1476.98 762.183 1490.15H770.183ZM782.798 1465.98C791.737 1460.07 803.648 1456.95 818.845 1456.95V1448.95C802.602 1448.95 789.012 1452.29 778.388 1459.3L782.798 1465.98ZM818.845 1456.95C827.133 1456.95 834.766 1457.79 841.761 1459.46L843.614 1451.68C835.937 1449.85 827.675 1448.95 818.845 1448.95V1456.95ZM841.868 1459.48C849.108 1461 855.807 1463.18 861.977 1466.01L865.317 1458.75C858.562 1455.64 851.288 1453.28 843.507 1451.65L841.868 1459.48ZM859.971 1460.8L852.111 1479.14L859.464 1482.3L867.324 1463.96L859.971 1460.8ZM857.443 1477.08C853.4 1475.24 849.101 1473.69 844.552 1472.41L842.395 1480.12C846.579 1481.29 850.489 1482.71 854.132 1484.36L857.443 1477.08ZM844.738 1472.47C840.34 1471.01 835.849 1469.91 831.267 1469.17L830.003 1477.07C834.155 1477.74 838.223 1478.73 842.208 1480.06L844.738 1472.47ZM831.42 1469.2C826.79 1468.27 822.073 1467.81 817.273 1467.81V1475.81C821.556 1475.81 825.748 1476.22 829.851 1477.04L831.42 1469.2ZM817.273 1467.81C807.492 1467.81 799.385 1469.43 793.418 1473.13L797.637 1479.93C801.8 1477.34 808.191 1475.81 817.273 1475.81V1467.81ZM793.451 1473.11C787.498 1476.72 784.191 1482.06 784.191 1488.84H792.191C792.191 1485.15 793.775 1482.27 797.603 1479.95L793.451 1473.11ZM784.191 1488.84C784.191 1493.54 785.602 1497.76 788.493 1501.32L794.702 1496.28C793.051 1494.24 792.191 1491.83 792.191 1488.84H784.191ZM788.575 1501.42C791.348 1504.62 795.644 1507.52 801.074 1510.24L804.652 1503.08C799.603 1500.56 796.388 1498.22 794.62 1496.18L788.575 1501.42ZM801.217 1510.3C806.718 1512.79 813.949 1515.78 822.887 1519.29L825.808 1511.84C816.93 1508.36 809.838 1505.42 804.51 1503.01L801.217 1510.3ZM822.951 1519.31C831.727 1522.58 839.132 1525.91 845.199 1529.28L849.084 1522.29C842.575 1518.67 834.784 1515.19 825.744 1511.82L822.951 1519.31ZM845.199 1529.28C851.026 1532.52 855.303 1536.38 858.205 1540.81L864.897 1536.43C861.162 1530.73 855.832 1526.04 849.084 1522.29L845.199 1529.28ZM858.241 1540.87C861.003 1544.94 862.529 1550.3 862.529 1557.22H870.529C870.529 1549.13 868.737 1542.09 864.861 1536.38L858.241 1540.87ZM1008.93 1471.03L1005.91 1473.65L1005.92 1473.66L1005.93 1473.68L1008.93 1471.03ZM1017.58 1565.87L1013.92 1564.25L1013.92 1564.26L1013.91 1564.27L1017.58 1565.87ZM997.402 1590.5L999.541 1593.88L999.55 1593.87L999.559 1593.87L997.402 1590.5ZM947.884 1595.74L946.584 1599.52L946.584 1599.52L947.884 1595.74ZM933.474 1588.4L930.941 1591.5L931.018 1591.56L931.097 1591.62L933.474 1588.4ZM923.518 1578.18L926.7 1575.76L925.499 1574.18H923.518V1578.18ZM921.946 1578.18V1574.18H917.448L917.974 1578.65L921.946 1578.18ZM922.994 1589.45L919.006 1589.76L919.006 1589.76L922.994 1589.45ZM923.518 1658.88V1662.88H927.518V1658.88H923.518ZM900.462 1658.88H896.462V1662.88H900.462V1658.88ZM900.462 1455.57V1451.57H896.462V1455.57H900.462ZM919.326 1455.57L923.273 1454.92L922.723 1451.57H919.326V1455.57ZM922.47 1474.69L918.523 1475.34L919.074 1478.69H922.47V1474.69ZM923.518 1474.69V1478.69H925.608L926.802 1476.98L923.518 1474.69ZM933.474 1463.69L930.927 1460.61L930.893 1460.63L930.86 1460.66L933.474 1463.69ZM947.622 1455.83L946.322 1452.05L946.303 1452.05L946.285 1452.06L947.622 1455.83ZM940.286 1477.84L942.36 1481.26L942.397 1481.24L942.434 1481.21L940.286 1477.84ZM923.518 1521.07L919.519 1521L919.518 1521.04V1521.07H923.518ZM927.186 1554.87L923.36 1556.03L923.36 1556.03L927.186 1554.87ZM939.5 1573.21L937.148 1576.44L937.171 1576.46L937.194 1576.47L939.5 1573.21ZM984.564 1572.42L981.985 1569.36L981.961 1569.38L981.937 1569.4L984.564 1572.42ZM996.878 1553.29L993.092 1552L993.083 1552.03L993.075 1552.05L996.878 1553.29ZM991.638 1486.75L988.264 1488.89L988.278 1488.92L988.292 1488.94L991.638 1486.75ZM967.272 1456.95C983.515 1456.95 996.26 1462.55 1005.91 1473.65L1011.95 1468.4C1000.64 1455.4 985.614 1448.95 967.272 1448.95V1456.95ZM1005.93 1473.68C1015.68 1484.7 1020.91 1501.74 1020.91 1525.52H1028.91C1028.91 1500.75 1023.49 1481.45 1011.93 1468.38L1005.93 1473.68ZM1020.91 1525.52C1020.91 1541.03 1018.52 1553.89 1013.92 1564.25L1021.23 1567.49C1026.41 1555.84 1028.91 1541.81 1028.91 1525.52H1020.91ZM1013.91 1564.27C1009.46 1574.48 1003.22 1582.02 995.246 1587.13L999.559 1593.87C1009.05 1587.79 1016.26 1578.92 1021.24 1567.47L1013.91 1564.27ZM995.264 1587.12C987.44 1592.07 978.076 1594.62 967.01 1594.62V1602.62C979.35 1602.62 990.248 1599.76 999.541 1593.88L995.264 1587.12ZM967.01 1594.62C960.201 1594.62 954.278 1593.71 949.185 1591.96L946.584 1599.52C952.67 1601.61 959.497 1602.62 967.01 1602.62V1594.62ZM949.185 1591.96C943.913 1590.14 939.488 1587.87 935.852 1585.19L931.097 1591.62C935.496 1594.87 940.678 1597.49 946.584 1599.52L949.185 1591.96ZM936.007 1585.31C932.388 1582.34 929.292 1579.16 926.7 1575.76L920.337 1580.61C923.334 1584.54 926.875 1588.17 930.941 1591.5L936.007 1585.31ZM923.518 1574.18H921.946V1582.18H923.518V1574.18ZM917.974 1578.65C918.314 1581.55 918.659 1585.24 919.006 1589.76L926.983 1589.14C926.631 1584.57 926.277 1580.76 925.919 1577.72L917.974 1578.65ZM919.006 1589.76C919.35 1594.23 919.518 1598.05 919.518 1601.24H927.518C927.518 1597.79 927.337 1593.75 926.983 1589.14L919.006 1589.76ZM919.518 1601.24V1658.88H927.518V1601.24H919.518ZM923.518 1654.88H900.462V1662.88H923.518V1654.88ZM904.462 1658.88V1455.57H896.462V1658.88H904.462ZM900.462 1459.57H919.326V1451.57H900.462V1459.57ZM915.379 1456.22L918.523 1475.34L926.417 1474.05L923.273 1454.92L915.379 1456.22ZM922.47 1478.69H923.518V1470.69H922.47V1478.69ZM926.802 1476.98C929.399 1473.25 932.49 1469.83 936.089 1466.72L930.86 1460.66C926.774 1464.19 923.228 1468.11 920.235 1472.41L926.802 1476.98ZM936.022 1466.77C939.644 1463.78 943.941 1461.38 948.96 1459.6L946.285 1452.06C940.475 1454.12 935.339 1456.96 930.927 1460.61L936.022 1466.77ZM948.923 1459.61C953.998 1457.87 960.09 1456.95 967.272 1456.95V1448.95C959.433 1448.95 952.426 1449.95 946.322 1452.05L948.923 1459.61ZM963.08 1468.34C953.167 1468.34 944.745 1470.26 938.139 1474.46L942.434 1481.21C947.356 1478.08 954.13 1476.34 963.08 1476.34V1468.34ZM938.213 1474.42C931.571 1478.44 926.843 1484.55 923.954 1492.45L931.467 1495.19C933.818 1488.77 937.474 1484.22 942.36 1481.26L938.213 1474.42ZM923.954 1492.45C921.128 1500.17 919.698 1509.73 919.519 1521L927.518 1521.13C927.688 1510.39 929.052 1501.79 931.467 1495.19L923.954 1492.45ZM919.518 1521.07V1525.52H927.518V1521.07H919.518ZM919.518 1525.52C919.518 1537.31 920.766 1547.51 923.36 1556.03L931.013 1553.7C928.716 1546.16 927.518 1536.79 927.518 1525.52H919.518ZM923.36 1556.03C926.011 1564.74 930.561 1571.65 937.148 1576.44L941.853 1569.97C936.912 1566.38 933.252 1561.06 931.013 1553.7L923.36 1556.03ZM937.194 1576.47C944.026 1581.3 952.963 1583.49 963.604 1583.49V1575.49C953.984 1575.49 946.852 1573.5 941.807 1569.94L937.194 1576.47ZM963.604 1583.49C972.934 1583.49 980.914 1580.9 987.192 1575.44L981.937 1569.4C977.385 1573.37 971.392 1575.49 963.604 1575.49V1583.49ZM987.144 1575.48C993.386 1570.21 997.867 1563.16 1000.68 1554.53L993.075 1552.05C990.65 1559.49 986.921 1565.2 981.985 1569.36L987.144 1575.48ZM1000.66 1554.58C1003.63 1545.88 1005.07 1536.09 1005.07 1525.26H997.07C997.07 1535.39 995.719 1544.29 993.092 1552L1000.66 1554.58ZM1005.07 1525.26C1005.07 1508.71 1001.84 1495.02 994.985 1484.56L988.292 1488.94C994.015 1497.68 997.07 1509.67 997.07 1525.26H1005.07ZM995.013 1484.6C988.056 1473.67 977.155 1468.34 963.08 1468.34V1476.34C974.856 1476.34 982.994 1480.61 988.264 1488.89L995.013 1484.6ZM1084.71 1455.57H1088.71V1451.57H1084.71V1455.57ZM1084.71 1596V1600H1088.71V1596H1084.71ZM1061.65 1596H1057.65V1600H1061.65V1596ZM1061.65 1455.57V1451.57H1057.65V1455.57H1061.65ZM1082.61 1406.57L1079.88 1409.5L1079.98 1409.59L1080.09 1409.68L1082.61 1406.57ZM1082.61 1428.58L1079.98 1425.57L1079.93 1425.61L1079.88 1425.66L1082.61 1428.58ZM1063.75 1428.58L1066.48 1425.66L1066.48 1425.66L1063.75 1428.58ZM1063.75 1406.57L1066.37 1409.6L1066.43 1409.55L1066.48 1409.5L1063.75 1406.57ZM1080.71 1455.57V1596H1088.71V1455.57H1080.71ZM1084.71 1592H1061.65V1600H1084.71V1592ZM1065.65 1596V1455.57H1057.65V1596H1065.65ZM1061.65 1459.57H1084.71V1451.57H1061.65V1459.57ZM1073.44 1406.91C1075.9 1406.91 1077.98 1407.72 1079.88 1409.5L1085.34 1403.65C1082 1400.53 1077.98 1398.91 1073.44 1398.91V1406.91ZM1080.09 1409.68C1081.61 1410.92 1082.81 1413.2 1082.81 1417.58H1090.81C1090.81 1411.82 1089.2 1406.77 1085.14 1403.47L1080.09 1409.68ZM1082.81 1417.58C1082.81 1421.7 1081.65 1424.11 1079.98 1425.57L1085.25 1431.59C1089.16 1428.16 1090.81 1423.23 1090.81 1417.58H1082.81ZM1079.88 1425.66C1077.98 1427.43 1075.9 1428.25 1073.44 1428.25V1436.25C1077.98 1436.25 1082 1434.62 1085.34 1431.51L1079.88 1425.66ZM1073.44 1428.25C1070.53 1428.25 1068.3 1427.36 1066.48 1425.66L1061.02 1431.51C1064.44 1434.7 1068.67 1436.25 1073.44 1436.25V1428.25ZM1066.48 1425.66C1064.93 1424.21 1063.82 1421.78 1063.82 1417.58H1055.82C1055.82 1423.16 1057.33 1428.06 1061.02 1431.51L1066.48 1425.66ZM1063.82 1417.58C1063.82 1413.13 1064.97 1410.81 1066.37 1409.6L1061.13 1403.55C1057.29 1406.88 1055.82 1411.9 1055.82 1417.58H1063.82ZM1066.48 1409.5C1068.3 1407.8 1070.53 1406.91 1073.44 1406.91V1398.91C1068.67 1398.91 1064.44 1400.46 1061.02 1403.65L1066.48 1409.5ZM1186.84 1578.97L1187.41 1582.93L1187.5 1582.92L1187.59 1582.9L1186.84 1578.97ZM1195.75 1576.87H1199.75V1571.46L1194.57 1573.05L1195.75 1576.87ZM1195.75 1594.43L1197.54 1598.01L1199.75 1596.9V1594.43H1195.75ZM1185.27 1597.31L1184.66 1593.36L1184.59 1593.37L1184.51 1593.38L1185.27 1597.31ZM1151.73 1594.95L1150.16 1598.63L1150.22 1598.66L1150.28 1598.68L1151.73 1594.95ZM1136.8 1581.59L1133.39 1583.68L1136.8 1581.59ZM1131.03 1473.38H1135.03V1469.38H1131.03V1473.38ZM1111.12 1473.38H1107.12V1477.38H1111.12V1473.38ZM1111.12 1462.38L1109.47 1458.74L1107.12 1459.8V1462.38H1111.12ZM1131.3 1453.21L1132.95 1456.85L1134.59 1456.11L1135.12 1454.38L1131.3 1453.21ZM1140.47 1423.34V1419.34H1137.51L1136.64 1422.17L1140.47 1423.34ZM1154.09 1423.34H1158.09V1419.34H1154.09V1423.34ZM1154.09 1455.57H1150.09V1459.57H1154.09V1455.57ZM1194.7 1455.57H1198.7V1451.57H1194.7V1455.57ZM1194.7 1473.38V1477.38H1198.7V1473.38H1194.7ZM1154.09 1473.38V1469.38H1150.09V1473.38H1154.09ZM1160.12 1573.73L1157.23 1576.5L1157.29 1576.56L1157.35 1576.62L1160.12 1573.73ZM1176.1 1583.76C1179.79 1583.76 1183.56 1583.48 1187.41 1582.93L1186.27 1575.01C1182.78 1575.51 1179.39 1575.76 1176.1 1575.76V1583.76ZM1187.59 1582.9C1191.33 1582.19 1194.46 1581.46 1196.93 1580.7L1194.57 1573.05C1192.5 1573.69 1189.69 1574.36 1186.09 1575.04L1187.59 1582.9ZM1191.75 1576.87V1594.43H1199.75V1576.87H1191.75ZM1193.96 1590.85C1192.05 1591.8 1189.03 1592.68 1184.66 1593.36L1185.88 1601.26C1190.59 1600.54 1194.55 1599.5 1197.54 1598.01L1193.96 1590.85ZM1184.51 1593.38C1180.2 1594.21 1176.08 1594.62 1172.17 1594.62V1602.62C1176.64 1602.62 1181.26 1602.15 1186.02 1601.24L1184.51 1593.38ZM1172.17 1594.62C1165.29 1594.62 1158.97 1593.47 1153.18 1591.22L1150.28 1598.68C1157.07 1601.32 1164.38 1602.62 1172.17 1602.62V1594.62ZM1153.31 1591.28C1148.04 1589.02 1143.67 1585.16 1140.21 1579.5L1133.39 1583.68C1137.61 1590.59 1143.2 1595.65 1150.16 1598.63L1153.31 1591.28ZM1140.21 1579.5C1136.91 1574.1 1135.03 1566.11 1135.03 1555.13H1127.03C1127.03 1566.85 1129 1576.51 1133.39 1583.68L1140.21 1579.5ZM1135.03 1555.13V1473.38H1127.03V1555.13H1135.03ZM1131.03 1469.38H1111.12V1477.38H1131.03V1469.38ZM1115.12 1473.38V1462.38H1107.12V1473.38H1115.12ZM1112.78 1466.02L1132.95 1456.85L1129.64 1449.57L1109.47 1458.74L1112.78 1466.02ZM1135.12 1454.38L1144.29 1424.52L1136.64 1422.17L1127.47 1452.04L1135.12 1454.38ZM1140.47 1427.34H1154.09V1419.34H1140.47V1427.34ZM1150.09 1423.34V1455.57H1158.09V1423.34H1150.09ZM1154.09 1459.57H1194.7V1451.57H1154.09V1459.57ZM1190.7 1455.57V1473.38H1198.7V1455.57H1190.7ZM1194.7 1469.38H1154.09V1477.38H1194.7V1469.38ZM1150.09 1473.38V1554.6H1158.09V1473.38H1150.09ZM1150.09 1554.6C1150.09 1563.71 1152.22 1571.27 1157.23 1576.5L1163 1570.96C1159.98 1567.8 1158.09 1562.61 1158.09 1554.6H1150.09ZM1157.35 1576.62C1162.37 1581.43 1168.73 1583.76 1176.1 1583.76V1575.76C1170.54 1575.76 1166.24 1574.06 1162.88 1570.84L1157.35 1576.62ZM1315.04 1464.48L1317.74 1461.52L1317.74 1461.52L1315.04 1464.48ZM1327.36 1596V1600H1331.36V1596H1327.36ZM1310.59 1596L1306.69 1596.87L1307.39 1600H1310.59V1596ZM1306.14 1576.09L1310.04 1575.21L1309.34 1572.09H1306.14V1576.09ZM1305.09 1576.09V1572.09H1303.16L1301.95 1573.6L1305.09 1576.09ZM1292.51 1588.93L1295 1592.06L1295 1592.06L1295.01 1592.05L1292.51 1588.93ZM1277.84 1596.26L1276.76 1592.41L1276.74 1592.42L1276.73 1592.42L1277.84 1596.26ZM1235.13 1594.17L1233.5 1597.82L1233.52 1597.83L1233.54 1597.83L1235.13 1594.17ZM1219.41 1580.54L1216 1582.63L1216.01 1582.65L1216.03 1582.67L1219.41 1580.54ZM1230.16 1524.74L1232.41 1528.04L1232.43 1528.03L1232.45 1528.02L1230.16 1524.74ZM1280.98 1512.16L1281.11 1516.16L1281.12 1516.16L1280.98 1512.16ZM1304.83 1511.37L1304.96 1515.37L1308.83 1515.24V1511.37H1304.83ZM1297.23 1478.62L1294.56 1481.6L1294.56 1481.6L1297.23 1478.62ZM1254.78 1475.22L1255.99 1479.03L1256.03 1479.02L1256.08 1479L1254.78 1475.22ZM1236.18 1482.55L1232.48 1484.07L1234.09 1488.01L1237.93 1486.15L1236.18 1482.55ZM1229.11 1465.26L1227.2 1461.75L1224.05 1463.46L1225.41 1466.78L1229.11 1465.26ZM1250.85 1456.88L1251.9 1460.74L1251.94 1460.73L1251.97 1460.72L1250.85 1456.88ZM1283.87 1528.14L1283.71 1524.14L1283.71 1524.15L1283.87 1528.14ZM1247.45 1536.53L1245.12 1533.28L1245.1 1533.29L1245.08 1533.31L1247.45 1536.53ZM1244.57 1574.52L1242.11 1577.67L1242.14 1577.69L1242.17 1577.72L1244.57 1574.52ZM1292.77 1570.32L1295.32 1573.41L1295.34 1573.4L1295.36 1573.38L1292.77 1570.32ZM1304.56 1527.36H1308.56V1523.2L1304.41 1523.36L1304.56 1527.36ZM1277.05 1457.21C1293.69 1457.21 1305.18 1460.87 1312.34 1467.43L1317.74 1461.52C1308.49 1453.06 1294.65 1449.21 1277.05 1449.21V1457.21ZM1312.34 1467.43C1319.4 1473.88 1323.36 1484.54 1323.36 1500.37H1331.36C1331.36 1483.37 1327.11 1470.09 1317.74 1461.52L1312.34 1467.43ZM1323.36 1500.37V1596H1331.36V1500.37H1323.36ZM1327.36 1592H1310.59V1600H1327.36V1592ZM1314.49 1595.13L1310.04 1575.21L1302.23 1576.96L1306.69 1596.87L1314.49 1595.13ZM1306.14 1572.09H1305.09V1580.09H1306.14V1572.09ZM1301.95 1573.6C1298.1 1578.47 1294.11 1582.52 1290.01 1585.8L1295.01 1592.05C1299.65 1588.34 1304.05 1583.84 1308.22 1578.57L1301.95 1573.6ZM1290.03 1585.79C1286.29 1588.75 1281.88 1590.97 1276.76 1592.41L1278.92 1600.11C1284.98 1598.41 1290.35 1595.74 1295 1592.06L1290.03 1585.79ZM1276.73 1592.42C1271.78 1593.86 1265.55 1594.62 1257.93 1594.62V1602.62C1266.03 1602.62 1273.07 1601.81 1278.96 1600.1L1276.73 1592.42ZM1257.93 1594.62C1250.02 1594.62 1242.98 1593.22 1236.73 1590.5L1233.54 1597.83C1240.91 1601.05 1249.07 1602.62 1257.93 1602.62V1594.62ZM1236.77 1590.51C1230.85 1587.87 1226.22 1583.85 1222.8 1578.41L1216.03 1582.67C1220.29 1589.46 1226.15 1594.53 1233.5 1597.82L1236.77 1590.51ZM1222.83 1578.46C1219.46 1572.95 1217.65 1565.86 1217.65 1556.96H1209.65C1209.65 1566.93 1211.68 1575.56 1216 1582.63L1222.83 1578.46ZM1217.65 1556.96C1217.65 1544.23 1222.56 1534.76 1232.41 1528.04L1227.9 1521.43C1215.74 1529.73 1209.65 1541.74 1209.65 1556.96H1217.65ZM1232.45 1528.02C1242.51 1520.99 1258.52 1516.85 1281.11 1516.16L1280.86 1508.16C1257.69 1508.87 1239.82 1513.11 1227.87 1521.46L1232.45 1528.02ZM1281.12 1516.16L1304.96 1515.37L1304.69 1507.38L1280.85 1508.16L1281.12 1516.16ZM1308.83 1511.37V1502.99H1300.83V1511.37H1308.83ZM1308.83 1502.99C1308.83 1490.93 1306.25 1481.34 1299.9 1475.65L1294.56 1481.6C1298.33 1484.99 1300.83 1491.65 1300.83 1502.99H1308.83ZM1299.9 1475.65C1293.87 1470.24 1285.63 1467.81 1275.74 1467.81V1475.81C1284.38 1475.81 1290.46 1477.92 1294.56 1481.6L1299.9 1475.65ZM1275.74 1467.81C1267.99 1467.81 1260.56 1469.01 1253.49 1471.43L1256.08 1479C1262.28 1476.88 1268.83 1475.81 1275.74 1475.81V1467.81ZM1253.58 1471.4C1246.77 1473.55 1240.39 1476.07 1234.44 1478.95L1237.93 1486.15C1243.5 1483.45 1249.52 1481.07 1255.99 1479.03L1253.58 1471.4ZM1239.88 1481.04L1232.81 1463.75L1225.41 1466.78L1232.48 1484.07L1239.88 1481.04ZM1231.02 1468.78C1236.8 1465.64 1243.75 1462.95 1251.9 1460.74L1249.81 1453.02C1241.2 1455.35 1233.64 1458.25 1227.2 1461.75L1231.02 1468.78ZM1251.97 1460.72C1259.98 1458.38 1268.34 1457.21 1277.05 1457.21V1449.21C1267.61 1449.21 1258.5 1450.48 1249.73 1453.04L1251.97 1460.72ZM1283.71 1524.15C1266.14 1524.85 1252.95 1527.65 1245.12 1533.28L1249.78 1539.78C1255.57 1535.62 1266.66 1532.83 1284.03 1532.14L1283.71 1524.15ZM1245.08 1533.31C1237.32 1539.02 1233.49 1547.16 1233.49 1557.22H1241.49C1241.49 1549.47 1244.3 1543.82 1249.82 1539.75L1245.08 1533.31ZM1233.49 1557.22C1233.49 1565.9 1236.13 1573.02 1242.11 1577.67L1247.02 1571.36C1243.57 1568.67 1241.49 1564.27 1241.49 1557.22H1233.49ZM1242.17 1577.72C1247.9 1582.01 1254.99 1584.02 1263.17 1584.02V1576.02C1256.32 1576.02 1251.02 1574.36 1246.97 1571.32L1242.17 1577.72ZM1263.17 1584.02C1275.81 1584.02 1286.62 1580.56 1295.32 1573.41L1290.23 1567.23C1283.21 1573.01 1274.28 1576.02 1263.17 1576.02V1584.02ZM1295.36 1573.38C1304.39 1565.75 1308.56 1554.33 1308.56 1539.93H1300.56C1300.56 1552.78 1296.88 1561.62 1290.19 1567.27L1295.36 1573.38ZM1308.56 1539.93V1527.36H1300.56V1539.93H1308.56ZM1304.41 1523.36L1283.71 1524.14L1284.02 1532.14L1304.72 1531.35L1304.41 1523.36ZM1393.79 1596V1600H1397.79V1596H1393.79ZM1370.73 1596H1366.73V1600H1370.73V1596ZM1370.73 1396.88V1392.88H1366.73V1396.88H1370.73ZM1393.79 1396.88H1397.79V1392.88H1393.79V1396.88ZM1393.79 1592H1370.73V1600H1393.79V1592ZM1374.73 1596V1396.88H1366.73V1596H1374.73ZM1370.73 1400.88H1393.79V1392.88H1370.73V1400.88ZM1389.79 1396.88V1596H1397.79V1396.88H1389.79Z" fill="#FE0000"/>
<path d="M199.048 1251.06V1063.99H222.628V1230.1H304.372V1251.06H199.048ZM386.486 1108.27C403.604 1108.27 416.267 1112.02 424.476 1119.53C432.686 1127.04 436.79 1139.01 436.79 1155.43V1251.06H420.022L415.568 1231.15H414.52C410.503 1236.21 406.311 1240.49 401.944 1243.98C397.752 1247.3 392.862 1249.75 387.272 1251.32C381.858 1252.89 375.22 1253.68 367.36 1253.68C358.976 1253.68 351.378 1252.19 344.566 1249.22C337.929 1246.25 332.689 1241.71 328.846 1235.6C325.004 1229.31 323.082 1221.45 323.082 1212.02C323.082 1198.05 328.584 1187.3 339.588 1179.79C350.592 1172.11 367.535 1167.92 390.416 1167.22L414.258 1166.43V1158.05C414.258 1146.34 411.726 1138.22 406.66 1133.68C401.595 1129.14 394.434 1126.87 385.176 1126.87C377.84 1126.87 370.854 1128 364.216 1130.28C357.579 1132.37 351.378 1134.82 345.614 1137.61L338.54 1120.32C344.654 1117 351.902 1114.21 360.286 1111.94C368.67 1109.49 377.404 1108.27 386.486 1108.27ZM393.298 1183.2C375.832 1183.9 363.692 1186.69 356.88 1191.58C350.243 1196.47 346.924 1203.37 346.924 1212.28C346.924 1220.14 349.282 1225.91 353.998 1229.57C358.889 1233.24 365.09 1235.08 372.6 1235.08C384.478 1235.08 394.346 1231.84 402.206 1225.38C410.066 1218.74 413.996 1208.61 413.996 1194.99V1182.41L393.298 1183.2ZM503.22 1251.06H480.164V1051.94H503.22V1251.06ZM570.766 1110.63V1251.06H547.71V1110.63H570.766ZM559.5 1057.96C562.994 1057.96 566.05 1059.19 568.67 1061.63C571.465 1063.9 572.862 1067.57 572.862 1072.64C572.862 1077.53 571.465 1081.19 568.67 1083.64C566.05 1086.08 562.994 1087.31 559.5 1087.31C555.658 1087.31 552.426 1086.08 549.806 1083.64C547.186 1081.19 545.876 1077.53 545.876 1072.64C545.876 1067.57 547.186 1063.9 549.806 1061.63C552.426 1059.19 555.658 1057.96 559.5 1057.96ZM662.155 1234.81C665.649 1234.81 669.229 1234.55 672.897 1234.03C676.565 1233.33 679.535 1232.63 681.805 1231.93V1249.49C679.36 1250.71 675.867 1251.67 671.325 1252.37C666.784 1253.24 662.417 1253.68 658.225 1253.68C650.889 1253.68 644.077 1252.45 637.789 1250.01C631.676 1247.39 626.698 1242.94 622.855 1236.65C619.013 1230.36 617.091 1221.54 617.091 1210.19V1128.44H597.179V1117.44L617.353 1108.27L626.523 1078.4H640.147V1110.63H680.757V1128.44H640.147V1209.66C640.147 1218.22 642.156 1224.6 646.173 1228.79C650.365 1232.8 655.693 1234.81 662.155 1234.81ZM732.981 1110.36C732.981 1113.68 732.807 1117.09 732.457 1120.58C732.283 1124.07 732.021 1127.22 731.671 1130.01H733.243C736.213 1125.12 739.968 1121.11 744.509 1117.96C749.051 1114.82 754.116 1112.46 759.705 1110.89C765.295 1109.14 771.059 1108.27 776.997 1108.27C788.351 1108.27 797.783 1110.1 805.293 1113.77C812.979 1117.26 818.743 1122.76 822.585 1130.28C826.428 1137.79 828.349 1147.57 828.349 1159.62V1251.06H805.555V1161.19C805.555 1149.84 803.023 1141.37 797.957 1135.78C792.892 1130.19 784.945 1127.39 774.115 1127.39C763.635 1127.39 755.426 1129.4 749.487 1133.42C743.549 1137.26 739.269 1143.03 736.649 1150.71C734.204 1158.22 732.981 1167.48 732.981 1178.48V1251.06H709.925V1051.94H732.981V1110.36ZM925.07 1108.27C942.188 1108.27 954.851 1112.02 963.06 1119.53C971.27 1127.04 975.374 1139.01 975.374 1155.43V1251.06H958.606L954.152 1231.15H953.104C949.087 1236.21 944.895 1240.49 940.528 1243.98C936.336 1247.3 931.446 1249.75 925.856 1251.32C920.442 1252.89 913.804 1253.68 905.944 1253.68C897.56 1253.68 889.962 1252.19 883.15 1249.22C876.513 1246.25 871.273 1241.71 867.43 1235.6C863.588 1229.31 861.666 1221.45 861.666 1212.02C861.666 1198.05 867.168 1187.3 878.172 1179.79C889.176 1172.11 906.119 1167.92 929 1167.22L952.842 1166.43V1158.05C952.842 1146.34 950.31 1138.22 945.244 1133.68C940.179 1129.14 933.018 1126.87 923.76 1126.87C916.424 1126.87 909.438 1128 902.8 1130.28C896.163 1132.37 889.962 1134.82 884.198 1137.61L877.124 1120.32C883.238 1117 890.486 1114.21 898.87 1111.94C907.254 1109.49 915.988 1108.27 925.07 1108.27ZM931.882 1183.2C914.416 1183.9 902.276 1186.69 895.464 1191.58C888.827 1196.47 885.508 1203.37 885.508 1212.28C885.508 1220.14 887.866 1225.91 892.582 1229.57C897.473 1233.24 903.674 1235.08 911.184 1235.08C923.062 1235.08 932.93 1231.84 940.79 1225.38C948.65 1218.74 952.58 1208.61 952.58 1194.99V1182.41L931.882 1183.2ZM1139.47 1063.99C1163.92 1063.99 1181.74 1068.79 1192.92 1078.4C1204.09 1088.01 1209.68 1101.54 1209.68 1119.01C1209.68 1126.69 1208.37 1134.12 1205.75 1141.28C1203.31 1148.27 1199.2 1154.55 1193.44 1160.14C1187.68 1165.73 1179.99 1170.19 1170.38 1173.51C1160.78 1176.65 1148.99 1178.22 1135.01 1178.22H1113.53V1251.06H1089.95V1063.99H1139.47ZM1137.37 1084.16H1113.53V1158.05H1132.39C1144.27 1158.05 1154.14 1156.82 1162 1154.38C1169.86 1151.76 1175.71 1147.65 1179.55 1142.07C1183.4 1136.48 1185.32 1129.14 1185.32 1120.06C1185.32 1108.01 1181.48 1099.01 1173.79 1093.07C1166.1 1087.13 1153.97 1084.16 1137.37 1084.16ZM1310.94 1108.01C1313.56 1108.01 1316.35 1108.18 1319.32 1108.53C1322.47 1108.7 1325.17 1109.05 1327.44 1109.58L1324.56 1130.8C1322.29 1130.28 1319.76 1129.84 1316.96 1129.49C1314.34 1129.14 1311.81 1128.97 1309.37 1128.97C1303.95 1128.97 1298.8 1130.1 1293.91 1132.37C1289.02 1134.64 1284.65 1137.87 1280.81 1142.07C1276.97 1146.08 1273.91 1150.97 1271.64 1156.74C1269.54 1162.5 1268.49 1168.96 1268.49 1176.13V1251.06H1245.44V1110.63H1264.3L1266.92 1136.3H1267.97C1270.94 1131.06 1274.52 1126.35 1278.71 1122.15C1282.9 1117.79 1287.71 1114.38 1293.12 1111.94C1298.54 1109.32 1304.48 1108.01 1310.94 1108.01ZM1376.72 1110.63V1251.06H1353.67V1110.63H1376.72ZM1365.46 1057.96C1368.95 1057.96 1372.01 1059.19 1374.63 1061.63C1377.42 1063.9 1378.82 1067.57 1378.82 1072.64C1378.82 1077.53 1377.42 1081.19 1374.63 1083.64C1372.01 1086.08 1368.95 1087.31 1365.46 1087.31C1361.61 1087.31 1358.38 1086.08 1355.76 1083.64C1353.14 1081.19 1351.83 1077.53 1351.83 1072.64C1351.83 1067.57 1353.14 1063.9 1355.76 1061.63C1358.38 1059.19 1361.61 1057.96 1365.46 1057.96ZM1399.21 1110.63H1423.83L1454.23 1190.54C1455.97 1195.25 1457.55 1199.79 1458.94 1204.16C1460.51 1208.53 1461.91 1212.81 1463.13 1217C1464.36 1221.01 1465.32 1224.94 1466.02 1228.79H1467.06C1468.11 1224.42 1469.77 1218.74 1472.04 1211.76C1474.31 1204.6 1476.67 1197.43 1479.12 1190.27L1507.67 1110.63H1532.56L1472.04 1270.45C1468.72 1279.18 1464.79 1286.78 1460.25 1293.24C1455.89 1299.88 1450.47 1304.94 1444.01 1308.44C1437.72 1312.1 1430.04 1313.94 1420.95 1313.94C1416.76 1313.94 1413.09 1313.68 1409.95 1313.15C1406.8 1312.8 1404.1 1312.37 1401.83 1311.84V1293.5C1403.75 1293.85 1406.02 1294.2 1408.64 1294.55C1411.43 1294.9 1414.32 1295.07 1417.28 1295.07C1422.7 1295.07 1427.33 1294.03 1431.17 1291.93C1435.19 1290.01 1438.59 1287.13 1441.39 1283.28C1444.18 1279.62 1446.54 1275.25 1448.46 1270.18L1455.8 1251.58L1399.21 1110.63ZM1607.96 1108.27C1625.08 1108.27 1637.74 1112.02 1645.95 1119.53C1654.16 1127.04 1658.26 1139.01 1658.26 1155.43V1251.06H1641.49L1637.04 1231.15H1635.99C1631.98 1236.21 1627.78 1240.49 1623.42 1243.98C1619.22 1247.3 1614.33 1249.75 1608.74 1251.32C1603.33 1252.89 1596.69 1253.68 1588.83 1253.68C1580.45 1253.68 1572.85 1252.19 1566.04 1249.22C1559.4 1246.25 1554.16 1241.71 1550.32 1235.6C1546.48 1229.31 1544.55 1221.45 1544.55 1212.02C1544.55 1198.05 1550.06 1187.3 1561.06 1179.79C1572.06 1172.11 1589.01 1167.92 1611.89 1167.22L1635.73 1166.43V1158.05C1635.73 1146.34 1633.2 1138.22 1628.13 1133.68C1623.07 1129.14 1615.91 1126.87 1606.65 1126.87C1599.31 1126.87 1592.33 1128 1585.69 1130.28C1579.05 1132.37 1572.85 1134.82 1567.09 1137.61L1560.01 1120.32C1566.13 1117 1573.37 1114.21 1581.76 1111.94C1590.14 1109.49 1598.88 1108.27 1607.96 1108.27ZM1614.77 1183.2C1597.3 1183.9 1585.16 1186.69 1578.35 1191.58C1571.72 1196.47 1568.4 1203.37 1568.4 1212.28C1568.4 1220.14 1570.75 1225.91 1575.47 1229.57C1580.36 1233.24 1586.56 1235.08 1594.07 1235.08C1605.95 1235.08 1615.82 1231.84 1623.68 1225.38C1631.54 1218.74 1635.47 1208.61 1635.47 1194.99V1182.41L1614.77 1183.2Z" fill="#0049FF"/>
<path d="M199.048 1251.06H195.048V1255.06H199.048V1251.06ZM199.048 1063.99V1059.99H195.048V1063.99H199.048ZM222.628 1063.99H226.628V1059.99H222.628V1063.99ZM222.628 1230.1H218.628V1234.1H222.628V1230.1ZM304.372 1230.1H308.372V1226.1H304.372V1230.1ZM304.372 1251.06V1255.06H308.372V1251.06H304.372ZM203.048 1251.06V1063.99H195.048V1251.06H203.048ZM199.048 1067.99H222.628V1059.99H199.048V1067.99ZM218.628 1063.99V1230.1H226.628V1063.99H218.628ZM222.628 1234.1H304.372V1226.1H222.628V1234.1ZM300.372 1230.1V1251.06H308.372V1230.1H300.372ZM304.372 1247.06H199.048V1255.06H304.372V1247.06ZM424.476 1119.53L427.176 1116.58L427.176 1116.58L424.476 1119.53ZM436.79 1251.06V1255.06H440.79V1251.06H436.79ZM420.022 1251.06L416.119 1251.93L416.818 1255.06H420.022V1251.06ZM415.568 1231.15L419.472 1230.27L418.772 1227.15H415.568V1231.15ZM414.52 1231.15V1227.15H412.587L411.386 1228.66L414.52 1231.15ZM401.944 1243.98L404.427 1247.12L404.435 1247.11L404.443 1247.11L401.944 1243.98ZM387.272 1251.32L386.189 1247.47L386.173 1247.47L386.157 1247.48L387.272 1251.32ZM344.566 1249.22L342.933 1252.87L342.95 1252.88L342.968 1252.89L344.566 1249.22ZM328.846 1235.6L325.433 1237.69L325.446 1237.71L325.46 1237.73L328.846 1235.6ZM339.588 1179.79L341.843 1183.1L341.861 1183.09L341.879 1183.07L339.588 1179.79ZM390.416 1167.22L390.538 1171.22L390.548 1171.22L390.416 1167.22ZM414.258 1166.43L414.39 1170.43L418.258 1170.3V1166.43H414.258ZM406.66 1133.68L403.99 1136.66L403.99 1136.66L406.66 1133.68ZM364.216 1130.28L365.421 1134.09L365.466 1134.08L365.511 1134.06L364.216 1130.28ZM345.614 1137.61L341.912 1139.13L343.525 1143.07L347.359 1141.21L345.614 1137.61ZM338.54 1120.32L336.632 1116.8L333.48 1118.52L334.838 1121.83L338.54 1120.32ZM360.286 1111.94L361.332 1115.8L361.369 1115.79L361.406 1115.78L360.286 1111.94ZM393.298 1183.2L393.146 1179.2L393.138 1179.2L393.298 1183.2ZM356.88 1191.58L354.547 1188.33L354.527 1188.35L354.507 1188.36L356.88 1191.58ZM353.998 1229.57L351.543 1232.73L351.57 1232.75L351.598 1232.77L353.998 1229.57ZM402.206 1225.38L404.747 1228.47L404.767 1228.45L404.787 1228.44L402.206 1225.38ZM413.996 1182.41H417.996V1178.26L413.844 1178.42L413.996 1182.41ZM386.486 1112.27C403.124 1112.27 414.614 1115.93 421.776 1122.48L427.176 1116.58C417.92 1108.11 404.084 1104.27 386.486 1104.27V1112.27ZM421.776 1122.48C428.83 1128.94 432.79 1139.59 432.79 1155.43H440.79C440.79 1138.42 436.542 1125.15 427.176 1116.58L421.776 1122.48ZM432.79 1155.43V1251.06H440.79V1155.43H432.79ZM436.79 1247.06H420.022V1255.06H436.79V1247.06ZM423.926 1250.18L419.472 1230.27L411.665 1232.02L416.119 1251.93L423.926 1250.18ZM415.568 1227.15H414.52V1235.15H415.568V1227.15ZM411.386 1228.66C407.528 1233.53 403.544 1237.58 399.445 1240.86L404.443 1247.11C409.078 1243.4 413.478 1238.9 417.654 1233.63L411.386 1228.66ZM399.461 1240.85C395.719 1243.81 391.313 1246.03 386.189 1247.47L388.355 1255.17C394.41 1253.47 399.786 1250.79 404.427 1247.12L399.461 1240.85ZM386.157 1247.48C381.216 1248.91 374.979 1249.68 367.36 1249.68V1257.68C375.461 1257.68 382.499 1256.87 388.388 1255.16L386.157 1247.48ZM367.36 1249.68C359.456 1249.68 352.412 1248.28 346.165 1245.56L342.968 1252.89C350.345 1256.11 358.497 1257.68 367.36 1257.68V1249.68ZM346.2 1245.57C340.279 1242.92 335.651 1238.91 332.233 1233.47L325.46 1237.73C329.726 1244.52 335.579 1249.58 342.933 1252.87L346.2 1245.57ZM332.259 1233.51C328.894 1228.01 327.082 1220.92 327.082 1212.02H319.082C319.082 1221.98 321.113 1230.62 325.433 1237.69L332.259 1233.51ZM327.082 1212.02C327.082 1199.29 331.993 1189.82 341.843 1183.1L337.333 1176.49C325.175 1184.79 319.082 1196.8 319.082 1212.02H327.082ZM341.879 1183.07C351.938 1176.05 367.947 1171.91 390.538 1171.22L390.294 1163.22C367.123 1163.93 349.247 1168.17 337.298 1176.51L341.879 1183.07ZM390.548 1171.22L414.39 1170.43L414.126 1162.43L390.284 1163.22L390.548 1171.22ZM418.258 1166.43V1158.05H410.258V1166.43H418.258ZM418.258 1158.05C418.258 1145.98 415.685 1136.4 409.33 1130.7L403.99 1136.66C407.766 1140.05 410.258 1146.71 410.258 1158.05H418.258ZM409.33 1130.7C403.302 1125.3 395.06 1122.87 385.176 1122.87V1130.87C393.807 1130.87 399.888 1132.98 403.99 1136.66L409.33 1130.7ZM385.176 1122.87C377.42 1122.87 369.994 1124.07 362.922 1126.49L365.511 1134.06C371.713 1131.94 378.26 1130.87 385.176 1130.87V1122.87ZM363.012 1126.46C356.205 1128.61 349.822 1131.13 343.869 1134.01L347.359 1141.21C352.934 1138.51 358.953 1136.13 365.421 1134.09L363.012 1126.46ZM349.316 1136.1L342.242 1118.81L334.838 1121.83L341.912 1139.13L349.316 1136.1ZM340.449 1123.84C346.231 1120.7 353.177 1118.01 361.332 1115.8L359.241 1108.07C350.627 1110.41 343.076 1113.31 336.632 1116.8L340.449 1123.84ZM361.406 1115.78C369.412 1113.44 377.767 1112.27 386.486 1112.27V1104.27C377.04 1104.27 367.928 1105.54 359.166 1108.1L361.406 1115.78ZM393.138 1179.2C375.576 1179.91 362.386 1182.71 354.547 1188.33L359.213 1194.83C364.998 1190.68 376.088 1187.89 393.458 1187.2L393.138 1179.2ZM354.507 1188.36C346.755 1194.08 342.924 1202.22 342.924 1212.28H350.924C350.924 1204.53 353.731 1198.87 359.253 1194.8L354.507 1188.36ZM342.924 1212.28C342.924 1220.95 345.562 1228.08 351.543 1232.73L356.454 1226.42C353.003 1223.73 350.924 1219.33 350.924 1212.28H342.924ZM351.598 1232.77C357.327 1237.07 364.426 1239.08 372.6 1239.08V1231.08C365.753 1231.08 360.451 1229.41 356.398 1226.37L351.598 1232.77ZM372.6 1239.08C385.242 1239.08 396.055 1235.62 404.747 1228.47L399.666 1222.29C392.638 1228.07 383.714 1231.08 372.6 1231.08V1239.08ZM404.787 1228.44C413.817 1220.81 417.996 1209.38 417.996 1194.99H409.996C409.996 1207.84 406.315 1216.68 399.626 1222.33L404.787 1228.44ZM417.996 1194.99V1182.41H409.996V1194.99H417.996ZM413.844 1178.42L393.146 1179.2L393.45 1187.2L414.148 1186.41L413.844 1178.42ZM503.22 1251.06V1255.06H507.22V1251.06H503.22ZM480.164 1251.06H476.164V1255.06H480.164V1251.06ZM480.164 1051.94V1047.94H476.164V1051.94H480.164ZM503.22 1051.94H507.22V1047.94H503.22V1051.94ZM503.22 1247.06H480.164V1255.06H503.22V1247.06ZM484.164 1251.06V1051.94H476.164V1251.06H484.164ZM480.164 1055.94H503.22V1047.94H480.164V1055.94ZM499.22 1051.94V1251.06H507.22V1051.94H499.22ZM570.766 1110.63H574.766V1106.63H570.766V1110.63ZM570.766 1251.06V1255.06H574.766V1251.06H570.766ZM547.71 1251.06H543.71V1255.06H547.71V1251.06ZM547.71 1110.63V1106.63H543.71V1110.63H547.71ZM568.67 1061.63L565.941 1064.56L566.042 1064.65L566.148 1064.74L568.67 1061.63ZM568.67 1083.64L566.036 1080.63L565.988 1080.67L565.941 1080.72L568.67 1083.64ZM549.806 1083.64L552.536 1080.72L552.536 1080.72L549.806 1083.64ZM549.806 1061.63L552.426 1064.65L552.482 1064.61L552.536 1064.56L549.806 1061.63ZM566.766 1110.63V1251.06H574.766V1110.63H566.766ZM570.766 1247.06H547.71V1255.06H570.766V1247.06ZM551.71 1251.06V1110.63H543.71V1251.06H551.71ZM547.71 1114.63H570.766V1106.63H547.71V1114.63ZM559.5 1061.96C561.952 1061.96 564.041 1062.78 565.941 1064.56L571.4 1058.71C568.06 1055.59 564.036 1053.96 559.5 1053.96V1061.96ZM566.148 1064.74C567.671 1065.97 568.862 1068.26 568.862 1072.64H576.862C576.862 1066.88 575.259 1061.83 571.193 1058.53L566.148 1064.74ZM568.862 1072.64C568.862 1076.76 567.709 1079.17 566.036 1080.63L571.304 1086.65C575.222 1083.22 576.862 1078.29 576.862 1072.64H568.862ZM565.941 1080.72C564.041 1082.49 561.952 1083.31 559.5 1083.31V1091.31C564.036 1091.31 568.06 1089.68 571.4 1086.56L565.941 1080.72ZM559.5 1083.31C556.591 1083.31 554.358 1082.42 552.536 1080.72L547.077 1086.56C550.494 1089.75 554.725 1091.31 559.5 1091.31V1083.31ZM552.536 1080.72C550.989 1079.27 549.876 1076.84 549.876 1072.64H541.876C541.876 1078.22 543.384 1083.12 547.077 1086.56L552.536 1080.72ZM549.876 1072.64C549.876 1068.18 551.025 1065.87 552.426 1064.65L547.187 1058.61C543.348 1061.94 541.876 1066.96 541.876 1072.64H549.876ZM552.536 1064.56C554.358 1062.85 556.591 1061.96 559.5 1061.96V1053.96C554.725 1053.96 550.494 1055.52 547.077 1058.71L552.536 1064.56ZM672.897 1234.03L673.463 1237.99L673.555 1237.97L673.646 1237.96L672.897 1234.03ZM681.805 1231.93H685.805V1226.52L680.629 1228.11L681.805 1231.93ZM681.805 1249.49L683.594 1253.06L685.805 1251.96V1249.49H681.805ZM671.325 1252.37L670.717 1248.41L670.643 1248.43L670.57 1248.44L671.325 1252.37ZM637.789 1250.01L636.214 1253.69L636.276 1253.71L636.34 1253.74L637.789 1250.01ZM622.855 1236.65L619.442 1238.73L622.855 1236.65ZM617.091 1128.44H621.091V1124.44H617.091V1128.44ZM597.179 1128.44H593.179V1132.44H597.179V1128.44ZM597.179 1117.44L595.524 1113.8L593.179 1114.86V1117.44H597.179ZM617.353 1108.27L619.009 1111.91L620.648 1111.16L621.177 1109.44L617.353 1108.27ZM626.523 1078.4V1074.4H623.567L622.699 1077.23L626.523 1078.4ZM640.147 1078.4H644.147V1074.4H640.147V1078.4ZM640.147 1110.63H636.147V1114.63H640.147V1110.63ZM680.757 1110.63H684.757V1106.63H680.757V1110.63ZM680.757 1128.44V1132.44H684.757V1128.44H680.757ZM640.147 1128.44V1124.44H636.147V1128.44H640.147ZM646.173 1228.79L643.285 1231.56L643.344 1231.62L643.406 1231.68L646.173 1228.79ZM662.155 1238.81C665.849 1238.81 669.619 1238.54 673.463 1237.99L672.332 1230.07C668.84 1230.57 665.448 1230.81 662.155 1230.81V1238.81ZM673.646 1237.96C677.387 1237.24 680.515 1236.51 682.982 1235.75L680.629 1228.11C678.555 1228.75 675.744 1229.41 672.149 1230.1L673.646 1237.96ZM677.805 1231.93V1249.49H685.805V1231.93H677.805ZM680.016 1245.91C678.11 1246.86 675.087 1247.74 670.717 1248.41L671.934 1256.32C676.646 1255.6 680.61 1254.56 683.594 1253.06L680.016 1245.91ZM670.57 1248.44C666.252 1249.27 662.139 1249.68 658.225 1249.68V1257.68C662.695 1257.68 667.316 1257.21 672.081 1256.3L670.57 1248.44ZM658.225 1249.68C651.342 1249.68 645.026 1248.53 639.239 1246.28L636.34 1253.74C643.129 1256.38 650.437 1257.68 658.225 1257.68V1249.68ZM639.365 1246.33C634.096 1244.07 629.727 1240.22 626.268 1234.56L619.442 1238.73C623.669 1245.65 629.256 1250.7 636.214 1253.69L639.365 1246.33ZM626.268 1234.56C622.964 1229.15 621.091 1221.17 621.091 1210.19H613.091C613.091 1221.91 615.061 1231.56 619.442 1238.73L626.268 1234.56ZM621.091 1210.19V1128.44H613.091V1210.19H621.091ZM617.091 1124.44H597.179V1132.44H617.091V1124.44ZM601.179 1128.44V1117.44H593.179V1128.44H601.179ZM598.835 1121.08L619.009 1111.91L615.698 1104.63L595.524 1113.8L598.835 1121.08ZM621.177 1109.44L630.347 1079.57L622.699 1077.23L613.529 1107.09L621.177 1109.44ZM626.523 1082.4H640.147V1074.4H626.523V1082.4ZM636.147 1078.4V1110.63H644.147V1078.4H636.147ZM640.147 1114.63H680.757V1106.63H640.147V1114.63ZM676.757 1110.63V1128.44H684.757V1110.63H676.757ZM680.757 1124.44H640.147V1132.44H680.757V1124.44ZM636.147 1128.44V1209.66H644.147V1128.44H636.147ZM636.147 1209.66C636.147 1218.77 638.278 1226.33 643.285 1231.56L649.061 1226.02C646.034 1222.86 644.147 1217.67 644.147 1209.66H636.147ZM643.406 1231.68C648.429 1236.49 654.788 1238.81 662.155 1238.81V1230.81C656.597 1230.81 652.301 1229.12 648.941 1225.9L643.406 1231.68ZM732.457 1120.58L728.477 1120.18L728.467 1120.28L728.462 1120.38L732.457 1120.58ZM731.671 1130.01L727.702 1129.52L727.14 1134.01H731.671V1130.01ZM733.243 1130.01V1134.01H735.494L736.662 1132.09L733.243 1130.01ZM744.509 1117.96L742.232 1114.67L742.232 1114.67L744.509 1117.96ZM759.705 1110.89L760.788 1114.74L760.844 1114.72L760.898 1114.71L759.705 1110.89ZM805.293 1113.77L803.538 1117.36L803.588 1117.39L803.638 1117.41L805.293 1113.77ZM822.585 1130.28L826.146 1128.45L826.146 1128.45L822.585 1130.28ZM828.349 1251.06V1255.06H832.349V1251.06H828.349ZM805.555 1251.06H801.555V1255.06H805.555V1251.06ZM797.957 1135.78L800.921 1133.09L800.921 1133.09L797.957 1135.78ZM749.487 1133.42L751.66 1136.78L751.695 1136.76L751.729 1136.73L749.487 1133.42ZM736.649 1150.71L732.863 1149.42L732.854 1149.45L732.846 1149.47L736.649 1150.71ZM732.981 1251.06V1255.06H736.981V1251.06H732.981ZM709.925 1251.06H705.925V1255.06H709.925V1251.06ZM709.925 1051.94V1047.94H705.925V1051.94H709.925ZM732.981 1051.94H736.981V1047.94H732.981V1051.94ZM728.981 1110.36C728.981 1113.54 728.814 1116.81 728.477 1120.18L736.437 1120.98C736.799 1117.36 736.981 1113.82 736.981 1110.36H728.981ZM728.462 1120.38C728.291 1123.8 728.037 1126.84 727.702 1129.52L735.64 1130.51C736.005 1127.6 736.274 1124.35 736.452 1120.78L728.462 1120.38ZM731.671 1134.01H733.243V1126.01H731.671V1134.01ZM736.662 1132.09C739.351 1127.66 742.723 1124.06 746.786 1121.25L742.232 1114.67C737.213 1118.15 733.074 1122.58 729.824 1127.94L736.662 1132.09ZM746.786 1121.25C750.945 1118.37 755.603 1116.2 760.788 1114.74L758.622 1107.04C752.629 1108.72 747.156 1111.26 742.232 1114.67L746.786 1121.25ZM760.898 1114.71C766.096 1113.08 771.457 1112.27 776.997 1112.27V1104.27C770.66 1104.27 764.493 1105.2 758.512 1107.07L760.898 1114.71ZM776.997 1112.27C787.949 1112.27 796.733 1114.04 803.538 1117.36L807.049 1110.18C798.832 1106.16 788.752 1104.27 776.997 1104.27V1112.27ZM803.638 1117.41C810.501 1120.53 815.593 1125.39 819.024 1132.1L826.146 1128.45C821.892 1120.14 815.456 1114 806.948 1110.13L803.638 1117.41ZM819.024 1132.1C822.482 1138.86 824.349 1147.95 824.349 1159.62H832.349C832.349 1147.19 830.374 1136.72 826.146 1128.45L819.024 1132.1ZM824.349 1159.62V1251.06H832.349V1159.62H824.349ZM828.349 1247.06H805.555V1255.06H828.349V1247.06ZM809.555 1251.06V1161.19H801.555V1251.06H809.555ZM809.555 1161.19C809.555 1149.33 806.921 1139.71 800.921 1133.09L794.993 1138.46C799.124 1143.02 801.555 1150.34 801.555 1161.19H809.555ZM800.921 1133.09C794.816 1126.35 785.571 1123.39 774.115 1123.39V1131.39C784.318 1131.39 790.968 1134.02 794.993 1138.46L800.921 1133.09ZM774.115 1123.39C763.186 1123.39 754.087 1125.48 747.246 1130.11L751.729 1136.73C756.765 1133.33 764.084 1131.39 774.115 1131.39V1123.39ZM747.314 1130.06C740.512 1134.46 735.728 1141.02 732.863 1149.42L740.435 1152C742.81 1145.04 746.586 1140.06 751.66 1136.78L747.314 1130.06ZM732.846 1149.47C730.23 1157.51 728.981 1167.21 728.981 1178.48H736.981C736.981 1167.75 738.178 1158.94 740.453 1151.95L732.846 1149.47ZM728.981 1178.48V1251.06H736.981V1178.48H728.981ZM732.981 1247.06H709.925V1255.06H732.981V1247.06ZM713.925 1251.06V1051.94H705.925V1251.06H713.925ZM709.925 1055.94H732.981V1047.94H709.925V1055.94ZM728.981 1051.94V1110.36H736.981V1051.94H728.981ZM963.06 1119.53L965.76 1116.58L965.76 1116.58L963.06 1119.53ZM975.374 1251.06V1255.06H979.374V1251.06H975.374ZM958.606 1251.06L954.703 1251.93L955.402 1255.06H958.606V1251.06ZM954.152 1231.15L958.056 1230.27L957.356 1227.15H954.152V1231.15ZM953.104 1231.15V1227.15H951.171L949.97 1228.66L953.104 1231.15ZM940.528 1243.98L943.011 1247.12L943.019 1247.11L943.027 1247.11L940.528 1243.98ZM925.856 1251.32L924.773 1247.47L924.757 1247.47L924.741 1247.48L925.856 1251.32ZM883.15 1249.22L881.517 1252.87L881.534 1252.88L881.552 1252.89L883.15 1249.22ZM867.43 1235.6L864.017 1237.69L864.03 1237.71L864.044 1237.73L867.43 1235.6ZM878.172 1179.79L880.427 1183.1L880.445 1183.09L880.463 1183.07L878.172 1179.79ZM929 1167.22L929.122 1171.22L929.132 1171.22L929 1167.22ZM952.842 1166.43L952.974 1170.43L956.842 1170.3V1166.43H952.842ZM945.244 1133.68L942.574 1136.66L942.574 1136.66L945.244 1133.68ZM902.8 1130.28L904.005 1134.09L904.05 1134.08L904.095 1134.06L902.8 1130.28ZM884.198 1137.61L880.496 1139.13L882.109 1143.07L885.943 1141.21L884.198 1137.61ZM877.124 1120.32L875.216 1116.8L872.064 1118.52L873.422 1121.83L877.124 1120.32ZM898.87 1111.94L899.916 1115.8L899.953 1115.79L899.99 1115.78L898.87 1111.94ZM931.882 1183.2L931.73 1179.2L931.722 1179.2L931.882 1183.2ZM895.464 1191.58L893.131 1188.33L893.111 1188.35L893.091 1188.36L895.464 1191.58ZM892.582 1229.57L890.126 1232.73L890.154 1232.75L890.182 1232.77L892.582 1229.57ZM940.79 1225.38L943.331 1228.47L943.351 1228.45L943.371 1228.44L940.79 1225.38ZM952.58 1182.41H956.58V1178.26L952.428 1178.42L952.58 1182.41ZM925.07 1112.27C941.708 1112.27 953.198 1115.93 960.36 1122.48L965.76 1116.58C956.504 1108.11 942.668 1104.27 925.07 1104.27V1112.27ZM960.36 1122.48C967.414 1128.94 971.374 1139.59 971.374 1155.43H979.374C979.374 1138.42 975.126 1125.15 965.76 1116.58L960.36 1122.48ZM971.374 1155.43V1251.06H979.374V1155.43H971.374ZM975.374 1247.06H958.606V1255.06H975.374V1247.06ZM962.51 1250.18L958.056 1230.27L950.249 1232.02L954.703 1251.93L962.51 1250.18ZM954.152 1227.15H953.104V1235.15H954.152V1227.15ZM949.97 1228.66C946.112 1233.53 942.128 1237.58 938.029 1240.86L943.027 1247.11C947.662 1243.4 952.062 1238.9 956.238 1233.63L949.97 1228.66ZM938.045 1240.85C934.303 1243.81 929.897 1246.03 924.773 1247.47L926.939 1255.17C932.994 1253.47 938.37 1250.79 943.011 1247.12L938.045 1240.85ZM924.741 1247.48C919.8 1248.91 913.563 1249.68 905.944 1249.68V1257.68C914.045 1257.68 921.083 1256.87 926.972 1255.16L924.741 1247.48ZM905.944 1249.68C898.04 1249.68 890.996 1248.28 884.749 1245.56L881.552 1252.89C888.929 1256.11 897.081 1257.68 905.944 1257.68V1249.68ZM884.784 1245.57C878.863 1242.92 874.235 1238.91 870.817 1233.47L864.044 1237.73C868.31 1244.52 874.163 1249.58 881.517 1252.87L884.784 1245.57ZM870.843 1233.51C867.478 1228.01 865.666 1220.92 865.666 1212.02H857.666C857.666 1221.98 859.697 1230.62 864.017 1237.69L870.843 1233.51ZM865.666 1212.02C865.666 1199.29 870.577 1189.82 880.427 1183.1L875.917 1176.49C863.759 1184.79 857.666 1196.8 857.666 1212.02H865.666ZM880.463 1183.07C890.522 1176.05 906.531 1171.91 929.122 1171.22L928.878 1163.22C905.707 1163.93 887.831 1168.17 875.882 1176.51L880.463 1183.07ZM929.132 1171.22L952.974 1170.43L952.71 1162.43L928.868 1163.22L929.132 1171.22ZM956.842 1166.43V1158.05H948.842V1166.43H956.842ZM956.842 1158.05C956.842 1145.98 954.269 1136.4 947.914 1130.7L942.574 1136.66C946.35 1140.05 948.842 1146.71 948.842 1158.05H956.842ZM947.914 1130.7C941.886 1125.3 933.644 1122.87 923.76 1122.87V1130.87C932.391 1130.87 938.472 1132.98 942.574 1136.66L947.914 1130.7ZM923.76 1122.87C916.004 1122.87 908.578 1124.07 901.506 1126.49L904.095 1134.06C910.297 1131.94 916.844 1130.87 923.76 1130.87V1122.87ZM901.596 1126.46C894.789 1128.61 888.406 1131.13 882.453 1134.01L885.943 1141.21C891.518 1138.51 897.537 1136.13 904.005 1134.09L901.596 1126.46ZM887.9 1136.1L880.826 1118.81L873.422 1121.83L880.496 1139.13L887.9 1136.1ZM879.033 1123.84C884.815 1120.7 891.761 1118.01 899.916 1115.8L897.825 1108.07C889.211 1110.41 881.66 1113.31 875.216 1116.8L879.033 1123.84ZM899.99 1115.78C907.996 1113.44 916.351 1112.27 925.07 1112.27V1104.27C915.624 1104.27 906.512 1105.54 897.75 1108.1L899.99 1115.78ZM931.722 1179.2C914.16 1179.91 900.97 1182.71 893.131 1188.33L897.797 1194.83C903.582 1190.68 914.672 1187.89 932.042 1187.2L931.722 1179.2ZM893.091 1188.36C885.339 1194.08 881.508 1202.22 881.508 1212.28H889.508C889.508 1204.53 892.315 1198.87 897.837 1194.8L893.091 1188.36ZM881.508 1212.28C881.508 1220.95 884.146 1228.08 890.126 1232.73L895.038 1226.42C891.587 1223.73 889.508 1219.33 889.508 1212.28H881.508ZM890.182 1232.77C895.911 1237.07 903.01 1239.08 911.184 1239.08V1231.08C904.337 1231.08 899.035 1229.41 894.982 1226.37L890.182 1232.77ZM911.184 1239.08C923.826 1239.08 934.639 1235.62 943.331 1228.47L938.25 1222.29C931.222 1228.07 922.298 1231.08 911.184 1231.08V1239.08ZM943.371 1228.44C952.401 1220.81 956.58 1209.38 956.58 1194.99H948.58C948.58 1207.84 944.899 1216.68 938.21 1222.33L943.371 1228.44ZM956.58 1194.99V1182.41H948.58V1194.99H956.58ZM952.428 1178.42L931.73 1179.2L932.034 1187.2L952.732 1186.41L952.428 1178.42ZM1192.92 1078.4L1190.31 1081.43L1190.31 1081.43L1192.92 1078.4ZM1205.75 1141.28L1202 1139.91L1201.99 1139.93L1201.98 1139.96L1205.75 1141.28ZM1193.44 1160.14L1196.22 1163.02L1193.44 1160.14ZM1170.38 1173.51L1171.63 1177.31L1171.66 1177.3L1171.69 1177.29L1170.38 1173.51ZM1113.53 1178.22V1174.22H1109.53V1178.22H1113.53ZM1113.53 1251.06V1255.06H1117.53V1251.06H1113.53ZM1089.95 1251.06H1085.95V1255.06H1089.95V1251.06ZM1089.95 1063.99V1059.99H1085.95V1063.99H1089.95ZM1113.53 1084.16V1080.16H1109.53V1084.16H1113.53ZM1113.53 1158.05H1109.53V1162.05H1113.53V1158.05ZM1162 1154.38L1163.19 1158.2L1163.23 1158.19L1163.27 1158.17L1162 1154.38ZM1179.55 1142.07L1176.26 1139.8L1176.26 1139.8L1179.55 1142.07ZM1173.79 1093.07L1176.24 1089.91L1176.24 1089.91L1173.79 1093.07ZM1139.47 1067.99C1163.55 1067.99 1180.2 1072.75 1190.31 1081.43L1195.52 1075.37C1183.27 1064.84 1164.29 1059.99 1139.47 1059.99V1067.99ZM1190.31 1081.43C1200.44 1090.14 1205.68 1102.47 1205.68 1119.01H1213.68C1213.68 1100.61 1207.75 1085.87 1195.52 1075.37L1190.31 1081.43ZM1205.68 1119.01C1205.68 1126.23 1204.46 1133.19 1202 1139.91L1209.51 1142.65C1212.29 1135.05 1213.68 1127.16 1213.68 1119.01H1205.68ZM1201.98 1139.96C1199.76 1146.31 1196.01 1152.08 1190.66 1157.27L1196.22 1163.02C1202.4 1157.03 1206.86 1150.22 1209.53 1142.6L1201.98 1139.96ZM1190.66 1157.27C1185.41 1162.36 1178.27 1166.55 1169.08 1169.72L1171.69 1177.29C1181.71 1173.83 1189.94 1169.11 1196.22 1163.02L1190.66 1157.27ZM1169.14 1169.7C1160.06 1172.68 1148.71 1174.22 1135.01 1174.22V1182.22C1149.26 1182.22 1161.5 1180.62 1171.63 1177.31L1169.14 1169.7ZM1135.01 1174.22H1113.53V1182.22H1135.01V1174.22ZM1109.53 1178.22V1251.06H1117.53V1178.22H1109.53ZM1113.53 1247.06H1089.95V1255.06H1113.53V1247.06ZM1093.95 1251.06V1063.99H1085.95V1251.06H1093.95ZM1089.95 1067.99H1139.47V1059.99H1089.95V1067.99ZM1137.37 1080.16H1113.53V1088.16H1137.37V1080.16ZM1109.53 1084.16V1158.05H1117.53V1084.16H1109.53ZM1113.53 1162.05H1132.39V1154.05H1113.53V1162.05ZM1132.39 1162.05C1144.51 1162.05 1154.81 1160.8 1163.19 1158.2L1160.81 1150.56C1153.47 1152.85 1144.03 1154.05 1132.39 1154.05V1162.05ZM1163.27 1158.17C1171.76 1155.34 1178.41 1150.79 1182.85 1144.33L1176.26 1139.8C1173.01 1144.52 1167.96 1148.18 1160.74 1150.58L1163.27 1158.17ZM1182.85 1144.33C1187.28 1137.88 1189.32 1129.68 1189.32 1120.06H1181.32C1181.32 1128.6 1179.51 1135.07 1176.26 1139.8L1182.85 1144.33ZM1189.32 1120.06C1189.32 1107.1 1185.14 1096.78 1176.24 1089.91L1171.34 1096.24C1177.81 1101.24 1181.32 1108.91 1181.32 1120.06H1189.32ZM1176.24 1089.91C1167.51 1083.16 1154.28 1080.16 1137.37 1080.16V1088.16C1153.65 1088.16 1164.7 1091.11 1171.34 1096.24L1176.24 1089.91ZM1319.32 1108.53L1318.86 1112.5L1318.98 1112.52L1319.1 1112.52L1319.32 1108.53ZM1327.44 1109.58L1331.41 1110.12L1331.9 1106.5L1328.34 1105.68L1327.44 1109.58ZM1324.56 1130.8L1323.66 1134.7L1327.94 1135.68L1328.53 1131.34L1324.56 1130.8ZM1316.96 1129.49L1316.44 1133.45L1316.45 1133.46L1316.47 1133.46L1316.96 1129.49ZM1293.91 1132.37L1295.59 1136L1295.59 1136L1293.91 1132.37ZM1280.81 1142.07L1283.7 1144.83L1283.73 1144.8L1283.76 1144.77L1280.81 1142.07ZM1271.64 1156.74L1267.92 1155.27L1267.9 1155.32L1267.88 1155.37L1271.64 1156.74ZM1268.49 1251.06V1255.06H1272.49V1251.06H1268.49ZM1245.44 1251.06H1241.44V1255.06H1245.44V1251.06ZM1245.44 1110.63V1106.63H1241.44V1110.63H1245.44ZM1264.3 1110.63L1268.28 1110.22L1267.92 1106.63H1264.3V1110.63ZM1266.92 1136.3L1262.94 1136.71L1263.31 1140.3H1266.92V1136.3ZM1267.97 1136.3V1140.3H1270.3L1271.45 1138.27L1267.97 1136.3ZM1278.71 1122.15L1281.54 1124.98L1281.57 1124.95L1281.6 1124.92L1278.71 1122.15ZM1293.12 1111.94L1294.77 1115.58L1294.82 1115.56L1294.87 1115.54L1293.12 1111.94ZM1310.94 1112.01C1313.38 1112.01 1316.02 1112.17 1318.86 1112.5L1319.79 1104.56C1316.69 1104.19 1313.74 1104.01 1310.94 1104.01V1112.01ZM1319.1 1112.52C1322.09 1112.69 1324.56 1113.02 1326.55 1113.48L1328.34 1105.68C1325.79 1105.09 1322.84 1104.72 1319.54 1104.54L1319.1 1112.52ZM1323.48 1109.04L1320.6 1130.26L1328.53 1131.34L1331.41 1110.12L1323.48 1109.04ZM1325.46 1126.9C1323.03 1126.34 1320.36 1125.88 1317.46 1125.52L1316.47 1133.46C1319.15 1133.79 1321.55 1134.21 1323.66 1134.7L1325.46 1126.9ZM1317.49 1125.52C1314.71 1125.15 1312 1124.97 1309.37 1124.97V1132.97C1311.62 1132.97 1313.98 1133.13 1316.44 1133.45L1317.49 1125.52ZM1309.37 1124.97C1303.37 1124.97 1297.65 1126.23 1292.22 1128.74L1295.59 1136C1299.95 1133.98 1304.53 1132.97 1309.37 1132.97V1124.97ZM1292.22 1128.74C1286.83 1131.25 1282.04 1134.8 1277.86 1139.36L1283.76 1144.77C1287.26 1140.94 1291.21 1138.04 1295.59 1136L1292.22 1128.74ZM1277.92 1139.3C1273.68 1143.73 1270.36 1149.08 1267.92 1155.27L1275.36 1158.2C1277.46 1152.87 1280.25 1148.43 1283.7 1144.83L1277.92 1139.3ZM1267.88 1155.37C1265.6 1161.64 1264.49 1168.57 1264.49 1176.13H1272.49C1272.49 1169.35 1273.49 1163.36 1275.4 1158.1L1267.88 1155.37ZM1264.49 1176.13V1251.06H1272.49V1176.13H1264.49ZM1268.49 1247.06H1245.44V1255.06H1268.49V1247.06ZM1249.44 1251.06V1110.63H1241.44V1251.06H1249.44ZM1245.44 1114.63H1264.3V1106.63H1245.44V1114.63ZM1260.32 1111.03L1262.94 1136.71L1270.9 1135.9L1268.28 1110.22L1260.32 1111.03ZM1266.92 1140.3H1267.97V1132.3H1266.92V1140.3ZM1271.45 1138.27C1274.25 1133.34 1277.61 1128.92 1281.54 1124.98L1275.88 1119.33C1271.43 1123.78 1267.63 1128.78 1264.49 1134.33L1271.45 1138.27ZM1281.6 1124.92C1285.44 1120.92 1289.83 1117.81 1294.77 1115.58L1291.48 1108.29C1285.59 1110.95 1280.37 1114.66 1275.83 1119.38L1281.6 1124.92ZM1294.87 1115.54C1299.7 1113.2 1305.03 1112.01 1310.94 1112.01V1104.01C1303.92 1104.01 1297.38 1105.43 1291.38 1108.33L1294.87 1115.54ZM1376.72 1110.63H1380.72V1106.63H1376.72V1110.63ZM1376.72 1251.06V1255.06H1380.72V1251.06H1376.72ZM1353.67 1251.06H1349.67V1255.06H1353.67V1251.06ZM1353.67 1110.63V1106.63H1349.67V1110.63H1353.67ZM1374.63 1061.63L1371.9 1064.56L1372 1064.65L1372.11 1064.74L1374.63 1061.63ZM1374.63 1083.64L1371.99 1080.63L1371.95 1080.67L1371.9 1080.72L1374.63 1083.64ZM1355.76 1083.64L1358.49 1080.72L1358.49 1080.72L1355.76 1083.64ZM1355.76 1061.63L1358.38 1064.65L1358.44 1064.61L1358.49 1064.56L1355.76 1061.63ZM1372.72 1110.63V1251.06H1380.72V1110.63H1372.72ZM1376.72 1247.06H1353.67V1255.06H1376.72V1247.06ZM1357.67 1251.06V1110.63H1349.67V1251.06H1357.67ZM1353.67 1114.63H1376.72V1106.63H1353.67V1114.63ZM1365.46 1061.96C1367.91 1061.96 1370 1062.78 1371.9 1064.56L1377.36 1058.71C1374.02 1055.59 1369.99 1053.96 1365.46 1053.96V1061.96ZM1372.11 1064.74C1373.63 1065.97 1374.82 1068.26 1374.82 1072.64H1382.82C1382.82 1066.88 1381.22 1061.83 1377.15 1058.53L1372.11 1064.74ZM1374.82 1072.64C1374.82 1076.76 1373.67 1079.17 1371.99 1080.63L1377.26 1086.65C1381.18 1083.22 1382.82 1078.29 1382.82 1072.64H1374.82ZM1371.9 1080.72C1370 1082.49 1367.91 1083.31 1365.46 1083.31V1091.31C1369.99 1091.31 1374.02 1089.68 1377.36 1086.56L1371.9 1080.72ZM1365.46 1083.31C1362.55 1083.31 1360.32 1082.42 1358.49 1080.72L1353.03 1086.56C1356.45 1089.75 1360.68 1091.31 1365.46 1091.31V1083.31ZM1358.49 1080.72C1356.95 1079.27 1355.83 1076.84 1355.83 1072.64H1347.83C1347.83 1078.22 1349.34 1083.12 1353.03 1086.56L1358.49 1080.72ZM1355.83 1072.64C1355.83 1068.18 1356.98 1065.87 1358.38 1064.65L1353.14 1058.61C1349.3 1061.94 1347.83 1066.96 1347.83 1072.64H1355.83ZM1358.49 1064.56C1360.32 1062.85 1362.55 1061.96 1365.46 1061.96V1053.96C1360.68 1053.96 1356.45 1055.52 1353.03 1058.71L1358.49 1064.56ZM1399.21 1110.63V1106.63H1393.29L1395.49 1112.12L1399.21 1110.63ZM1423.83 1110.63L1427.57 1109.2L1426.59 1106.63H1423.83V1110.63ZM1454.23 1190.54L1457.98 1189.15L1457.97 1189.13L1457.97 1189.11L1454.23 1190.54ZM1458.94 1204.16L1455.13 1205.38L1455.15 1205.45L1455.18 1205.51L1458.94 1204.16ZM1463.13 1217L1459.29 1218.12L1459.3 1218.14L1459.31 1218.16L1463.13 1217ZM1466.02 1228.79L1462.08 1229.5L1462.68 1232.79H1466.02V1228.79ZM1467.06 1228.79V1232.79H1470.22L1470.95 1229.72L1467.06 1228.79ZM1472.04 1211.76L1475.85 1212.99L1475.85 1212.98L1475.86 1212.97L1472.04 1211.76ZM1479.12 1190.27L1475.35 1188.92L1475.34 1188.95L1475.33 1188.98L1479.12 1190.27ZM1507.67 1110.63V1106.63H1504.86L1503.91 1109.28L1507.67 1110.63ZM1532.56 1110.63L1536.31 1112.04L1538.36 1106.63H1532.56V1110.63ZM1472.04 1270.45L1475.78 1271.87L1475.78 1271.86L1472.04 1270.45ZM1460.25 1293.24L1456.98 1290.94L1456.94 1290.99L1456.91 1291.04L1460.25 1293.24ZM1444.01 1308.44L1442.11 1304.92L1442.05 1304.95L1441.99 1304.98L1444.01 1308.44ZM1409.95 1313.15L1410.61 1309.21L1410.5 1309.19L1410.39 1309.18L1409.95 1313.15ZM1401.83 1311.84H1397.83V1315.02L1400.93 1315.74L1401.83 1311.84ZM1401.83 1293.5L1402.54 1289.57L1397.83 1288.71V1293.5H1401.83ZM1408.64 1294.55L1408.11 1298.51L1408.13 1298.52L1408.14 1298.52L1408.64 1294.55ZM1431.17 1291.93L1429.44 1288.32L1429.35 1288.37L1429.25 1288.42L1431.17 1291.93ZM1441.39 1283.28L1438.21 1280.86L1438.18 1280.89L1438.15 1280.93L1441.39 1283.28ZM1448.46 1270.18L1444.74 1268.72L1444.73 1268.74L1444.72 1268.77L1448.46 1270.18ZM1455.8 1251.58L1459.52 1253.05L1460.1 1251.57L1459.51 1250.09L1455.8 1251.58ZM1399.21 1114.63H1423.83V1106.63H1399.21V1114.63ZM1420.1 1112.05L1450.49 1191.96L1457.97 1189.11L1427.57 1109.2L1420.1 1112.05ZM1450.48 1191.92C1452.2 1196.59 1453.76 1201.07 1455.13 1205.38L1462.75 1202.94C1461.33 1198.51 1459.74 1193.91 1457.98 1189.15L1450.48 1191.92ZM1455.18 1205.51C1456.72 1209.81 1458.1 1214.01 1459.29 1218.12L1466.97 1215.88C1465.73 1211.6 1464.3 1207.24 1462.71 1202.8L1455.18 1205.51ZM1459.31 1218.16C1460.49 1222.04 1461.41 1225.82 1462.08 1229.5L1469.95 1228.07C1469.22 1224.07 1468.23 1219.99 1466.96 1215.83L1459.31 1218.16ZM1466.02 1232.79H1467.06V1224.79H1466.02V1232.79ZM1470.95 1229.72C1471.97 1225.5 1473.59 1219.93 1475.85 1212.99L1468.24 1210.52C1465.95 1217.55 1464.26 1223.34 1463.17 1227.85L1470.95 1229.72ZM1475.86 1212.97C1478.12 1205.83 1480.47 1198.7 1482.9 1191.57L1475.33 1188.98C1472.88 1196.17 1470.51 1203.36 1468.23 1210.55L1475.86 1212.97ZM1482.88 1191.62L1511.44 1111.98L1503.91 1109.28L1475.35 1188.92L1482.88 1191.62ZM1507.67 1114.63H1532.56V1106.63H1507.67V1114.63ZM1528.82 1109.21L1468.3 1269.03L1475.78 1271.86L1536.31 1112.04L1528.82 1109.21ZM1468.3 1269.02C1465.08 1277.5 1461.3 1284.79 1456.98 1290.94L1463.53 1295.54C1468.29 1288.76 1472.37 1280.86 1475.78 1271.87L1468.3 1269.02ZM1456.91 1291.04C1452.88 1297.17 1447.94 1301.76 1442.11 1304.92L1445.91 1311.95C1453 1308.12 1458.89 1302.58 1463.59 1295.44L1456.91 1291.04ZM1441.99 1304.98C1436.45 1308.21 1429.5 1309.94 1420.95 1309.94V1317.94C1430.57 1317.94 1438.99 1315.99 1446.02 1311.89L1441.99 1304.98ZM1420.95 1309.94C1416.92 1309.94 1413.48 1309.68 1410.61 1309.21L1409.29 1317.1C1412.71 1317.67 1416.6 1317.94 1420.95 1317.94V1309.94ZM1410.39 1309.18C1407.35 1308.84 1404.8 1308.42 1402.73 1307.94L1400.93 1315.74C1403.39 1316.31 1406.26 1316.77 1409.51 1317.13L1410.39 1309.18ZM1405.83 1311.84V1293.5H1397.83V1311.84H1405.83ZM1401.11 1297.44C1403.11 1297.8 1405.45 1298.16 1408.11 1298.51L1409.17 1290.58C1406.59 1290.24 1404.38 1289.9 1402.54 1289.57L1401.11 1297.44ZM1408.14 1298.52C1411.11 1298.89 1414.16 1299.07 1417.28 1299.07V1291.07C1414.47 1291.07 1411.76 1290.91 1409.13 1290.58L1408.14 1298.52ZM1417.28 1299.07C1423.21 1299.07 1428.53 1297.93 1433.09 1295.44L1429.25 1288.42C1426.12 1290.13 1422.19 1291.07 1417.28 1291.07V1299.07ZM1432.9 1295.54C1437.55 1293.31 1441.46 1289.98 1444.62 1285.64L1438.15 1280.93C1435.72 1284.27 1432.82 1286.71 1429.44 1288.32L1432.9 1295.54ZM1444.57 1285.71C1447.63 1281.69 1450.17 1276.97 1452.2 1271.6L1444.72 1268.77C1442.91 1273.53 1440.73 1277.55 1438.21 1280.86L1444.57 1285.71ZM1452.18 1271.65L1459.52 1253.05L1452.08 1250.11L1444.74 1268.72L1452.18 1271.65ZM1459.51 1250.09L1402.92 1109.14L1395.49 1112.12L1452.09 1253.07L1459.51 1250.09ZM1645.95 1119.53L1648.65 1116.58L1648.65 1116.58L1645.95 1119.53ZM1658.26 1251.06V1255.06H1662.26V1251.06H1658.26ZM1641.49 1251.06L1637.59 1251.93L1638.29 1255.06H1641.49V1251.06ZM1637.04 1231.15L1640.94 1230.27L1640.25 1227.15H1637.04V1231.15ZM1635.99 1231.15V1227.15H1634.06L1632.86 1228.66L1635.99 1231.15ZM1623.42 1243.98L1625.9 1247.12L1625.91 1247.11L1625.92 1247.11L1623.42 1243.98ZM1608.74 1251.32L1607.66 1247.47L1607.65 1247.47L1607.63 1247.48L1608.74 1251.32ZM1566.04 1249.22L1564.41 1252.87L1564.42 1252.88L1564.44 1252.89L1566.04 1249.22ZM1550.32 1235.6L1546.91 1237.69L1546.92 1237.71L1546.93 1237.73L1550.32 1235.6ZM1561.06 1179.79L1563.32 1183.1L1563.33 1183.09L1563.35 1183.07L1561.06 1179.79ZM1611.89 1167.22L1612.01 1171.22L1612.02 1171.22L1611.89 1167.22ZM1635.73 1166.43L1635.86 1170.43L1639.73 1170.3V1166.43H1635.73ZM1628.13 1133.68L1625.46 1136.66L1625.46 1136.66L1628.13 1133.68ZM1585.69 1130.28L1586.89 1134.09L1586.94 1134.08L1586.98 1134.06L1585.69 1130.28ZM1567.09 1137.61L1563.38 1139.13L1565 1143.07L1568.83 1141.21L1567.09 1137.61ZM1560.01 1120.32L1558.1 1116.8L1554.95 1118.52L1556.31 1121.83L1560.01 1120.32ZM1581.76 1111.94L1582.8 1115.8L1582.84 1115.79L1582.88 1115.78L1581.76 1111.94ZM1614.77 1183.2L1614.62 1179.2L1614.61 1179.2L1614.77 1183.2ZM1578.35 1191.58L1576.02 1188.33L1576 1188.35L1575.98 1188.36L1578.35 1191.58ZM1575.47 1229.57L1573.02 1232.73L1573.04 1232.75L1573.07 1232.77L1575.47 1229.57ZM1623.68 1225.38L1626.22 1228.47L1626.24 1228.45L1626.26 1228.44L1623.68 1225.38ZM1635.47 1182.41H1639.47V1178.26L1635.32 1178.42L1635.47 1182.41ZM1607.96 1112.27C1624.6 1112.27 1636.09 1115.93 1643.25 1122.48L1648.65 1116.58C1639.39 1108.11 1625.56 1104.27 1607.96 1104.27V1112.27ZM1643.25 1122.48C1650.3 1128.94 1654.26 1139.59 1654.26 1155.43H1662.26C1662.26 1138.42 1658.01 1125.15 1648.65 1116.58L1643.25 1122.48ZM1654.26 1155.43V1251.06H1662.26V1155.43H1654.26ZM1658.26 1247.06H1641.49V1255.06H1658.26V1247.06ZM1645.4 1250.18L1640.94 1230.27L1633.14 1232.02L1637.59 1251.93L1645.4 1250.18ZM1637.04 1227.15H1635.99V1235.15H1637.04V1227.15ZM1632.86 1228.66C1629 1233.53 1625.02 1237.58 1620.92 1240.86L1625.92 1247.11C1630.55 1243.4 1634.95 1238.9 1639.13 1233.63L1632.86 1228.66ZM1620.93 1240.85C1617.19 1243.81 1612.79 1246.03 1607.66 1247.47L1609.83 1255.17C1615.88 1253.47 1621.26 1250.79 1625.9 1247.12L1620.93 1240.85ZM1607.63 1247.48C1602.69 1248.91 1596.45 1249.68 1588.83 1249.68V1257.68C1596.93 1257.68 1603.97 1256.87 1609.86 1255.16L1607.63 1247.48ZM1588.83 1249.68C1580.93 1249.68 1573.88 1248.28 1567.64 1245.56L1564.44 1252.89C1571.82 1256.11 1579.97 1257.68 1588.83 1257.68V1249.68ZM1567.67 1245.57C1561.75 1242.92 1557.12 1238.91 1553.71 1233.47L1546.93 1237.73C1551.2 1244.52 1557.05 1249.58 1564.41 1252.87L1567.67 1245.57ZM1553.73 1233.51C1550.37 1228.01 1548.55 1220.92 1548.55 1212.02H1540.55C1540.55 1221.98 1542.59 1230.62 1546.91 1237.69L1553.73 1233.51ZM1548.55 1212.02C1548.55 1199.29 1553.47 1189.82 1563.32 1183.1L1558.81 1176.49C1546.65 1184.79 1540.55 1196.8 1540.55 1212.02H1548.55ZM1563.35 1183.07C1573.41 1176.05 1589.42 1171.91 1612.01 1171.22L1611.77 1163.22C1588.6 1163.93 1570.72 1168.17 1558.77 1176.51L1563.35 1183.07ZM1612.02 1171.22L1635.86 1170.43L1635.6 1162.43L1611.76 1163.22L1612.02 1171.22ZM1639.73 1166.43V1158.05H1631.73V1166.43H1639.73ZM1639.73 1158.05C1639.73 1145.98 1637.16 1136.4 1630.8 1130.7L1625.46 1136.66C1629.24 1140.05 1631.73 1146.71 1631.73 1158.05H1639.73ZM1630.8 1130.7C1624.77 1125.3 1616.53 1122.87 1606.65 1122.87V1130.87C1615.28 1130.87 1621.36 1132.98 1625.46 1136.66L1630.8 1130.7ZM1606.65 1122.87C1598.89 1122.87 1591.47 1124.07 1584.39 1126.49L1586.98 1134.06C1593.19 1131.94 1599.73 1130.87 1606.65 1130.87V1122.87ZM1584.48 1126.46C1577.68 1128.61 1571.29 1131.13 1565.34 1134.01L1568.83 1141.21C1574.41 1138.51 1580.43 1136.13 1586.89 1134.09L1584.48 1126.46ZM1570.79 1136.1L1563.72 1118.81L1556.31 1121.83L1563.38 1139.13L1570.79 1136.1ZM1561.92 1123.84C1567.7 1120.7 1574.65 1118.01 1582.8 1115.8L1580.71 1108.07C1572.1 1110.41 1564.55 1113.31 1558.1 1116.8L1561.92 1123.84ZM1582.88 1115.78C1590.88 1113.44 1599.24 1112.27 1607.96 1112.27V1104.27C1598.51 1104.27 1589.4 1105.54 1580.64 1108.1L1582.88 1115.78ZM1614.61 1179.2C1597.05 1179.91 1583.86 1182.71 1576.02 1188.33L1580.69 1194.83C1586.47 1190.68 1597.56 1187.89 1614.93 1187.2L1614.61 1179.2ZM1575.98 1188.36C1568.23 1194.08 1564.4 1202.22 1564.4 1212.28H1572.4C1572.4 1204.53 1575.2 1198.87 1580.73 1194.8L1575.98 1188.36ZM1564.4 1212.28C1564.4 1220.95 1567.03 1228.08 1573.02 1232.73L1577.93 1226.42C1574.48 1223.73 1572.4 1219.33 1572.4 1212.28H1564.4ZM1573.07 1232.77C1578.8 1237.07 1585.9 1239.08 1594.07 1239.08V1231.08C1587.23 1231.08 1581.92 1229.41 1577.87 1226.37L1573.07 1232.77ZM1594.07 1239.08C1606.71 1239.08 1617.53 1235.62 1626.22 1228.47L1621.14 1222.29C1614.11 1228.07 1605.19 1231.08 1594.07 1231.08V1239.08ZM1626.26 1228.44C1635.29 1220.81 1639.47 1209.38 1639.47 1194.99H1631.47C1631.47 1207.84 1627.79 1216.68 1621.1 1222.33L1626.26 1228.44ZM1639.47 1194.99V1182.41H1631.47V1194.99H1639.47ZM1635.32 1178.42L1614.62 1179.2L1614.92 1187.2L1635.62 1186.41L1635.32 1178.42Z" fill="#0049FF"/>
</svg>
