<svg width="2556" height="820" viewBox="0 0 2556 820" fill="none" xmlns="http://www.w3.org/2000/svg">
<path d="M365.957 663.048C370.74 683.917 375.523 704.786 380.306 725.655C381.345 730.179 384.019 735.952 378.261 737.611C374.17 738.786 368.453 736.476 365.506 733.674C361.383 729.753 359.193 724.278 357.067 719.004C341.324 679.867 323.012 641.704 309.702 601.673C304.999 587.535 300.916 573.155 294.796 559.573C285.431 538.8 271.089 519.018 270.735 496.233C270.445 477.707 279.657 460.316 290.697 445.438C326.459 397.259 365.699 352.719 413.628 315.981C426.423 306.166 439.662 296.923 453.271 288.276C457.055 285.877 461.066 283.454 465.543 283.132C469.625 282.842 473.595 284.339 477.396 285.861C490.546 291.118 503.486 296.899 516.177 303.187C518.174 304.178 520.477 305.683 520.316 307.913C520.212 309.443 518.939 310.595 517.764 311.569C466.646 354.055 415.52 396.55 364.403 439.037C362.317 440.768 360.175 442.539 357.646 443.505C354.393 444.745 350.786 444.568 347.331 445.019C338.731 446.154 330.807 451.565 326.628 459.165C322.449 466.765 322.119 476.354 325.758 484.221C331.878 497.425 347.001 503.664 361.109 507.271C368.413 509.139 376.063 510.637 383.463 509.188C390.863 507.738 398.006 502.698 399.882 495.396C402.048 486.942 396.967 477.385 400.808 469.543C402.378 466.331 405.229 463.972 407.999 461.709C457.208 421.557 506.426 381.398 555.635 341.246C565 333.605 576.733 353.13 581.886 359.49C591.026 370.762 599.127 382.871 606.052 395.624C607.01 397.387 607.977 399.384 607.453 401.333C607.042 402.854 605.802 403.998 604.611 405.036C555.482 447.942 497.648 480.855 435.66 501.185C432.503 502.223 428.767 503.874 428.42 507.183C428.267 508.616 428.839 510.017 429.387 511.353C453.601 570.289 458.73 634.675 461.903 697.66C462.282 705.204 462.539 712.756 462.628 720.309C462.708 727.192 462.354 730.968 454.913 732.909C448.053 734.696 441.063 735.984 434.017 736.749C432.487 736.918 430.764 736.999 429.62 735.968C428.799 735.228 428.501 734.092 428.235 733.03C417.284 688.2 414.61 641.647 403.152 596.947C400.188 585.369 396.605 573.429 398.803 561.682C399.367 558.679 400.301 555.644 399.826 552.624C399.351 549.605 396.798 546.61 393.762 546.964C392.224 547.141 390.912 548.116 389.688 549.058C387.481 550.74 385.275 552.431 383.068 554.114C381.104 555.611 378.946 557.495 378.986 559.967C379.018 561.803 380.29 563.349 381.394 564.822C388.963 574.862 391.322 587.776 393.464 600.167C401.042 644.006 408.619 687.838 416.197 731.685C417.123 737.047 411.583 741.781 406.679 737.828C403.602 735.348 402.765 731.081 402.129 727.176C397.877 700.993 393.625 674.803 389.382 648.62C385.565 625.118 381.74 601.56 375.394 578.614C373.381 571.319 371.175 563.196 374.702 556.497C377.673 550.853 383.994 547.753 387.666 542.536C390.839 538.011 391.741 531.973 390.018 526.715C388.295 521.458 383.994 517.126 378.752 515.363C370.643 512.634 361.552 515.951 353.274 513.785C347.267 512.215 342.395 507.964 337.08 504.743C331.766 501.523 324.977 499.309 319.453 502.143C313.72 505.081 311.61 512.658 313.18 518.914C314.75 525.169 319.171 530.282 323.818 534.742C328.464 539.203 333.545 543.349 337.088 548.736C341.171 554.951 342.902 562.366 344.561 569.621C351.704 600.771 358.838 631.921 365.981 663.072L365.957 663.048Z" fill="#0144DB"/>
<path d="M288.338 156.163V113.064C288.338 111.011 290.214 109.473 292.227 109.86L312.826 113.885C314.356 114.183 315.459 115.528 315.459 117.09V216.757C315.459 216.861 315.459 216.966 315.443 217.079C315.258 218.866 313.905 237.618 340.237 237.344C342.153 237.328 343.683 238.946 343.53 240.862L341.895 261.208C341.751 262.979 340.221 264.316 338.449 264.203C327.224 263.478 290.198 258.036 288.346 217.876V156.163H288.338Z" fill="#FE0000"/>
<path d="M458.062 117.195V260.443C458.062 262.52 459.745 264.211 461.831 264.211H478.379C480.674 264.211 482.534 262.351 482.534 260.057V197.305C482.534 197.305 484.563 183.094 499.992 187.007C515.42 190.92 514.953 206.966 515.267 211.797V260.29C515.267 262.456 517.023 264.211 519.189 264.211H535.89C538.443 264.211 540.512 262.142 540.512 259.59V198.247C540.512 198.247 537.243 154.15 482.534 158.514V116.969C482.534 114.94 480.891 113.298 478.862 113.298H461.976C459.817 113.298 458.07 115.045 458.07 117.203L458.062 117.195Z" fill="#FE0000"/>
<path d="M837.749 417.178C837.596 446.75 834.31 476.322 828.061 505.226C826.555 512.191 824.88 519.123 823.036 526.007C811.272 568.832 792.759 609.821 768.577 647.042C754.461 668.756 738.356 689.174 720.608 708.055C720.608 708.055 720.605 708.057 720.6 708.063C718.756 709.6 716.888 711.082 714.987 712.507C719.923 704.327 726.591 697.837 732.228 690.181C737.752 682.677 742.978 674.964 747.914 667.065C757.77 651.261 766.419 634.715 773.835 617.639C788.708 583.404 798.613 547.045 803.437 510.049C813.422 433.449 801.528 353.605 766.032 284.702C700.968 158.401 560.523 75.6338 418.878 76.7449C277.234 75.6338 136.781 158.401 71.7161 284.702C36.2285 353.605 24.3268 433.449 34.312 510.049C39.1355 547.045 49.0401 583.404 63.9132 617.639C71.3296 634.715 79.9781 651.261 89.8344 667.065C94.7706 674.964 99.9967 682.677 105.521 690.181C111.158 697.837 117.825 704.327 122.761 712.507C120.877 711.09 119.017 709.625 117.181 708.095C99.417 689.198 83.2957 668.772 69.1715 647.042C45.0299 609.893 26.5413 568.977 14.7765 526.24C12.9083 519.276 11.2092 512.271 9.68724 505.226C3.43845 476.322 0.152999 446.75 0 417.178C0.289892 321.569 35.5521 226.942 95.6403 152.709C126.216 115.544 162.944 83.4355 204.044 58.5329C268.625 20.2409 343.756 0.354257 418.878 0C493.88 0.354257 568.898 20.1765 633.407 58.3557C674.62 83.2825 711.46 115.455 742.108 152.709C802.196 226.942 837.459 321.569 837.749 417.178Z" fill="#0049FF"/>
<path d="M751.867 487.409C751.747 463.899 749.138 440.389 744.169 417.411C742.969 411.872 741.641 406.365 740.175 400.89C730.826 366.849 716.106 334.257 696.885 304.669C685.659 287.407 672.864 271.175 658.748 256.168C657.282 254.944 655.8 253.769 654.286 252.633C658.208 259.139 663.515 264.292 667.992 270.378C672.381 276.344 676.536 282.471 680.465 288.751C688.3 301.32 695.177 314.467 701.072 328.042C712.893 355.255 720.768 384.159 724.601 413.571C732.541 474.462 723.088 537.939 694.863 592.712C643.142 693.119 531.493 758.915 418.894 758.029C306.295 758.915 194.638 693.119 142.916 592.712C114.708 537.939 105.247 474.462 113.178 413.571C117.011 384.159 124.887 355.255 136.708 328.042C142.602 314.467 149.479 301.311 157.314 288.751C161.236 282.471 165.391 276.344 169.788 270.378C174.265 264.292 179.572 259.131 183.493 252.633C181.996 253.761 180.514 254.928 179.056 256.144C164.932 271.167 152.121 287.407 140.887 304.677C121.698 334.209 106.994 366.736 97.6449 400.713C96.1633 406.252 94.8104 411.815 93.6025 417.419C88.6341 440.397 86.0251 463.907 85.9043 487.417C86.1378 563.421 114.169 638.644 161.937 697.66C186.239 727.209 215.438 752.731 248.115 772.529C299.458 802.971 359.184 818.776 418.902 819.058C478.523 818.776 538.16 803.02 589.447 772.666C622.213 752.852 651.5 727.273 675.859 697.66C723.627 638.644 751.658 563.421 751.892 487.417L751.867 487.409Z" fill="#FE0000"/>
<path d="M400.792 113.282C375.33 113.282 354.337 132.814 352.018 157.684C351.873 159.198 351.8 160.728 351.8 162.274V261.055C351.8 263.97 355.432 265.314 357.324 263.108L372.664 245.283C374.428 243.229 375.394 240.621 375.394 237.916V162.274C375.394 161.493 375.426 160.712 375.515 159.947C376.691 147.033 387.57 136.88 400.784 136.88C414.787 136.88 426.182 148.273 426.182 162.274C426.182 176.275 414.787 187.667 400.784 187.667C397.233 187.667 393.843 186.935 390.767 185.598V210.227C393.996 210.912 397.346 211.266 400.784 211.266C427.8 211.266 449.784 189.286 449.784 162.274C449.784 135.262 427.8 113.282 400.784 113.282H400.792ZM412.992 163.288C412.992 170.019 407.532 175.478 400.8 175.478C394.068 175.478 388.609 170.019 388.609 163.288C388.609 156.557 394.068 151.099 400.8 151.099C407.532 151.099 412.992 156.557 412.992 163.288Z" fill="#0144DB"/>
<path d="M1137.47 699H1113.89V611.754H1017.99V699H994.414V511.932H1017.99V591.056H1113.89V511.932H1137.47V699ZM1307.56 628.522C1307.56 640.225 1305.99 650.617 1302.84 659.7C1299.87 668.608 1295.51 676.206 1289.74 682.494C1284.15 688.782 1277.25 693.585 1269.05 696.904C1261.01 700.048 1252.02 701.62 1242.06 701.62C1232.8 701.62 1224.24 700.048 1216.38 696.904C1208.52 693.585 1201.71 688.782 1195.95 682.494C1190.18 676.206 1185.64 668.608 1182.32 659.7C1179.18 650.617 1177.61 640.225 1177.61 628.522C1177.61 612.977 1180.23 599.877 1185.47 589.222C1190.71 578.393 1198.22 570.183 1208 564.594C1217.78 558.83 1229.4 555.948 1242.85 555.948C1255.6 555.948 1266.77 558.83 1276.38 564.594C1286.16 570.183 1293.76 578.393 1299.18 589.222C1304.76 599.877 1307.56 612.977 1307.56 628.522ZM1201.45 628.522C1201.45 639.526 1202.85 649.133 1205.64 657.342C1208.61 665.377 1213.15 671.577 1219.27 675.944C1225.38 680.311 1233.15 682.494 1242.58 682.494C1252.02 682.494 1259.79 680.311 1265.9 675.944C1272.01 671.577 1276.47 665.377 1279.26 657.342C1282.23 649.133 1283.72 639.526 1283.72 628.522C1283.72 617.343 1282.23 607.824 1279.26 599.964C1276.29 592.104 1271.75 586.078 1265.64 581.886C1259.7 577.519 1251.93 575.336 1242.32 575.336C1228 575.336 1217.61 580.052 1211.14 589.484C1204.68 598.916 1201.45 611.929 1201.45 628.522ZM1435.54 660.224C1435.54 669.307 1433.27 676.905 1428.73 683.018C1424.18 689.131 1417.72 693.76 1409.34 696.904C1400.95 700.048 1391 701.62 1379.47 701.62C1369.69 701.62 1361.22 700.834 1354.06 699.262C1347.07 697.69 1340.87 695.507 1335.45 692.712V671.752C1341.04 674.547 1347.77 677.167 1355.63 679.612C1363.66 681.883 1371.78 683.018 1379.99 683.018C1391.7 683.018 1400.17 681.184 1405.41 677.516C1410.65 673.673 1413.27 668.608 1413.27 662.32C1413.27 658.827 1412.31 655.683 1410.39 652.888C1408.46 650.093 1404.97 647.299 1399.91 644.504C1395.02 641.709 1387.94 638.565 1378.68 635.072C1369.6 631.579 1361.83 628.085 1355.37 624.592C1348.9 621.099 1343.93 616.907 1340.43 612.016C1336.94 607.125 1335.19 600.837 1335.19 593.152C1335.19 581.275 1340 572.105 1349.6 565.642C1359.38 559.179 1372.13 555.948 1387.85 555.948C1396.41 555.948 1404.36 556.821 1411.7 558.568C1419.21 560.14 1426.19 562.411 1432.66 565.38L1424.8 583.72C1420.95 581.973 1416.85 580.489 1412.48 579.266C1408.29 577.869 1404.01 576.821 1399.64 576.122C1395.28 575.249 1390.82 574.812 1386.28 574.812C1376.85 574.812 1369.6 576.384 1364.54 579.528C1359.65 582.497 1357.2 586.602 1357.2 591.842C1357.2 595.685 1358.34 599.003 1360.61 601.798C1362.88 604.418 1366.63 607.038 1371.87 609.658C1377.29 612.103 1384.45 615.073 1393.36 618.566C1402.26 621.885 1409.86 625.291 1416.15 628.784C1422.44 632.277 1427.24 636.557 1430.56 641.622C1433.88 646.513 1435.54 652.713 1435.54 660.224ZM1536.28 555.948C1553.57 555.948 1567.46 561.974 1577.94 574.026C1588.59 586.078 1593.92 604.243 1593.92 628.522C1593.92 644.417 1591.48 657.866 1586.59 668.87C1581.87 679.699 1575.14 687.909 1566.41 693.498C1557.85 698.913 1547.72 701.62 1536.02 701.62C1528.86 701.62 1522.48 700.659 1516.89 698.738C1511.3 696.817 1506.5 694.371 1502.48 691.402C1498.64 688.258 1495.32 684.852 1492.53 681.184H1490.96C1491.3 684.153 1491.65 687.909 1492 692.45C1492.35 696.991 1492.53 700.921 1492.53 704.24V761.88H1469.47V558.568H1488.34L1491.48 577.694H1492.53C1495.32 573.677 1498.64 570.009 1502.48 566.69C1506.5 563.371 1511.22 560.751 1516.63 558.83C1522.22 556.909 1528.77 555.948 1536.28 555.948ZM1532.09 575.336C1522.66 575.336 1515.06 577.17 1509.3 580.838C1503.53 584.331 1499.34 589.659 1496.72 596.82C1494.1 603.981 1492.7 613.064 1492.53 624.068V628.522C1492.53 640.05 1493.75 649.831 1496.2 657.866C1498.64 665.901 1502.75 672.014 1508.51 676.206C1514.45 680.398 1522.48 682.494 1532.61 682.494C1541.17 682.494 1548.16 680.136 1553.57 675.42C1559.16 670.704 1563.27 664.329 1565.89 656.294C1568.68 648.085 1570.08 638.74 1570.08 628.26C1570.08 612.191 1566.94 599.353 1560.65 589.746C1554.53 580.139 1545.01 575.336 1532.09 575.336ZM1653.72 558.568V699H1630.66V558.568H1653.72ZM1642.45 505.906C1645.95 505.906 1649 507.129 1651.62 509.574C1654.42 511.845 1655.81 515.513 1655.81 520.578C1655.81 525.469 1654.42 529.137 1651.62 531.582C1649 534.027 1645.95 535.25 1642.45 535.25C1638.61 535.25 1635.38 534.027 1632.76 531.582C1630.14 529.137 1628.83 525.469 1628.83 520.578C1628.83 515.513 1630.14 511.845 1632.76 509.574C1635.38 507.129 1638.61 505.906 1642.45 505.906ZM1745.11 682.756C1748.6 682.756 1752.18 682.494 1755.85 681.97C1759.52 681.271 1762.49 680.573 1764.76 679.874V697.428C1762.31 698.651 1758.82 699.611 1754.28 700.31C1749.74 701.183 1745.37 701.62 1741.18 701.62C1733.84 701.62 1727.03 700.397 1720.74 697.952C1714.63 695.332 1709.65 690.878 1705.81 684.59C1701.96 678.302 1700.04 669.481 1700.04 658.128V576.384H1680.13V565.38L1700.31 556.21L1709.48 526.342H1723.1V558.568H1763.71V576.384H1723.1V657.604C1723.1 666.163 1725.11 672.538 1729.13 676.73C1733.32 680.747 1738.64 682.756 1745.11 682.756ZM1846.06 556.21C1863.18 556.21 1875.84 559.965 1884.05 567.476C1892.26 574.987 1896.37 586.951 1896.37 603.37V699H1879.6L1875.15 679.088H1874.1C1870.08 684.153 1865.89 688.433 1861.52 691.926C1857.33 695.245 1852.44 697.69 1846.85 699.262C1841.43 700.834 1834.8 701.62 1826.94 701.62C1818.55 701.62 1810.96 700.135 1804.14 697.166C1797.51 694.197 1792.27 689.655 1788.42 683.542C1784.58 677.254 1782.66 669.394 1782.66 659.962C1782.66 645.989 1788.16 635.247 1799.17 627.736C1810.17 620.051 1827.11 615.859 1849.99 615.16L1873.84 614.374V605.99C1873.84 594.287 1871.3 586.165 1866.24 581.624C1861.17 577.083 1854.01 574.812 1844.75 574.812C1837.42 574.812 1830.43 575.947 1823.79 578.218C1817.16 580.314 1810.96 582.759 1805.19 585.554L1798.12 568.262C1804.23 564.943 1811.48 562.149 1819.86 559.878C1828.25 557.433 1836.98 556.21 1846.06 556.21ZM1852.88 631.142C1835.41 631.841 1823.27 634.635 1816.46 639.526C1809.82 644.417 1806.5 651.316 1806.5 660.224C1806.5 668.084 1808.86 673.848 1813.58 677.516C1818.47 681.184 1824.67 683.018 1832.18 683.018C1844.05 683.018 1853.92 679.787 1861.78 673.324C1869.64 666.687 1873.57 656.556 1873.57 642.932V630.356L1852.88 631.142ZM1962.8 699H1939.74V499.88H1962.8V699Z" fill="#FE0000"/>
<path d="M1137.47 699V703H1141.47V699H1137.47ZM1113.89 699H1109.89V703H1113.89V699ZM1113.89 611.754H1117.89V607.754H1113.89V611.754ZM1017.99 611.754V607.754H1013.99V611.754H1017.99ZM1017.99 699V703H1021.99V699H1017.99ZM994.414 699H990.414V703H994.414V699ZM994.414 511.932V507.932H990.414V511.932H994.414ZM1017.99 511.932H1021.99V507.932H1017.99V511.932ZM1017.99 591.056H1013.99V595.056H1017.99V591.056ZM1113.89 591.056V595.056H1117.89V591.056H1113.89ZM1113.89 511.932V507.932H1109.89V511.932H1113.89ZM1137.47 511.932H1141.47V507.932H1137.47V511.932ZM1137.47 695H1113.89V703H1137.47V695ZM1117.89 699V611.754H1109.89V699H1117.89ZM1113.89 607.754H1017.99V615.754H1113.89V607.754ZM1013.99 611.754V699H1021.99V611.754H1013.99ZM1017.99 695H994.414V703H1017.99V695ZM998.414 699V511.932H990.414V699H998.414ZM994.414 515.932H1017.99V507.932H994.414V515.932ZM1013.99 511.932V591.056H1021.99V511.932H1013.99ZM1017.99 595.056H1113.89V587.056H1017.99V595.056ZM1117.89 591.056V511.932H1109.89V591.056H1117.89ZM1113.89 515.932H1137.47V507.932H1113.89V515.932ZM1133.47 511.932V699H1141.47V511.932H1133.47ZM1302.84 659.7L1299.06 658.392L1299.06 658.413L1299.05 658.435L1302.84 659.7ZM1289.74 682.494L1286.79 679.791L1286.77 679.814L1286.75 679.837L1289.74 682.494ZM1269.05 696.904L1270.5 700.629L1270.52 700.621L1270.54 700.612L1269.05 696.904ZM1216.38 696.904L1214.83 700.589L1214.86 700.604L1214.9 700.618L1216.38 696.904ZM1195.95 682.494L1193 685.197L1193 685.197L1195.95 682.494ZM1182.32 659.7L1178.54 661.008L1178.56 661.053L1178.57 661.096L1182.32 659.7ZM1185.47 589.222L1189.06 590.987L1189.06 590.976L1189.07 590.964L1185.47 589.222ZM1208 564.594L1209.98 568.067L1210.01 568.054L1210.03 568.04L1208 564.594ZM1276.38 564.594L1274.32 568.024L1274.36 568.046L1274.4 568.067L1276.38 564.594ZM1299.18 589.222L1295.6 591.011L1295.61 591.046L1295.63 591.08L1299.18 589.222ZM1205.64 657.342L1201.85 658.631L1201.87 658.68L1201.89 658.729L1205.64 657.342ZM1219.27 675.944L1221.59 672.689L1221.59 672.689L1219.27 675.944ZM1265.9 675.944L1263.58 672.689L1263.58 672.689L1265.9 675.944ZM1279.26 657.342L1275.5 655.981L1275.49 656.005L1275.49 656.028L1279.26 657.342ZM1279.26 599.964L1283.01 598.55L1283.01 598.55L1279.26 599.964ZM1265.64 581.886L1263.27 585.109L1263.32 585.148L1263.38 585.185L1265.64 581.886ZM1211.14 589.484L1214.44 591.745L1214.44 591.745L1211.14 589.484ZM1303.56 628.522C1303.56 639.873 1302.03 649.81 1299.06 658.392L1306.62 661.008C1309.94 651.425 1311.56 640.576 1311.56 628.522H1303.56ZM1299.05 658.435C1296.24 666.864 1292.14 673.958 1286.79 679.791L1292.69 685.197C1298.87 678.454 1303.51 670.352 1306.64 660.965L1299.05 658.435ZM1286.75 679.837C1281.6 685.64 1275.22 690.095 1267.55 693.196L1270.54 700.612C1279.29 697.075 1286.71 691.924 1292.73 685.151L1286.75 679.837ZM1267.59 693.179C1260.08 696.116 1251.59 697.62 1242.06 697.62V705.62C1252.44 705.62 1261.94 703.98 1270.5 700.629L1267.59 693.179ZM1242.06 697.62C1233.26 697.62 1225.21 696.128 1217.87 693.19L1214.9 700.618C1223.27 703.968 1232.34 705.62 1242.06 705.62V697.62ZM1217.94 693.219C1210.61 690.124 1204.27 685.655 1198.9 679.791L1193 685.197C1199.15 691.909 1206.44 697.047 1214.83 700.589L1217.94 693.219ZM1198.9 679.791C1193.52 673.924 1189.23 666.784 1186.07 658.304L1178.57 661.096C1182.05 670.432 1186.85 678.488 1193 685.197L1198.9 679.791ZM1186.1 658.392C1183.13 649.81 1181.61 639.873 1181.61 628.522H1173.61C1173.61 640.576 1175.23 651.425 1178.54 661.008L1186.1 658.392ZM1181.61 628.522C1181.61 613.407 1184.16 600.95 1189.06 590.987L1181.88 587.457C1176.3 598.803 1173.61 612.546 1173.61 628.522H1181.61ZM1189.07 590.964C1193.98 580.81 1200.95 573.228 1209.98 568.067L1206.01 561.121C1195.48 567.139 1187.43 575.976 1181.87 587.48L1189.07 590.964ZM1210.03 568.04C1219.09 562.701 1229.98 559.948 1242.85 559.948V551.948C1228.81 551.948 1216.47 554.959 1205.97 561.148L1210.03 568.04ZM1242.85 559.948C1254.97 559.948 1265.42 562.682 1274.32 568.024L1278.44 561.164C1268.13 554.978 1256.22 551.948 1242.85 551.948V559.948ZM1274.4 568.067C1283.44 573.235 1290.51 580.833 1295.6 591.011L1302.75 587.433C1297.01 575.953 1288.88 567.132 1278.37 561.121L1274.4 568.067ZM1295.63 591.08C1300.85 601.019 1303.56 613.441 1303.56 628.522H1311.56C1311.56 612.513 1308.68 598.735 1302.72 587.364L1295.63 591.08ZM1197.45 628.522C1197.45 639.852 1198.89 649.912 1201.85 658.631L1209.43 656.053C1206.81 648.353 1205.45 639.2 1205.45 628.522H1197.45ZM1201.89 658.729C1205.1 667.406 1210.09 674.303 1216.94 679.199L1221.59 672.689C1216.22 668.851 1212.13 663.347 1209.39 655.955L1201.89 658.729ZM1216.94 679.199C1223.89 684.162 1232.53 686.494 1242.58 686.494V678.494C1233.77 678.494 1226.87 676.46 1221.59 672.689L1216.94 679.199ZM1242.58 686.494C1252.63 686.494 1261.28 684.162 1268.23 679.199L1263.58 672.689C1258.3 676.46 1251.4 678.494 1242.58 678.494V686.494ZM1268.23 679.199C1275.1 674.289 1280.01 667.365 1283.04 658.656L1275.49 656.028C1272.93 663.388 1268.93 668.866 1263.58 672.689L1268.23 679.199ZM1283.02 658.703C1286.19 649.96 1287.72 639.874 1287.72 628.522H1279.72C1279.72 639.178 1278.28 648.305 1275.5 655.981L1283.02 658.703ZM1287.72 628.522C1287.72 617.011 1286.19 606.984 1283.01 598.55L1275.52 601.378C1278.27 608.664 1279.72 617.676 1279.72 628.522H1287.72ZM1283.01 598.55C1279.79 590.031 1274.78 583.302 1267.9 578.587L1263.38 585.185C1268.73 588.854 1272.8 594.177 1275.52 601.378L1283.01 598.55ZM1268.01 578.663C1261.2 573.658 1252.52 571.336 1242.32 571.336V579.336C1251.33 579.336 1258.2 581.381 1263.27 585.109L1268.01 578.663ZM1242.32 571.336C1227.05 571.336 1215.24 576.426 1207.84 587.223L1214.44 591.745C1219.97 583.678 1228.94 579.336 1242.32 579.336V571.336ZM1207.84 587.223C1200.76 597.559 1197.45 611.469 1197.45 628.522H1205.45C1205.45 612.389 1208.6 600.273 1214.44 591.745L1207.84 587.223ZM1428.73 683.018L1425.52 680.633L1425.52 680.633L1428.73 683.018ZM1409.34 696.904L1407.93 693.159L1409.34 696.904ZM1354.06 699.262L1353.18 703.164L1353.19 703.167L1353.2 703.169L1354.06 699.262ZM1335.45 692.712H1331.45V695.149L1333.62 696.266L1335.45 692.712ZM1335.45 671.752L1337.24 668.174L1331.45 665.28V671.752H1335.45ZM1355.63 679.612L1354.44 683.431L1354.49 683.447L1354.54 683.461L1355.63 679.612ZM1405.41 677.516L1407.7 680.793L1407.74 680.768L1407.77 680.742L1405.41 677.516ZM1410.39 652.888L1413.68 650.622L1413.68 650.622L1410.39 652.888ZM1399.91 644.504L1397.92 647.977L1397.95 647.992L1397.97 648.006L1399.91 644.504ZM1378.68 635.072L1377.25 638.805L1377.26 638.81L1377.27 638.814L1378.68 635.072ZM1340.43 612.016L1337.18 614.341L1337.18 614.341L1340.43 612.016ZM1349.6 565.642L1347.4 562.305L1347.38 562.314L1347.37 562.323L1349.6 565.642ZM1411.7 558.568L1410.77 562.459L1410.82 562.472L1410.88 562.483L1411.7 558.568ZM1432.66 565.38L1436.33 566.956L1437.87 563.373L1434.33 561.745L1432.66 565.38ZM1424.8 583.72L1423.14 587.361L1426.86 589.053L1428.47 585.296L1424.8 583.72ZM1412.48 579.266L1411.22 583.061L1411.31 583.092L1411.4 583.118L1412.48 579.266ZM1399.64 576.122L1398.86 580.044L1398.94 580.06L1399.01 580.072L1399.64 576.122ZM1364.54 579.528L1366.61 582.947L1366.63 582.937L1366.65 582.927L1364.54 579.528ZM1360.61 601.798L1357.5 604.32L1357.54 604.37L1357.58 604.418L1360.61 601.798ZM1371.87 609.658L1370.08 613.236L1370.15 613.271L1370.23 613.303L1371.87 609.658ZM1393.36 618.566L1391.9 622.29L1391.93 622.302L1391.96 622.314L1393.36 618.566ZM1416.15 628.784L1414.21 632.281L1414.21 632.281L1416.15 628.784ZM1430.56 641.622L1427.21 643.814L1427.23 643.841L1427.25 643.868L1430.56 641.622ZM1431.54 660.224C1431.54 668.618 1429.45 675.334 1425.52 680.633L1431.94 685.403C1437.08 678.475 1439.54 669.996 1439.54 660.224H1431.54ZM1425.52 680.633C1421.51 686.026 1415.73 690.237 1407.93 693.159L1410.74 700.649C1419.72 697.283 1426.86 692.236 1431.94 685.403L1425.52 680.633ZM1407.93 693.159C1400.11 696.094 1390.65 697.62 1379.47 697.62V705.62C1391.35 705.62 1401.8 704.002 1410.74 700.649L1407.93 693.159ZM1379.47 697.62C1369.89 697.62 1361.72 696.849 1354.91 695.355L1353.2 703.169C1360.72 704.819 1369.49 705.62 1379.47 705.62V697.62ZM1354.93 695.36C1348.22 693.85 1342.35 691.771 1337.29 689.158L1333.62 696.266C1339.38 699.242 1345.92 701.53 1353.18 703.164L1354.93 695.36ZM1339.45 692.712V671.752H1331.45V692.712H1339.45ZM1333.67 675.33C1339.5 678.246 1346.43 680.941 1354.44 683.431L1356.82 675.793C1349.1 673.393 1342.59 670.848 1337.24 668.174L1333.67 675.33ZM1354.54 683.461C1362.92 685.83 1371.41 687.018 1379.99 687.018V679.018C1372.16 679.018 1364.4 677.935 1356.72 675.763L1354.54 683.461ZM1379.99 687.018C1391.93 687.018 1401.43 685.184 1407.7 680.793L1403.11 674.239C1398.91 677.184 1391.47 679.018 1379.99 679.018V687.018ZM1407.77 680.742C1414 676.175 1417.27 669.932 1417.27 662.32H1409.27C1409.27 667.284 1407.3 671.172 1403.04 674.29L1407.77 680.742ZM1417.27 662.32C1417.27 658.043 1416.08 654.104 1413.68 650.622L1407.09 655.154C1408.54 657.261 1409.27 659.61 1409.27 662.32H1417.27ZM1413.68 650.622C1411.24 647.073 1407.11 643.913 1401.84 641.002L1397.97 648.006C1402.83 650.685 1405.69 653.114 1407.09 655.154L1413.68 650.622ZM1401.89 641.031C1396.73 638.082 1389.43 634.851 1380.1 631.33L1377.27 638.814C1386.46 642.28 1393.3 645.337 1397.92 647.977L1401.89 641.031ZM1380.12 631.339C1371.15 627.888 1363.54 624.464 1357.27 621.073L1353.46 628.111C1360.12 631.707 1368.05 635.269 1377.25 638.805L1380.12 631.339ZM1357.27 621.073C1351.22 617.806 1346.76 613.988 1343.69 609.691L1337.18 614.341C1341.09 619.825 1346.58 624.391 1353.46 628.111L1357.27 621.073ZM1343.69 609.691C1340.8 605.646 1339.19 600.236 1339.19 593.152H1331.19C1331.19 601.438 1333.08 608.604 1337.18 614.341L1343.69 609.691ZM1339.19 593.152C1339.19 582.565 1343.37 574.658 1351.83 568.961L1347.37 562.323C1336.62 569.552 1331.19 579.984 1331.19 593.152H1339.19ZM1351.81 568.979C1360.75 563.073 1372.66 559.948 1387.85 559.948V551.948C1371.61 551.948 1358.02 555.285 1347.4 562.305L1351.81 568.979ZM1387.85 559.948C1396.14 559.948 1403.77 560.794 1410.77 562.459L1412.62 554.677C1404.95 552.849 1396.68 551.948 1387.85 551.948V559.948ZM1410.88 562.483C1418.12 563.999 1424.82 566.18 1430.99 569.015L1434.33 561.745C1427.57 558.642 1420.3 556.281 1412.52 554.653L1410.88 562.483ZM1428.98 563.804L1421.12 582.144L1428.47 585.296L1436.33 566.956L1428.98 563.804ZM1426.45 580.079C1422.41 578.241 1418.11 576.688 1413.56 575.414L1411.4 583.118C1415.59 584.289 1419.5 585.706 1423.14 587.361L1426.45 580.079ZM1413.75 575.471C1409.35 574.005 1404.86 572.905 1400.28 572.172L1399.01 580.072C1403.16 580.736 1407.23 581.732 1411.22 583.061L1413.75 575.471ZM1400.43 572.2C1395.8 571.274 1391.08 570.812 1386.28 570.812V578.812C1390.57 578.812 1394.76 579.224 1398.86 580.044L1400.43 572.2ZM1386.28 570.812C1376.5 570.812 1368.39 572.426 1362.43 576.129L1366.65 582.927C1370.81 580.342 1377.2 578.812 1386.28 578.812V570.812ZM1362.46 576.109C1356.51 579.723 1353.2 585.057 1353.2 591.842H1361.2C1361.2 588.147 1362.78 585.271 1366.61 582.947L1362.46 576.109ZM1353.2 591.842C1353.2 596.537 1354.61 600.763 1357.5 604.32L1363.71 599.276C1362.06 597.244 1361.2 594.832 1361.2 591.842H1353.2ZM1357.58 604.418C1360.36 607.618 1364.65 610.52 1370.08 613.236L1373.66 606.08C1368.61 603.556 1365.4 601.218 1363.63 599.178L1357.58 604.418ZM1370.23 613.303C1375.73 615.788 1382.96 618.785 1391.9 622.29L1394.82 614.842C1385.94 611.36 1378.85 608.419 1373.52 606.013L1370.23 613.303ZM1391.96 622.314C1400.74 625.584 1408.14 628.91 1414.21 632.281L1418.09 625.287C1411.58 621.671 1403.79 618.186 1394.75 614.818L1391.96 622.314ZM1414.21 632.281C1420.04 635.518 1424.31 639.384 1427.21 643.814L1433.91 639.43C1430.17 633.729 1424.84 629.037 1418.09 625.287L1414.21 632.281ZM1427.25 643.868C1430.01 647.937 1431.54 653.298 1431.54 660.224H1439.54C1439.54 652.129 1437.75 645.088 1433.87 639.376L1427.25 643.868ZM1577.94 574.026L1574.92 576.651L1574.93 576.663L1574.94 576.675L1577.94 574.026ZM1586.59 668.87L1582.93 667.245L1582.92 667.259L1582.92 667.273L1586.59 668.87ZM1566.41 693.498L1568.55 696.878L1568.56 696.873L1568.57 696.867L1566.41 693.498ZM1516.89 698.738L1515.59 702.521L1515.59 702.521L1516.89 698.738ZM1502.48 691.402L1499.95 694.498L1500.03 694.56L1500.11 694.619L1502.48 691.402ZM1492.53 681.184L1495.71 678.76L1494.51 677.184H1492.53V681.184ZM1490.96 681.184V677.184H1486.46L1486.98 681.651L1490.96 681.184ZM1492 692.45L1488.01 692.757L1488.01 692.757L1492 692.45ZM1492.53 761.88V765.88H1496.53V761.88H1492.53ZM1469.47 761.88H1465.47V765.88H1469.47V761.88ZM1469.47 558.568V554.568H1465.47V558.568H1469.47ZM1488.34 558.568L1492.28 557.919L1491.73 554.568H1488.34V558.568ZM1491.48 577.694L1487.53 578.343L1488.08 581.694H1491.48V577.694ZM1492.53 577.694V581.694H1494.62L1495.81 579.978L1492.53 577.694ZM1502.48 566.69L1499.94 563.606L1499.9 563.634L1499.87 563.663L1502.48 566.69ZM1516.63 558.83L1515.33 555.047L1515.31 555.054L1515.29 555.06L1516.63 558.83ZM1509.3 580.838L1511.37 584.259L1511.41 584.236L1511.44 584.213L1509.3 580.838ZM1492.53 624.068L1488.53 624.005L1488.53 624.036V624.068H1492.53ZM1496.2 657.866L1492.37 659.031L1492.37 659.031L1496.2 657.866ZM1508.51 676.206L1506.16 679.441L1506.18 679.458L1506.2 679.474L1508.51 676.206ZM1553.57 675.42L1550.99 672.363L1550.97 672.383L1550.95 672.404L1553.57 675.42ZM1565.89 656.294L1562.1 655.005L1562.09 655.029L1562.08 655.054L1565.89 656.294ZM1560.65 589.746L1557.27 591.893L1557.29 591.915L1557.3 591.937L1560.65 589.746ZM1536.28 559.948C1552.52 559.948 1565.27 565.551 1574.92 576.651L1580.96 571.401C1569.65 558.397 1554.62 551.948 1536.28 551.948V559.948ZM1574.94 576.675C1584.69 587.702 1589.92 604.738 1589.92 628.522H1597.92C1597.92 603.749 1592.5 584.454 1580.94 571.377L1574.94 576.675ZM1589.92 628.522C1589.92 644.027 1587.53 656.889 1582.93 667.245L1590.24 670.495C1595.42 658.843 1597.92 644.806 1597.92 628.522H1589.92ZM1582.92 667.273C1578.47 677.479 1572.23 685.025 1564.25 690.129L1568.57 696.867C1578.06 690.792 1585.27 681.919 1590.25 670.467L1582.92 667.273ZM1564.27 690.118C1556.45 695.068 1547.08 697.62 1536.02 697.62V705.62C1548.36 705.62 1559.26 702.758 1568.55 696.878L1564.27 690.118ZM1536.02 697.62C1529.21 697.62 1523.29 696.706 1518.19 694.955L1515.59 702.521C1521.68 704.613 1528.51 705.62 1536.02 705.62V697.62ZM1518.19 694.955C1512.92 693.143 1508.5 690.872 1504.86 688.185L1500.11 694.619C1504.5 697.87 1509.69 700.49 1515.59 702.521L1518.19 694.955ZM1505.02 688.306C1501.4 685.345 1498.3 682.161 1495.71 678.76L1489.35 683.608C1492.34 687.543 1495.88 691.171 1499.95 694.498L1505.02 688.306ZM1492.53 677.184H1490.96V685.184H1492.53V677.184ZM1486.98 681.651C1487.32 684.547 1487.67 688.245 1488.01 692.757L1495.99 692.143C1495.64 687.573 1495.29 683.759 1494.93 680.717L1486.98 681.651ZM1488.01 692.757C1488.36 697.231 1488.53 701.053 1488.53 704.24H1496.53C1496.53 700.789 1496.35 696.752 1495.99 692.143L1488.01 692.757ZM1488.53 704.24V761.88H1496.53V704.24H1488.53ZM1492.53 757.88H1469.47V765.88H1492.53V757.88ZM1473.47 761.88V558.568H1465.47V761.88H1473.47ZM1469.47 562.568H1488.34V554.568H1469.47V562.568ZM1484.39 559.217L1487.53 578.343L1495.43 577.045L1492.28 557.919L1484.39 559.217ZM1491.48 581.694H1492.53V573.694H1491.48V581.694ZM1495.81 579.978C1498.41 576.246 1501.5 572.825 1505.1 569.717L1499.87 563.663C1495.78 567.192 1492.24 571.108 1489.24 575.41L1495.81 579.978ZM1505.03 569.774C1508.65 566.782 1512.95 564.381 1517.97 562.6L1515.29 555.06C1509.48 557.122 1504.35 559.961 1499.94 563.606L1505.03 569.774ZM1517.93 562.613C1523.01 560.868 1529.1 559.948 1536.28 559.948V551.948C1528.44 551.948 1521.43 552.949 1515.33 555.047L1517.93 562.613ZM1532.09 571.336C1522.18 571.336 1513.75 573.259 1507.15 577.463L1511.44 584.213C1516.36 581.081 1523.14 579.336 1532.09 579.336V571.336ZM1507.22 577.417C1500.58 581.443 1495.85 587.549 1492.96 595.446L1500.48 598.194C1502.83 591.768 1506.48 587.22 1511.37 584.259L1507.22 577.417ZM1492.96 595.446C1490.14 603.169 1488.71 612.734 1488.53 624.005L1496.53 624.131C1496.7 613.394 1498.06 604.794 1500.48 598.194L1492.96 595.446ZM1488.53 624.068V628.522H1496.53V624.068H1488.53ZM1488.53 628.522C1488.53 640.309 1489.77 650.507 1492.37 659.031L1500.02 656.701C1497.73 649.155 1496.53 639.791 1496.53 628.522H1488.53ZM1492.37 659.031C1495.02 667.744 1499.57 674.65 1506.16 679.441L1510.86 672.971C1505.92 669.378 1502.26 664.058 1500.02 656.701L1492.37 659.031ZM1506.2 679.474C1513.03 684.297 1521.97 686.494 1532.61 686.494V678.494C1522.99 678.494 1515.86 676.499 1510.82 672.938L1506.2 679.474ZM1532.61 686.494C1541.94 686.494 1549.92 683.904 1556.2 678.436L1550.95 672.404C1546.39 676.368 1540.4 678.494 1532.61 678.494V686.494ZM1556.15 678.477C1562.39 673.21 1566.88 666.164 1569.69 657.534L1562.08 655.054C1559.66 662.493 1555.93 668.198 1550.99 672.363L1556.15 678.477ZM1569.67 657.583C1572.64 648.882 1574.08 639.09 1574.08 628.26H1566.08C1566.08 638.39 1564.73 647.287 1562.1 655.005L1569.67 657.583ZM1574.08 628.26C1574.08 611.711 1570.85 598.025 1563.99 587.555L1557.3 591.937C1563.02 600.68 1566.08 612.67 1566.08 628.26H1574.08ZM1564.02 587.598C1557.06 576.665 1546.16 571.336 1532.09 571.336V579.336C1543.86 579.336 1552 583.613 1557.27 591.893L1564.02 587.598ZM1653.72 558.568H1657.72V554.568H1653.72V558.568ZM1653.72 699V703H1657.72V699H1653.72ZM1630.66 699H1626.66V703H1630.66V699ZM1630.66 558.568V554.568H1626.66V558.568H1630.66ZM1651.62 509.574L1648.89 512.498L1648.99 512.592L1649.1 512.678L1651.62 509.574ZM1651.62 531.582L1648.99 528.572L1648.94 528.614L1648.89 528.658L1651.62 531.582ZM1632.76 531.582L1635.49 528.658L1635.49 528.658L1632.76 531.582ZM1632.76 509.574L1635.38 512.597L1635.43 512.548L1635.49 512.498L1632.76 509.574ZM1649.72 558.568V699H1657.72V558.568H1649.72ZM1653.72 695H1630.66V703H1653.72V695ZM1634.66 699V558.568H1626.66V699H1634.66ZM1630.66 562.568H1653.72V554.568H1630.66V562.568ZM1642.45 509.906C1644.9 509.906 1646.99 510.724 1648.89 512.498L1654.35 506.65C1651.01 503.533 1646.99 501.906 1642.45 501.906V509.906ZM1649.1 512.678C1650.62 513.916 1651.81 516.204 1651.81 520.578H1659.81C1659.81 514.822 1658.21 509.773 1654.14 506.47L1649.1 512.678ZM1651.81 520.578C1651.81 524.703 1650.66 527.109 1648.99 528.572L1654.26 534.592C1658.17 531.165 1659.81 526.234 1659.81 520.578H1651.81ZM1648.89 528.658C1646.99 530.432 1644.9 531.25 1642.45 531.25V539.25C1646.99 539.25 1651.01 537.623 1654.35 534.506L1648.89 528.658ZM1642.45 531.25C1639.54 531.25 1637.31 530.359 1635.49 528.658L1630.03 534.506C1633.45 537.696 1637.68 539.25 1642.45 539.25V531.25ZM1635.49 528.658C1633.94 527.214 1632.83 524.779 1632.83 520.578H1624.83C1624.83 526.159 1626.34 531.06 1630.03 534.506L1635.49 528.658ZM1632.83 520.578C1632.83 516.126 1633.98 513.811 1635.38 512.597L1630.14 506.551C1626.3 509.878 1624.83 514.899 1624.83 520.578H1632.83ZM1635.49 512.498C1637.31 510.797 1639.54 509.906 1642.45 509.906V501.906C1637.68 501.906 1633.45 503.46 1630.03 506.65L1635.49 512.498ZM1755.85 681.97L1756.42 685.93L1756.51 685.917L1756.6 685.899L1755.85 681.97ZM1764.76 679.874H1768.76V674.458L1763.58 676.051L1764.76 679.874ZM1764.76 697.428L1766.55 701.006L1768.76 699.9V697.428H1764.76ZM1754.28 700.31L1753.67 696.357L1753.6 696.368L1753.52 696.382L1754.28 700.31ZM1720.74 697.952L1719.17 701.629L1719.23 701.655L1719.29 701.68L1720.74 697.952ZM1705.81 684.59L1702.39 686.676L1705.81 684.59ZM1700.04 576.384H1704.04V572.384H1700.04V576.384ZM1680.13 576.384H1676.13V580.384H1680.13V576.384ZM1680.13 565.38L1678.48 561.739L1676.13 562.804V565.38H1680.13ZM1700.31 556.21L1701.96 559.851L1703.6 559.106L1704.13 557.384L1700.31 556.21ZM1709.48 526.342V522.342H1706.52L1705.65 525.168L1709.48 526.342ZM1723.1 526.342H1727.1V522.342H1723.1V526.342ZM1723.1 558.568H1719.1V562.568H1723.1V558.568ZM1763.71 558.568H1767.71V554.568H1763.71V558.568ZM1763.71 576.384V580.384H1767.71V576.384H1763.71ZM1723.1 576.384V572.384H1719.1V576.384H1723.1ZM1729.13 676.73L1726.24 679.498L1726.3 679.559L1726.36 679.618L1729.13 676.73ZM1745.11 686.756C1748.8 686.756 1752.57 686.479 1756.42 685.93L1755.28 678.01C1751.79 678.509 1748.4 678.756 1745.11 678.756V686.756ZM1756.6 685.899C1760.34 685.187 1763.47 684.456 1765.93 683.697L1763.58 676.051C1761.51 676.689 1758.7 677.356 1755.1 678.041L1756.6 685.899ZM1760.76 679.874V697.428H1768.76V679.874H1760.76ZM1762.97 693.85C1761.06 694.803 1758.04 695.684 1753.67 696.357L1754.89 704.263C1759.6 703.538 1763.56 702.498 1766.55 701.006L1762.97 693.85ZM1753.52 696.382C1749.2 697.212 1745.09 697.62 1741.18 697.62V705.62C1745.65 705.62 1750.27 705.154 1755.03 704.238L1753.52 696.382ZM1741.18 697.62C1734.29 697.62 1727.98 696.474 1722.19 694.224L1719.29 701.68C1726.08 704.32 1733.39 705.62 1741.18 705.62V697.62ZM1722.32 694.275C1717.05 692.017 1712.68 688.164 1709.22 682.504L1702.39 686.676C1706.62 693.592 1712.21 698.647 1719.17 701.629L1722.32 694.275ZM1709.22 682.504C1705.92 677.097 1704.04 669.112 1704.04 658.128H1696.04C1696.04 669.851 1698.01 679.507 1702.39 686.676L1709.22 682.504ZM1704.04 658.128V576.384H1696.04V658.128H1704.04ZM1700.04 572.384H1680.13V580.384H1700.04V572.384ZM1684.13 576.384V565.38H1676.13V576.384H1684.13ZM1681.79 569.021L1701.96 559.851L1698.65 552.569L1678.48 561.739L1681.79 569.021ZM1704.13 557.384L1713.3 527.516L1705.65 525.168L1696.48 555.036L1704.13 557.384ZM1709.48 530.342H1723.1V522.342H1709.48V530.342ZM1719.1 526.342V558.568H1727.1V526.342H1719.1ZM1723.1 562.568H1763.71V554.568H1723.1V562.568ZM1759.71 558.568V576.384H1767.71V558.568H1759.71ZM1763.71 572.384H1723.1V580.384H1763.71V572.384ZM1719.1 576.384V657.604H1727.1V576.384H1719.1ZM1719.1 657.604C1719.1 666.711 1721.23 674.273 1726.24 679.498L1732.01 673.962C1728.99 670.803 1727.1 665.615 1727.1 657.604H1719.1ZM1726.36 679.618C1731.38 684.432 1737.74 686.756 1745.11 686.756V678.756C1739.55 678.756 1735.25 677.063 1731.89 673.842L1726.36 679.618ZM1884.05 567.476L1886.75 564.525L1886.75 564.525L1884.05 567.476ZM1896.37 699V703H1900.37V699H1896.37ZM1879.6 699L1875.7 699.873L1876.4 703H1879.6V699ZM1875.15 679.088L1879.05 678.215L1878.35 675.088H1875.15V679.088ZM1874.1 679.088V675.088H1872.16L1870.96 676.602L1874.1 679.088ZM1861.52 691.926L1864 695.062L1864.01 695.056L1864.02 695.049L1861.52 691.926ZM1846.85 699.262L1845.77 695.411L1845.75 695.416L1845.73 695.421L1846.85 699.262ZM1804.14 697.166L1802.51 700.817L1802.53 700.825L1802.55 700.833L1804.14 697.166ZM1788.42 683.542L1785.01 685.628L1785.02 685.649L1785.04 685.671L1788.42 683.542ZM1799.17 627.736L1801.42 631.04L1801.44 631.028L1801.46 631.015L1799.17 627.736ZM1849.99 615.16L1850.12 619.158L1850.13 619.158L1849.99 615.16ZM1873.84 614.374L1873.97 618.372L1877.84 618.244V614.374H1873.84ZM1866.24 581.624L1863.57 584.602L1863.57 584.602L1866.24 581.624ZM1823.79 578.218L1825 582.032L1825.04 582.018L1825.09 582.003L1823.79 578.218ZM1805.19 585.554L1801.49 587.069L1803.1 591.012L1806.94 589.153L1805.19 585.554ZM1798.12 568.262L1796.21 564.747L1793.06 566.457L1794.42 569.777L1798.12 568.262ZM1819.86 559.878L1820.91 563.739L1820.95 563.729L1820.98 563.718L1819.86 559.878ZM1852.88 631.142L1852.72 627.145L1852.72 627.145L1852.88 631.142ZM1816.46 639.526L1814.12 636.277L1814.1 636.291L1814.08 636.306L1816.46 639.526ZM1813.58 677.516L1811.12 680.673L1811.15 680.695L1811.18 680.716L1813.58 677.516ZM1861.78 673.324L1864.32 676.414L1864.34 676.397L1864.36 676.38L1861.78 673.324ZM1873.57 630.356H1877.57V626.201L1873.42 626.359L1873.57 630.356ZM1846.06 560.21C1862.7 560.21 1874.19 563.875 1881.35 570.427L1886.75 564.525C1877.5 556.056 1863.66 552.21 1846.06 552.21V560.21ZM1881.35 570.427C1888.41 576.88 1892.37 587.535 1892.37 603.37H1900.37C1900.37 586.367 1896.12 573.093 1886.75 564.525L1881.35 570.427ZM1892.37 603.37V699H1900.37V603.37H1892.37ZM1896.37 695H1879.6V703H1896.37V695ZM1883.5 698.127L1879.05 678.215L1871.24 679.961L1875.7 699.873L1883.5 698.127ZM1875.15 675.088H1874.1V683.088H1875.15V675.088ZM1870.96 676.602C1867.1 681.468 1863.12 685.524 1859.02 688.803L1864.02 695.049C1868.66 691.342 1873.06 686.839 1877.23 681.574L1870.96 676.602ZM1859.04 688.79C1855.3 691.753 1850.89 693.97 1845.77 695.411L1847.93 703.113C1853.99 701.41 1859.36 698.737 1864 695.062L1859.04 688.79ZM1845.73 695.421C1840.79 696.855 1834.56 697.62 1826.94 697.62V705.62C1835.04 705.62 1842.08 704.813 1847.96 703.103L1845.73 695.421ZM1826.94 697.62C1819.03 697.62 1811.99 696.222 1805.74 693.499L1802.55 700.833C1809.92 704.048 1818.07 705.62 1826.94 705.62V697.62ZM1805.78 693.515C1799.86 690.866 1795.23 686.852 1791.81 681.413L1785.04 685.671C1789.3 692.459 1795.16 697.527 1802.51 700.817L1805.78 693.515ZM1791.84 681.456C1788.47 675.949 1786.66 668.861 1786.66 659.962H1778.66C1778.66 669.927 1780.69 678.559 1785.01 685.628L1791.84 681.456ZM1786.66 659.962C1786.66 647.234 1791.57 637.763 1801.42 631.04L1796.91 624.432C1784.75 632.73 1778.66 644.744 1778.66 659.962H1786.66ZM1801.46 631.015C1811.51 623.99 1827.52 619.848 1850.12 619.158L1849.87 611.162C1826.7 611.869 1808.82 616.111 1796.88 624.457L1801.46 631.015ZM1850.13 619.158L1873.97 618.372L1873.7 610.376L1849.86 611.162L1850.13 619.158ZM1877.84 614.374V605.99H1869.84V614.374H1877.84ZM1877.84 605.99C1877.84 593.927 1875.26 584.343 1868.91 578.646L1863.57 584.602C1867.34 587.988 1869.84 594.648 1869.84 605.99H1877.84ZM1868.91 578.646C1862.88 573.241 1854.64 570.812 1844.75 570.812V578.812C1853.38 578.812 1859.46 580.924 1863.57 584.602L1868.91 578.646ZM1844.75 570.812C1837 570.812 1829.57 572.014 1822.5 574.433L1825.09 582.003C1831.29 579.881 1837.84 578.812 1844.75 578.812V570.812ZM1822.59 574.404C1815.78 576.553 1809.4 579.068 1803.45 581.955L1806.94 589.153C1812.51 586.45 1818.53 584.075 1825 582.032L1822.59 574.404ZM1808.89 584.039L1801.82 566.747L1794.42 569.777L1801.49 587.069L1808.89 584.039ZM1800.03 571.777C1805.81 568.638 1812.75 565.947 1820.91 563.739L1818.82 556.017C1810.2 558.35 1802.65 561.248 1796.21 564.747L1800.03 571.777ZM1820.98 563.718C1828.99 561.383 1837.34 560.21 1846.06 560.21V552.21C1836.62 552.21 1827.51 553.482 1818.74 556.038L1820.98 563.718ZM1852.72 627.145C1835.15 627.848 1821.96 630.649 1814.12 636.277L1818.79 642.775C1824.58 638.622 1835.66 635.834 1853.04 635.139L1852.72 627.145ZM1814.08 636.306C1806.33 642.018 1802.5 650.164 1802.5 660.224H1810.5C1810.5 652.468 1813.31 646.815 1818.83 642.746L1814.08 636.306ZM1802.5 660.224C1802.5 668.897 1805.14 676.022 1811.12 680.673L1816.03 674.359C1812.58 671.674 1810.5 667.271 1810.5 660.224H1802.5ZM1811.18 680.716C1816.9 685.013 1824 687.018 1832.18 687.018V679.018C1825.33 679.018 1820.03 677.355 1815.98 674.316L1811.18 680.716ZM1832.18 687.018C1844.82 687.018 1855.63 683.561 1864.32 676.414L1859.24 670.234C1852.22 676.013 1843.29 679.018 1832.18 679.018V687.018ZM1864.36 676.38C1873.39 668.755 1877.57 657.327 1877.57 642.932H1869.57C1869.57 655.785 1865.89 664.619 1859.2 670.268L1864.36 676.38ZM1877.57 642.932V630.356H1869.57V642.932H1877.57ZM1873.42 626.359L1852.72 627.145L1853.03 635.139L1873.73 634.353L1873.42 626.359ZM1962.8 699V703H1966.8V699H1962.8ZM1939.74 699H1935.74V703H1939.74V699ZM1939.74 499.88V495.88H1935.74V499.88H1939.74ZM1962.8 499.88H1966.8V495.88H1962.8V499.88ZM1962.8 695H1939.74V703H1962.8V695ZM1943.74 699V499.88H1935.74V699H1943.74ZM1939.74 503.88H1962.8V495.88H1939.74V503.88ZM1958.8 499.88V699H1966.8V499.88H1958.8Z" fill="#FE0000"/>
<path d="M994.414 354V166.932H1017.99V333.04H1099.74V354H994.414ZM1181.85 211.21C1198.97 211.21 1211.63 214.965 1219.84 222.476C1228.05 229.987 1232.16 241.951 1232.16 258.37V354H1215.39L1210.93 334.088H1209.89C1205.87 339.153 1201.68 343.433 1197.31 346.926C1193.12 350.245 1188.23 352.69 1182.64 354.262C1177.22 355.834 1170.59 356.62 1162.73 356.62C1154.34 356.62 1146.74 355.135 1139.93 352.166C1133.3 349.197 1128.06 344.655 1124.21 338.542C1120.37 332.254 1118.45 324.394 1118.45 314.962C1118.45 300.989 1123.95 290.247 1134.95 282.736C1145.96 275.051 1162.9 270.859 1185.78 270.16L1209.62 269.374V260.99C1209.62 249.287 1207.09 241.165 1202.03 236.624C1196.96 232.083 1189.8 229.812 1180.54 229.812C1173.21 229.812 1166.22 230.947 1159.58 233.218C1152.95 235.314 1146.74 237.759 1140.98 240.554L1133.91 223.262C1140.02 219.943 1147.27 217.149 1155.65 214.878C1164.04 212.433 1172.77 211.21 1181.85 211.21ZM1188.66 286.142C1171.2 286.841 1159.06 289.635 1152.25 294.526C1145.61 299.417 1142.29 306.316 1142.29 315.224C1142.29 323.084 1144.65 328.848 1149.36 332.516C1154.26 336.184 1160.46 338.018 1167.97 338.018C1179.84 338.018 1189.71 334.787 1197.57 328.324C1205.43 321.687 1209.36 311.556 1209.36 297.932V285.356L1188.66 286.142ZM1298.59 354H1275.53V154.88H1298.59V354ZM1366.13 213.568V354H1343.08V213.568H1366.13ZM1354.87 160.906C1358.36 160.906 1361.42 162.129 1364.04 164.574C1366.83 166.845 1368.23 170.513 1368.23 175.578C1368.23 180.469 1366.83 184.137 1364.04 186.582C1361.42 189.027 1358.36 190.25 1354.87 190.25C1351.02 190.25 1347.79 189.027 1345.17 186.582C1342.55 184.137 1341.24 180.469 1341.24 175.578C1341.24 170.513 1342.55 166.845 1345.17 164.574C1347.79 162.129 1351.02 160.906 1354.87 160.906ZM1457.52 337.756C1461.01 337.756 1464.6 337.494 1468.26 336.97C1471.93 336.271 1474.9 335.573 1477.17 334.874V352.428C1474.73 353.651 1471.23 354.611 1466.69 355.31C1462.15 356.183 1457.78 356.62 1453.59 356.62C1446.26 356.62 1439.44 355.397 1433.16 352.952C1427.04 350.332 1422.06 345.878 1418.22 339.59C1414.38 333.302 1412.46 324.481 1412.46 313.128V231.384H1392.55V220.38L1412.72 211.21L1421.89 181.342H1435.51V213.568H1476.12V231.384H1435.51V312.604C1435.51 321.163 1437.52 327.538 1441.54 331.73C1445.73 335.747 1451.06 337.756 1457.52 337.756ZM1528.35 213.306C1528.35 216.625 1528.17 220.031 1527.82 223.524C1527.65 227.017 1527.39 230.161 1527.04 232.956H1528.61C1531.58 228.065 1535.33 224.048 1539.88 220.904C1544.42 217.76 1549.48 215.402 1555.07 213.83C1560.66 212.083 1566.42 211.21 1572.36 211.21C1583.72 211.21 1593.15 213.044 1600.66 216.712C1608.34 220.205 1614.11 225.707 1617.95 233.218C1621.79 240.729 1623.72 250.51 1623.72 262.562V354H1600.92V264.134C1600.92 252.781 1598.39 244.309 1593.32 238.72C1588.26 233.131 1580.31 230.336 1569.48 230.336C1559 230.336 1550.79 232.345 1544.85 236.362C1538.91 240.205 1534.64 245.969 1532.02 253.654C1529.57 261.165 1528.35 270.422 1528.35 281.426V354H1505.29V154.88H1528.35V213.306ZM1720.44 211.21C1737.55 211.21 1750.22 214.965 1758.43 222.476C1766.64 229.987 1770.74 241.951 1770.74 258.37V354H1753.97L1749.52 334.088H1748.47C1744.45 339.153 1740.26 343.433 1735.89 346.926C1731.7 350.245 1726.81 352.69 1721.22 354.262C1715.81 355.834 1709.17 356.62 1701.31 356.62C1692.93 356.62 1685.33 355.135 1678.52 352.166C1671.88 349.197 1666.64 344.655 1662.8 338.542C1658.95 332.254 1657.03 324.394 1657.03 314.962C1657.03 300.989 1662.53 290.247 1673.54 282.736C1684.54 275.051 1701.49 270.859 1724.37 270.16L1748.21 269.374V260.99C1748.21 249.287 1745.68 241.165 1740.61 236.624C1735.55 232.083 1728.38 229.812 1719.13 229.812C1711.79 229.812 1704.8 230.947 1698.17 233.218C1691.53 235.314 1685.33 237.759 1679.56 240.554L1672.49 223.262C1678.6 219.943 1685.85 217.149 1694.24 214.878C1702.62 212.433 1711.35 211.21 1720.44 211.21ZM1727.25 286.142C1709.78 286.841 1697.64 289.635 1690.83 294.526C1684.19 299.417 1680.87 306.316 1680.87 315.224C1680.87 323.084 1683.23 328.848 1687.95 332.516C1692.84 336.184 1699.04 338.018 1706.55 338.018C1718.43 338.018 1728.3 334.787 1736.16 328.324C1744.02 321.687 1747.95 311.556 1747.95 297.932V285.356L1727.25 286.142ZM1934.83 166.932C1959.29 166.932 1977.1 171.735 1988.28 181.342C1999.46 190.949 2005.05 204.485 2005.05 221.952C2005.05 229.637 2003.74 237.061 2001.12 244.222C1998.68 251.209 1994.57 257.497 1988.81 263.086C1983.04 268.675 1975.36 273.129 1965.75 276.448C1956.14 279.592 1944.35 281.164 1930.38 281.164H1908.9V354H1885.32V166.932H1934.83ZM1932.74 187.106H1908.9V260.99H1927.76C1939.64 260.99 1949.51 259.767 1957.37 257.322C1965.23 254.702 1971.08 250.597 1974.92 245.008C1978.76 239.419 1980.68 232.083 1980.68 223C1980.68 210.948 1976.84 201.953 1969.16 196.014C1961.47 190.075 1949.33 187.106 1932.74 187.106ZM2106.31 210.948C2108.93 210.948 2111.72 211.123 2114.69 211.472C2117.83 211.647 2120.54 211.996 2122.81 212.52L2119.93 233.742C2117.66 233.218 2115.13 232.781 2112.33 232.432C2109.71 232.083 2107.18 231.908 2104.73 231.908C2099.32 231.908 2094.17 233.043 2089.28 235.314C2084.38 237.585 2080.02 240.816 2076.18 245.008C2072.33 249.025 2069.28 253.916 2067.01 259.68C2064.91 265.444 2063.86 271.907 2063.86 279.068V354H2040.81V213.568H2059.67L2062.29 239.244H2063.34C2066.31 234.004 2069.89 229.288 2074.08 225.096C2078.27 220.729 2083.07 217.323 2088.49 214.878C2093.9 212.258 2099.84 210.948 2106.31 210.948ZM2172.09 213.568V354H2149.03V213.568H2172.09ZM2160.82 160.906C2164.32 160.906 2167.37 162.129 2169.99 164.574C2172.79 166.845 2174.19 170.513 2174.19 175.578C2174.19 180.469 2172.79 184.137 2169.99 186.582C2167.37 189.027 2164.32 190.25 2160.82 190.25C2156.98 190.25 2153.75 189.027 2151.13 186.582C2148.51 184.137 2147.2 180.469 2147.2 175.578C2147.2 170.513 2148.51 166.845 2151.13 164.574C2153.75 162.129 2156.98 160.906 2160.82 160.906ZM2194.57 213.568H2219.2L2249.59 293.478C2251.34 298.194 2252.91 302.735 2254.31 307.102C2255.88 311.469 2257.28 315.748 2258.5 319.94C2259.72 323.957 2260.68 327.887 2261.38 331.73H2262.43C2263.48 327.363 2265.14 321.687 2267.41 314.7C2269.68 307.539 2272.04 300.377 2274.48 293.216L2303.04 213.568H2327.93L2267.41 373.388C2264.09 382.121 2260.16 389.719 2255.62 396.182C2251.25 402.819 2245.84 407.885 2239.37 411.378C2233.09 415.046 2225.4 416.88 2216.32 416.88C2212.13 416.88 2208.46 416.618 2205.31 416.094C2202.17 415.745 2199.46 415.308 2197.19 414.784V396.444C2199.11 396.793 2201.38 397.143 2204 397.492C2206.8 397.841 2209.68 398.016 2212.65 398.016C2218.07 398.016 2222.69 396.968 2226.54 394.872C2230.55 392.951 2233.96 390.069 2236.75 386.226C2239.55 382.558 2241.91 378.191 2243.83 373.126L2251.16 354.524L2194.57 213.568ZM2403.33 211.21C2420.44 211.21 2433.11 214.965 2441.32 222.476C2449.52 229.987 2453.63 241.951 2453.63 258.37V354H2436.86L2432.41 334.088H2431.36C2427.34 339.153 2423.15 343.433 2418.78 346.926C2414.59 350.245 2409.7 352.69 2404.11 354.262C2398.7 355.834 2392.06 356.62 2384.2 356.62C2375.82 356.62 2368.22 355.135 2361.41 352.166C2354.77 349.197 2349.53 344.655 2345.69 338.542C2341.84 332.254 2339.92 324.394 2339.92 314.962C2339.92 300.989 2345.42 290.247 2356.43 282.736C2367.43 275.051 2384.37 270.859 2407.26 270.16L2431.1 269.374V260.99C2431.1 249.287 2428.56 241.165 2423.5 236.624C2418.43 232.083 2411.27 229.812 2402.02 229.812C2394.68 229.812 2387.69 230.947 2381.06 233.218C2374.42 235.314 2368.22 237.759 2362.45 240.554L2355.38 223.262C2361.49 219.943 2368.74 217.149 2377.13 214.878C2385.51 212.433 2394.24 211.21 2403.33 211.21ZM2410.14 286.142C2392.67 286.841 2380.53 289.635 2373.72 294.526C2367.08 299.417 2363.76 306.316 2363.76 315.224C2363.76 323.084 2366.12 328.848 2370.84 332.516C2375.73 336.184 2381.93 338.018 2389.44 338.018C2401.32 338.018 2411.19 334.787 2419.05 328.324C2426.91 321.687 2430.84 311.556 2430.84 297.932V285.356L2410.14 286.142Z" fill="#0049FF"/>
<path d="M994.414 354H990.414V358H994.414V354ZM994.414 166.932V162.932H990.414V166.932H994.414ZM1017.99 166.932H1021.99V162.932H1017.99V166.932ZM1017.99 333.04H1013.99V337.04H1017.99V333.04ZM1099.74 333.04H1103.74V329.04H1099.74V333.04ZM1099.74 354V358H1103.74V354H1099.74ZM998.414 354V166.932H990.414V354H998.414ZM994.414 170.932H1017.99V162.932H994.414V170.932ZM1013.99 166.932V333.04H1021.99V166.932H1013.99ZM1017.99 337.04H1099.74V329.04H1017.99V337.04ZM1095.74 333.04V354H1103.74V333.04H1095.74ZM1099.74 350H994.414V358H1099.74V350ZM1219.84 222.476L1222.54 219.525L1222.54 219.525L1219.84 222.476ZM1232.16 354V358H1236.16V354H1232.16ZM1215.39 354L1211.48 354.873L1212.18 358H1215.39V354ZM1210.93 334.088L1214.84 333.215L1214.14 330.088H1210.93V334.088ZM1209.89 334.088V330.088H1207.95L1206.75 331.602L1209.89 334.088ZM1197.31 346.926L1199.79 350.062L1199.8 350.056L1199.81 350.049L1197.31 346.926ZM1182.64 354.262L1181.56 350.411L1181.54 350.416L1181.52 350.421L1182.64 354.262ZM1139.93 352.166L1138.3 355.817L1138.32 355.825L1138.33 355.833L1139.93 352.166ZM1124.21 338.542L1120.8 340.628L1120.81 340.649L1120.83 340.671L1124.21 338.542ZM1134.95 282.736L1137.21 286.04L1137.23 286.028L1137.24 286.015L1134.95 282.736ZM1185.78 270.16L1185.9 274.158L1185.91 274.158L1185.78 270.16ZM1209.62 269.374L1209.76 273.372L1213.62 273.244V269.374H1209.62ZM1202.03 236.624L1199.36 239.602L1199.36 239.602L1202.03 236.624ZM1159.58 233.218L1160.79 237.032L1160.83 237.018L1160.88 237.003L1159.58 233.218ZM1140.98 240.554L1137.28 242.069L1138.89 246.012L1142.73 244.153L1140.98 240.554ZM1133.91 223.262L1132 219.747L1128.85 221.457L1130.2 224.777L1133.91 223.262ZM1155.65 214.878L1156.7 218.739L1156.74 218.729L1156.77 218.718L1155.65 214.878ZM1188.66 286.142L1188.51 282.145L1188.5 282.145L1188.66 286.142ZM1152.25 294.526L1149.91 291.277L1149.89 291.291L1149.87 291.306L1152.25 294.526ZM1149.36 332.516L1146.91 335.673L1146.94 335.695L1146.96 335.716L1149.36 332.516ZM1197.57 328.324L1200.11 331.414L1200.13 331.397L1200.15 331.38L1197.57 328.324ZM1209.36 285.356H1213.36V281.201L1209.21 281.359L1209.36 285.356ZM1181.85 215.21C1198.49 215.21 1209.98 218.875 1217.14 225.427L1222.54 219.525C1213.29 211.056 1199.45 207.21 1181.85 207.21V215.21ZM1217.14 225.427C1224.2 231.88 1228.16 242.535 1228.16 258.37H1236.16C1236.16 241.367 1231.91 228.093 1222.54 219.525L1217.14 225.427ZM1228.16 258.37V354H1236.16V258.37H1228.16ZM1232.16 350H1215.39V358H1232.16V350ZM1219.29 353.127L1214.84 333.215L1207.03 334.961L1211.48 354.873L1219.29 353.127ZM1210.93 330.088H1209.89V338.088H1210.93V330.088ZM1206.75 331.602C1202.89 336.468 1198.91 340.524 1194.81 343.803L1199.81 350.049C1204.44 346.342 1208.84 341.839 1213.02 336.574L1206.75 331.602ZM1194.83 343.79C1191.08 346.753 1186.68 348.97 1181.56 350.411L1183.72 358.113C1189.78 356.41 1195.15 353.737 1199.79 350.062L1194.83 343.79ZM1181.52 350.421C1176.58 351.855 1170.35 352.62 1162.73 352.62V360.62C1170.83 360.62 1177.87 359.813 1183.75 358.103L1181.52 350.421ZM1162.73 352.62C1154.82 352.62 1147.78 351.222 1141.53 348.499L1138.33 355.833C1145.71 359.048 1153.86 360.62 1162.73 360.62V352.62ZM1141.57 348.515C1135.65 345.866 1131.02 341.852 1127.6 336.413L1120.83 340.671C1125.09 347.459 1130.95 352.527 1138.3 355.817L1141.57 348.515ZM1127.63 336.456C1124.26 330.949 1122.45 323.861 1122.45 314.962H1114.45C1114.45 324.927 1116.48 333.559 1120.8 340.628L1127.63 336.456ZM1122.45 314.962C1122.45 302.234 1127.36 292.763 1137.21 286.04L1132.7 279.432C1120.54 287.73 1114.45 299.744 1114.45 314.962H1122.45ZM1137.24 286.015C1147.3 278.99 1163.31 274.848 1185.9 274.158L1185.66 266.162C1162.49 266.869 1144.61 271.111 1132.66 279.457L1137.24 286.015ZM1185.91 274.158L1209.76 273.372L1209.49 265.376L1185.65 266.162L1185.91 274.158ZM1213.62 269.374V260.99H1205.62V269.374H1213.62ZM1213.62 260.99C1213.62 248.927 1211.05 239.343 1204.7 233.646L1199.36 239.602C1203.13 242.988 1205.62 249.648 1205.62 260.99H1213.62ZM1204.7 233.646C1198.67 228.241 1190.43 225.812 1180.54 225.812V233.812C1189.17 233.812 1195.25 235.924 1199.36 239.602L1204.7 233.646ZM1180.54 225.812C1172.79 225.812 1165.36 227.014 1158.29 229.433L1160.88 237.003C1167.08 234.881 1173.63 233.812 1180.54 233.812V225.812ZM1158.38 229.404C1151.57 231.553 1145.19 234.068 1139.24 236.955L1142.73 244.153C1148.3 241.45 1154.32 239.075 1160.79 237.032L1158.38 229.404ZM1144.68 239.039L1137.61 221.747L1130.2 224.777L1137.28 242.069L1144.68 239.039ZM1135.81 226.777C1141.6 223.638 1148.54 220.947 1156.7 218.739L1154.61 211.017C1145.99 213.35 1138.44 216.248 1132 219.747L1135.81 226.777ZM1156.77 218.718C1164.78 216.383 1173.13 215.21 1181.85 215.21V207.21C1172.41 207.21 1163.29 208.482 1154.53 211.038L1156.77 218.718ZM1188.5 282.145C1170.94 282.848 1157.75 285.649 1149.91 291.277L1154.58 297.775C1160.36 293.622 1171.45 290.834 1188.82 290.139L1188.5 282.145ZM1149.87 291.306C1142.12 297.018 1138.29 305.164 1138.29 315.224H1146.29C1146.29 307.468 1149.1 301.815 1154.62 297.746L1149.87 291.306ZM1138.29 315.224C1138.29 323.897 1140.93 331.022 1146.91 335.673L1151.82 329.359C1148.37 326.674 1146.29 322.271 1146.29 315.224H1138.29ZM1146.96 335.716C1152.69 340.013 1159.79 342.018 1167.97 342.018V334.018C1161.12 334.018 1155.82 332.355 1151.76 329.316L1146.96 335.716ZM1167.97 342.018C1180.61 342.018 1191.42 338.561 1200.11 331.414L1195.03 325.234C1188 331.013 1179.08 334.018 1167.97 334.018V342.018ZM1200.15 331.38C1209.18 323.755 1213.36 312.327 1213.36 297.932H1205.36C1205.36 310.785 1201.68 319.619 1194.99 325.268L1200.15 331.38ZM1213.36 297.932V285.356H1205.36V297.932H1213.36ZM1209.21 281.359L1188.51 282.145L1188.82 290.139L1209.51 289.353L1209.21 281.359ZM1298.59 354V358H1302.59V354H1298.59ZM1275.53 354H1271.53V358H1275.53V354ZM1275.53 154.88V150.88H1271.53V154.88H1275.53ZM1298.59 154.88H1302.59V150.88H1298.59V154.88ZM1298.59 350H1275.53V358H1298.59V350ZM1279.53 354V154.88H1271.53V354H1279.53ZM1275.53 158.88H1298.59V150.88H1275.53V158.88ZM1294.59 154.88V354H1302.59V154.88H1294.59ZM1366.13 213.568H1370.13V209.568H1366.13V213.568ZM1366.13 354V358H1370.13V354H1366.13ZM1343.08 354H1339.08V358H1343.08V354ZM1343.08 213.568V209.568H1339.08V213.568H1343.08ZM1364.04 164.574L1361.31 167.498L1361.41 167.592L1361.51 167.678L1364.04 164.574ZM1364.04 186.582L1361.4 183.572L1361.35 183.614L1361.31 183.658L1364.04 186.582ZM1345.17 186.582L1347.9 183.658L1347.9 183.658L1345.17 186.582ZM1345.17 164.574L1347.79 167.597L1347.85 167.548L1347.9 167.498L1345.17 164.574ZM1362.13 213.568V354H1370.13V213.568H1362.13ZM1366.13 350H1343.08V358H1366.13V350ZM1347.08 354V213.568H1339.08V354H1347.08ZM1343.08 217.568H1366.13V209.568H1343.08V217.568ZM1354.87 164.906C1357.32 164.906 1359.41 165.724 1361.31 167.498L1366.77 161.65C1363.43 158.533 1359.4 156.906 1354.87 156.906V164.906ZM1361.51 167.678C1363.04 168.916 1364.23 171.204 1364.23 175.578H1372.23C1372.23 169.822 1370.63 164.773 1366.56 161.47L1361.51 167.678ZM1364.23 175.578C1364.23 179.703 1363.07 182.109 1361.4 183.572L1366.67 189.592C1370.59 186.165 1372.23 181.234 1372.23 175.578H1364.23ZM1361.31 183.658C1359.41 185.432 1357.32 186.25 1354.87 186.25V194.25C1359.4 194.25 1363.43 192.623 1366.77 189.506L1361.31 183.658ZM1354.87 186.25C1351.96 186.25 1349.72 185.359 1347.9 183.658L1342.44 189.506C1345.86 192.696 1350.09 194.25 1354.87 194.25V186.25ZM1347.9 183.658C1346.35 182.214 1345.24 179.779 1345.24 175.578H1337.24C1337.24 181.159 1338.75 186.06 1342.44 189.506L1347.9 183.658ZM1345.24 175.578C1345.24 171.126 1346.39 168.811 1347.79 167.597L1342.55 161.551C1338.71 164.878 1337.24 169.899 1337.24 175.578H1345.24ZM1347.9 167.498C1349.72 165.797 1351.96 164.906 1354.87 164.906V156.906C1350.09 156.906 1345.86 158.46 1342.44 161.65L1347.9 167.498ZM1468.26 336.97L1468.83 340.93L1468.92 340.917L1469.01 340.899L1468.26 336.97ZM1477.17 334.874H1481.17V329.458L1476 331.051L1477.17 334.874ZM1477.17 352.428L1478.96 356.006L1481.17 354.9V352.428H1477.17ZM1466.69 355.31L1466.08 351.357L1466.01 351.368L1465.94 351.382L1466.69 355.31ZM1433.16 352.952L1431.58 356.629L1431.64 356.655L1431.71 356.68L1433.16 352.952ZM1418.22 339.59L1414.81 341.676L1418.22 339.59ZM1412.46 231.384H1416.46V227.384H1412.46V231.384ZM1392.55 231.384H1388.55V235.384H1392.55V231.384ZM1392.55 220.38L1390.89 216.739L1388.55 217.804V220.38H1392.55ZM1412.72 211.21L1414.37 214.851L1416.01 214.106L1416.54 212.384L1412.72 211.21ZM1421.89 181.342V177.342H1418.93L1418.07 180.168L1421.89 181.342ZM1435.51 181.342H1439.51V177.342H1435.51V181.342ZM1435.51 213.568H1431.51V217.568H1435.51V213.568ZM1476.12 213.568H1480.12V209.568H1476.12V213.568ZM1476.12 231.384V235.384H1480.12V231.384H1476.12ZM1435.51 231.384V227.384H1431.51V231.384H1435.51ZM1441.54 331.73L1438.65 334.498L1438.71 334.559L1438.77 334.618L1441.54 331.73ZM1457.52 341.756C1461.22 341.756 1464.99 341.479 1468.83 340.93L1467.7 333.01C1464.21 333.509 1460.81 333.756 1457.52 333.756V341.756ZM1469.01 340.899C1472.75 340.187 1475.88 339.456 1478.35 338.697L1476 331.051C1473.92 331.689 1471.11 332.356 1467.52 333.041L1469.01 340.899ZM1473.17 334.874V352.428H1481.17V334.874H1473.17ZM1475.38 348.85C1473.48 349.803 1470.45 350.684 1466.08 351.357L1467.3 359.263C1472.01 358.538 1475.98 357.498 1478.96 356.006L1475.38 348.85ZM1465.94 351.382C1461.62 352.212 1457.51 352.62 1453.59 352.62V360.62C1458.06 360.62 1462.68 360.154 1467.45 359.238L1465.94 351.382ZM1453.59 352.62C1446.71 352.62 1440.39 351.474 1434.61 349.224L1431.71 356.68C1438.49 359.32 1445.8 360.62 1453.59 360.62V352.62ZM1434.73 349.275C1429.46 347.017 1425.09 343.164 1421.63 337.504L1414.81 341.676C1419.03 348.592 1424.62 353.647 1431.58 356.629L1434.73 349.275ZM1421.63 337.504C1418.33 332.097 1416.46 324.112 1416.46 313.128H1408.46C1408.46 324.851 1410.43 334.507 1414.81 341.676L1421.63 337.504ZM1416.46 313.128V231.384H1408.46V313.128H1416.46ZM1412.46 227.384H1392.55V235.384H1412.46V227.384ZM1396.55 231.384V220.38H1388.55V231.384H1396.55ZM1394.2 224.021L1414.37 214.851L1411.06 207.569L1390.89 216.739L1394.2 224.021ZM1416.54 212.384L1425.71 182.516L1418.07 180.168L1408.9 210.036L1416.54 212.384ZM1421.89 185.342H1435.51V177.342H1421.89V185.342ZM1431.51 181.342V213.568H1439.51V181.342H1431.51ZM1435.51 217.568H1476.12V209.568H1435.51V217.568ZM1472.12 213.568V231.384H1480.12V213.568H1472.12ZM1476.12 227.384H1435.51V235.384H1476.12V227.384ZM1431.51 231.384V312.604H1439.51V231.384H1431.51ZM1431.51 312.604C1431.51 321.711 1433.64 329.273 1438.65 334.498L1444.43 328.962C1441.4 325.803 1439.51 320.615 1439.51 312.604H1431.51ZM1438.77 334.618C1443.8 339.432 1450.15 341.756 1457.52 341.756V333.756C1451.96 333.756 1447.67 332.063 1444.31 328.842L1438.77 334.618ZM1527.82 223.524L1523.84 223.126L1523.83 223.225L1523.83 223.324L1527.82 223.524ZM1527.04 232.956L1523.07 232.46L1522.51 236.956H1527.04V232.956ZM1528.61 232.956V236.956H1530.86L1532.03 235.032L1528.61 232.956ZM1539.88 220.904L1537.6 217.615L1537.6 217.615L1539.88 220.904ZM1555.07 213.83L1556.15 217.681L1556.21 217.665L1556.26 217.648L1555.07 213.83ZM1600.66 216.712L1598.9 220.306L1598.95 220.331L1599 220.353L1600.66 216.712ZM1617.95 233.218L1621.51 231.396L1621.51 231.396L1617.95 233.218ZM1623.72 354V358H1627.72V354H1623.72ZM1600.92 354H1596.92V358H1600.92V354ZM1593.32 238.72L1596.29 236.034L1596.29 236.034L1593.32 238.72ZM1544.85 236.362L1547.03 239.72L1547.06 239.698L1547.09 239.675L1544.85 236.362ZM1532.02 253.654L1528.23 252.363L1528.22 252.389L1528.21 252.416L1532.02 253.654ZM1528.35 354V358H1532.35V354H1528.35ZM1505.29 354H1501.29V358H1505.29V354ZM1505.29 154.88V150.88H1501.29V154.88H1505.29ZM1528.35 154.88H1532.35V150.88H1528.35V154.88ZM1524.35 213.306C1524.35 216.484 1524.18 219.757 1523.84 223.126L1531.8 223.922C1532.17 220.304 1532.35 216.765 1532.35 213.306H1524.35ZM1523.83 223.324C1523.66 226.741 1523.4 229.784 1523.07 232.46L1531.01 233.452C1531.37 230.539 1531.64 227.294 1531.82 223.724L1523.83 223.324ZM1527.04 236.956H1528.61V228.956H1527.04V236.956ZM1532.03 235.032C1534.72 230.604 1538.09 227.006 1542.15 224.193L1537.6 217.615C1532.58 221.09 1528.44 225.527 1525.19 230.88L1532.03 235.032ZM1542.15 224.193C1546.31 221.314 1550.97 219.139 1556.15 217.681L1553.99 209.979C1547.99 211.665 1542.52 214.206 1537.6 217.615L1542.15 224.193ZM1556.26 217.648C1561.46 216.024 1566.82 215.21 1572.36 215.21V207.21C1566.03 207.21 1559.86 208.143 1553.88 210.012L1556.26 217.648ZM1572.36 215.21C1583.32 215.21 1592.1 216.983 1598.9 220.306L1602.41 213.118C1594.2 209.105 1584.12 207.21 1572.36 207.21V215.21ZM1599 220.353C1605.87 223.473 1610.96 228.334 1614.39 235.04L1621.51 231.396C1617.26 223.081 1610.82 216.937 1602.31 213.071L1599 220.353ZM1614.39 235.04C1617.85 241.797 1619.72 250.89 1619.72 262.562H1627.72C1627.72 250.13 1625.74 239.66 1621.51 231.396L1614.39 235.04ZM1619.72 262.562V354H1627.72V262.562H1619.72ZM1623.72 350H1600.92V358H1623.72V350ZM1604.92 354V264.134H1596.92V354H1604.92ZM1604.92 264.134C1604.92 252.276 1602.29 242.654 1596.29 236.034L1590.36 241.406C1594.49 245.964 1596.92 253.286 1596.92 264.134H1604.92ZM1596.29 236.034C1590.18 229.297 1580.94 226.336 1569.48 226.336V234.336C1579.68 234.336 1586.33 236.965 1590.36 241.406L1596.29 236.034ZM1569.48 226.336C1558.55 226.336 1549.45 228.421 1542.61 233.049L1547.09 239.675C1552.13 236.268 1559.45 234.336 1569.48 234.336V226.336ZM1542.68 233.004C1535.88 237.405 1531.09 243.959 1528.23 252.363L1535.8 254.945C1538.18 247.978 1541.95 243.004 1547.03 239.72L1542.68 233.004ZM1528.21 252.416C1525.6 260.449 1524.35 270.154 1524.35 281.426H1532.35C1532.35 270.69 1533.54 261.88 1535.82 254.892L1528.21 252.416ZM1524.35 281.426V354H1532.35V281.426H1524.35ZM1528.35 350H1505.29V358H1528.35V350ZM1509.29 354V154.88H1501.29V354H1509.29ZM1505.29 158.88H1528.35V150.88H1505.29V158.88ZM1524.35 154.88V213.306H1532.35V154.88H1524.35ZM1758.43 222.476L1761.13 219.525L1761.13 219.525L1758.43 222.476ZM1770.74 354V358H1774.74V354H1770.74ZM1753.97 354L1750.07 354.873L1750.77 358H1753.97V354ZM1749.52 334.088L1753.42 333.215L1752.72 330.088H1749.52V334.088ZM1748.47 334.088V330.088H1746.54L1745.34 331.602L1748.47 334.088ZM1735.89 346.926L1738.38 350.062L1738.39 350.056L1738.39 350.049L1735.89 346.926ZM1721.22 354.262L1720.14 350.411L1720.12 350.416L1720.11 350.421L1721.22 354.262ZM1678.52 352.166L1676.88 355.817L1676.9 355.825L1676.92 355.833L1678.52 352.166ZM1662.8 338.542L1659.38 340.628L1659.4 340.649L1659.41 340.671L1662.8 338.542ZM1673.54 282.736L1675.79 286.04L1675.81 286.028L1675.83 286.015L1673.54 282.736ZM1724.37 270.16L1724.49 274.158L1724.5 274.158L1724.37 270.16ZM1748.21 269.374L1748.34 273.372L1752.21 273.244V269.374H1748.21ZM1740.61 236.624L1737.94 239.602L1737.94 239.602L1740.61 236.624ZM1698.17 233.218L1699.37 237.032L1699.42 237.018L1699.46 237.003L1698.17 233.218ZM1679.56 240.554L1675.86 242.069L1677.48 246.012L1681.31 244.153L1679.56 240.554ZM1672.49 223.262L1670.58 219.747L1667.43 221.457L1668.79 224.777L1672.49 223.262ZM1694.24 214.878L1695.28 218.739L1695.32 218.729L1695.36 218.718L1694.24 214.878ZM1727.25 286.142L1727.1 282.145L1727.09 282.145L1727.25 286.142ZM1690.83 294.526L1688.5 291.277L1688.48 291.291L1688.46 291.306L1690.83 294.526ZM1687.95 332.516L1685.49 335.673L1685.52 335.695L1685.55 335.716L1687.95 332.516ZM1736.16 328.324L1738.7 331.414L1738.72 331.397L1738.74 331.38L1736.16 328.324ZM1747.95 285.356H1751.95V281.201L1747.79 281.359L1747.95 285.356ZM1720.44 215.21C1737.07 215.21 1748.56 218.875 1755.73 225.427L1761.13 219.525C1751.87 211.056 1738.03 207.21 1720.44 207.21V215.21ZM1755.73 225.427C1762.78 231.88 1766.74 242.535 1766.74 258.37H1774.74C1774.74 241.367 1770.49 228.093 1761.13 219.525L1755.73 225.427ZM1766.74 258.37V354H1774.74V258.37H1766.74ZM1770.74 350H1753.97V358H1770.74V350ZM1757.88 353.127L1753.42 333.215L1745.61 334.961L1750.07 354.873L1757.88 353.127ZM1749.52 330.088H1748.47V338.088H1749.52V330.088ZM1745.34 331.602C1741.48 336.468 1737.49 340.524 1733.4 343.803L1738.39 350.049C1743.03 346.342 1747.43 341.839 1751.6 336.574L1745.34 331.602ZM1733.41 343.79C1729.67 346.753 1725.26 348.97 1720.14 350.411L1722.31 358.113C1728.36 356.41 1733.74 353.737 1738.38 350.062L1733.41 343.79ZM1720.11 350.421C1715.17 351.855 1708.93 352.62 1701.31 352.62V360.62C1709.41 360.62 1716.45 359.813 1722.34 358.103L1720.11 350.421ZM1701.31 352.62C1693.41 352.62 1686.36 351.222 1680.11 348.499L1676.92 355.833C1684.3 359.048 1692.45 360.62 1701.31 360.62V352.62ZM1680.15 348.515C1674.23 345.866 1669.6 341.852 1666.18 336.413L1659.41 340.671C1663.68 347.459 1669.53 352.527 1676.88 355.817L1680.15 348.515ZM1666.21 336.456C1662.84 330.949 1661.03 323.861 1661.03 314.962H1653.03C1653.03 324.927 1655.06 333.559 1659.38 340.628L1666.21 336.456ZM1661.03 314.962C1661.03 302.234 1665.94 292.763 1675.79 286.04L1671.28 279.432C1659.13 287.73 1653.03 299.744 1653.03 314.962H1661.03ZM1675.83 286.015C1685.89 278.99 1701.9 274.848 1724.49 274.158L1724.24 266.162C1701.07 266.869 1683.2 271.111 1671.25 279.457L1675.83 286.015ZM1724.5 274.158L1748.34 273.372L1748.08 265.376L1724.23 266.162L1724.5 274.158ZM1752.21 269.374V260.99H1744.21V269.374H1752.21ZM1752.21 260.99C1752.21 248.927 1749.64 239.343 1743.28 233.646L1737.94 239.602C1741.72 242.988 1744.21 249.648 1744.21 260.99H1752.21ZM1743.28 233.646C1737.25 228.241 1729.01 225.812 1719.13 225.812V233.812C1727.76 233.812 1733.84 235.924 1737.94 239.602L1743.28 233.646ZM1719.13 225.812C1711.37 225.812 1703.94 227.014 1696.87 229.433L1699.46 237.003C1705.66 234.881 1712.21 233.812 1719.13 233.812V225.812ZM1696.96 229.404C1690.16 231.553 1683.77 234.068 1677.82 236.955L1681.31 244.153C1686.88 241.45 1692.9 239.075 1699.37 237.032L1696.96 229.404ZM1683.27 239.039L1676.19 221.747L1668.79 224.777L1675.86 242.069L1683.27 239.039ZM1674.4 226.777C1680.18 223.638 1687.13 220.947 1695.28 218.739L1693.19 211.017C1684.58 213.35 1677.03 216.248 1670.58 219.747L1674.4 226.777ZM1695.36 218.718C1703.36 216.383 1711.72 215.21 1720.44 215.21V207.21C1710.99 207.21 1701.88 208.482 1693.12 211.038L1695.36 218.718ZM1727.09 282.145C1709.53 282.848 1696.34 285.649 1688.5 291.277L1693.16 297.775C1698.95 293.622 1710.04 290.834 1727.41 290.139L1727.09 282.145ZM1688.46 291.306C1680.7 297.018 1676.87 305.164 1676.87 315.224H1684.87C1684.87 307.468 1687.68 301.815 1693.2 297.746L1688.46 291.306ZM1676.87 315.224C1676.87 323.897 1679.51 331.022 1685.49 335.673L1690.4 329.359C1686.95 326.674 1684.87 322.271 1684.87 315.224H1676.87ZM1685.55 335.716C1691.28 340.013 1698.38 342.018 1706.55 342.018V334.018C1699.7 334.018 1694.4 332.355 1690.35 329.316L1685.55 335.716ZM1706.55 342.018C1719.19 342.018 1730 338.561 1738.7 331.414L1733.62 325.234C1726.59 331.013 1717.66 334.018 1706.55 334.018V342.018ZM1738.74 331.38C1747.77 323.755 1751.95 312.327 1751.95 297.932H1743.95C1743.95 310.785 1740.27 319.619 1733.58 325.268L1738.74 331.38ZM1751.95 297.932V285.356H1743.95V297.932H1751.95ZM1747.79 281.359L1727.1 282.145L1727.4 290.139L1748.1 289.353L1747.79 281.359ZM1988.28 181.342L1985.68 184.376L1985.68 184.376L1988.28 181.342ZM2001.12 244.222L1997.36 242.848L1997.35 242.874L1997.34 242.901L2001.12 244.222ZM1988.81 263.086L1991.59 265.958L1988.81 263.086ZM1965.75 276.448L1966.99 280.25L1967.03 280.239L1967.06 280.229L1965.75 276.448ZM1908.9 281.164V277.164H1904.9V281.164H1908.9ZM1908.9 354V358H1912.9V354H1908.9ZM1885.32 354H1881.32V358H1885.32V354ZM1885.32 166.932V162.932H1881.32V166.932H1885.32ZM1908.9 187.106V183.106H1904.9V187.106H1908.9ZM1908.9 260.99H1904.9V264.99H1908.9V260.99ZM1957.37 257.322L1958.55 261.141L1958.59 261.129L1958.63 261.117L1957.37 257.322ZM1974.92 245.008L1971.62 242.742L1971.62 242.742L1974.92 245.008ZM1969.16 196.014L1971.6 192.849L1971.6 192.849L1969.16 196.014ZM1934.83 170.932C1958.92 170.932 1975.57 175.69 1985.68 184.376L1990.89 178.308C1978.64 167.781 1959.66 162.932 1934.83 162.932V170.932ZM1985.68 184.376C1995.8 193.08 2001.05 205.414 2001.05 221.952H2009.05C2009.05 203.557 2003.12 188.817 1990.89 178.308L1985.68 184.376ZM2001.05 221.952C2001.05 229.172 1999.82 236.13 1997.36 242.848L2004.88 245.596C2007.66 237.991 2009.05 230.102 2009.05 221.952H2001.05ZM1997.34 242.901C1995.12 249.252 1991.38 255.02 1986.02 260.214L1991.59 265.958C1997.76 259.973 2002.23 253.165 2004.9 245.543L1997.34 242.901ZM1986.02 260.214C1980.77 265.303 1973.64 269.491 1964.44 272.667L1967.06 280.229C1977.07 276.768 1985.31 272.048 1991.59 265.958L1986.02 260.214ZM1964.51 272.646C1955.42 275.619 1944.08 277.164 1930.38 277.164V285.164C1944.63 285.164 1956.87 283.565 1966.99 280.25L1964.51 272.646ZM1930.38 277.164H1908.9V285.164H1930.38V277.164ZM1904.9 281.164V354H1912.9V281.164H1904.9ZM1908.9 350H1885.32V358H1908.9V350ZM1889.32 354V166.932H1881.32V354H1889.32ZM1885.32 170.932H1934.83V162.932H1885.32V170.932ZM1932.74 183.106H1908.9V191.106H1932.74V183.106ZM1904.9 187.106V260.99H1912.9V187.106H1904.9ZM1908.9 264.99H1927.76V256.99H1908.9V264.99ZM1927.76 264.99C1939.88 264.99 1950.18 263.747 1958.55 261.141L1956.18 253.503C1948.83 255.788 1939.4 256.99 1927.76 256.99V264.99ZM1958.63 261.117C1967.13 258.284 1973.78 253.727 1978.22 247.274L1971.62 242.742C1968.38 247.467 1963.32 251.12 1956.1 253.527L1958.63 261.117ZM1978.22 247.274C1982.65 240.826 1984.68 232.622 1984.68 223H1976.68C1976.68 231.543 1974.88 238.011 1971.62 242.742L1978.22 247.274ZM1984.68 223C1984.68 210.039 1980.5 199.726 1971.6 192.849L1966.71 199.179C1973.18 204.179 1976.68 211.857 1976.68 223H1984.68ZM1971.6 192.849C1962.87 186.102 1949.65 183.106 1932.74 183.106V191.106C1949.01 191.106 1960.07 194.048 1966.71 199.179L1971.6 192.849ZM2114.69 211.472L2114.22 215.445L2114.34 215.459L2114.47 215.466L2114.69 211.472ZM2122.81 212.52L2126.77 213.058L2127.27 209.443L2123.71 208.622L2122.81 212.52ZM2119.93 233.742L2119.03 237.64L2123.3 238.626L2123.89 234.28L2119.93 233.742ZM2112.33 232.432L2111.8 236.397L2111.82 236.399L2111.84 236.401L2112.33 232.432ZM2089.28 235.314L2090.96 238.942L2090.96 238.942L2089.28 235.314ZM2076.18 245.008L2079.07 247.773L2079.1 247.742L2079.12 247.711L2076.18 245.008ZM2067.01 259.68L2063.28 258.214L2063.26 258.263L2063.25 258.313L2067.01 259.68ZM2063.86 354V358H2067.86V354H2063.86ZM2040.81 354H2036.81V358H2040.81V354ZM2040.81 213.568V209.568H2036.81V213.568H2040.81ZM2059.67 213.568L2063.65 213.162L2063.28 209.568H2059.67V213.568ZM2062.29 239.244L2058.31 239.65L2058.68 243.244H2062.29V239.244ZM2063.34 239.244V243.244H2065.67L2066.82 241.216L2063.34 239.244ZM2074.08 225.096L2076.91 227.924L2076.94 227.896L2076.96 227.866L2074.08 225.096ZM2088.49 214.878L2090.14 218.523L2090.18 218.502L2090.23 218.479L2088.49 214.878ZM2106.31 214.948C2108.75 214.948 2111.39 215.111 2114.22 215.445L2115.16 207.499C2112.05 207.134 2109.1 206.948 2106.31 206.948V214.948ZM2114.47 215.466C2117.46 215.632 2119.93 215.959 2121.91 216.418L2123.71 208.622C2121.16 208.033 2118.21 207.661 2114.91 207.478L2114.47 215.466ZM2118.85 211.982L2115.97 233.204L2123.89 234.28L2126.77 213.058L2118.85 211.982ZM2120.83 229.844C2118.4 229.284 2115.73 228.826 2112.83 228.463L2111.84 236.401C2114.52 236.737 2116.92 237.152 2119.03 237.64L2120.83 229.844ZM2112.86 228.467C2110.08 228.096 2107.37 227.908 2104.73 227.908V235.908C2106.99 235.908 2109.34 236.069 2111.8 236.397L2112.86 228.467ZM2104.73 227.908C2098.74 227.908 2093.01 229.169 2087.59 231.686L2090.96 238.942C2095.32 236.917 2099.9 235.908 2104.73 235.908V227.908ZM2087.59 231.686C2082.2 234.191 2077.41 237.746 2073.23 242.305L2079.12 247.711C2082.63 243.886 2086.57 240.979 2090.96 238.942L2087.59 231.686ZM2073.28 242.243C2069.04 246.676 2065.72 252.022 2063.28 258.214L2070.73 261.146C2072.83 255.81 2075.62 251.375 2079.07 247.773L2073.28 242.243ZM2063.25 258.313C2060.97 264.582 2059.86 271.517 2059.86 279.068H2067.86C2067.86 272.296 2068.85 266.306 2070.76 261.047L2063.25 258.313ZM2059.86 279.068V354H2067.86V279.068H2059.86ZM2063.86 350H2040.81V358H2063.86V350ZM2044.81 354V213.568H2036.81V354H2044.81ZM2040.81 217.568H2059.67V209.568H2040.81V217.568ZM2055.69 213.974L2058.31 239.65L2066.27 238.838L2063.65 213.162L2055.69 213.974ZM2062.29 243.244H2063.34V235.244H2062.29V243.244ZM2066.82 241.216C2069.61 236.285 2072.97 231.858 2076.91 227.924L2071.25 222.268C2066.8 226.718 2063 231.723 2059.86 237.272L2066.82 241.216ZM2076.96 227.866C2080.81 223.861 2085.19 220.755 2090.14 218.523L2086.84 211.233C2080.95 213.892 2075.73 217.598 2071.19 222.326L2076.96 227.866ZM2090.23 218.479C2095.06 216.141 2100.4 214.948 2106.31 214.948V206.948C2099.28 206.948 2092.74 208.375 2086.75 211.277L2090.23 218.479ZM2172.09 213.568H2176.09V209.568H2172.09V213.568ZM2172.09 354V358H2176.09V354H2172.09ZM2149.03 354H2145.03V358H2149.03V354ZM2149.03 213.568V209.568H2145.03V213.568H2149.03ZM2169.99 164.574L2167.26 167.498L2167.36 167.592L2167.47 167.678L2169.99 164.574ZM2169.99 186.582L2167.36 183.572L2167.31 183.614L2167.26 183.658L2169.99 186.582ZM2151.13 186.582L2153.86 183.658L2153.86 183.658L2151.13 186.582ZM2151.13 164.574L2153.75 167.597L2153.81 167.548L2153.86 167.498L2151.13 164.574ZM2168.09 213.568V354H2176.09V213.568H2168.09ZM2172.09 350H2149.03V358H2172.09V350ZM2153.03 354V213.568H2145.03V354H2153.03ZM2149.03 217.568H2172.09V209.568H2149.03V217.568ZM2160.82 164.906C2163.28 164.906 2165.36 165.724 2167.26 167.498L2172.72 161.65C2169.38 158.533 2165.36 156.906 2160.82 156.906V164.906ZM2167.47 167.678C2168.99 168.916 2170.19 171.204 2170.19 175.578H2178.19C2178.19 169.822 2176.58 164.773 2172.52 161.47L2167.47 167.678ZM2170.19 175.578C2170.19 179.703 2169.03 182.109 2167.36 183.572L2172.63 189.592C2176.54 186.165 2178.19 181.234 2178.19 175.578H2170.19ZM2167.26 183.658C2165.36 185.432 2163.28 186.25 2160.82 186.25V194.25C2165.36 194.25 2169.38 192.623 2172.72 189.506L2167.26 183.658ZM2160.82 186.25C2157.91 186.25 2155.68 185.359 2153.86 183.658L2148.4 189.506C2151.82 192.696 2156.05 194.25 2160.82 194.25V186.25ZM2153.86 183.658C2152.31 182.214 2151.2 179.779 2151.2 175.578H2143.2C2143.2 181.159 2144.71 186.06 2148.4 189.506L2153.86 183.658ZM2151.2 175.578C2151.2 171.126 2152.35 168.811 2153.75 167.597L2148.51 161.551C2144.67 164.878 2143.2 169.899 2143.2 175.578H2151.2ZM2153.86 167.498C2155.68 165.797 2157.91 164.906 2160.82 164.906V156.906C2156.05 156.906 2151.82 158.46 2148.4 161.65L2153.86 167.498ZM2194.57 213.568V209.568H2188.66L2190.86 215.058L2194.57 213.568ZM2219.2 213.568L2222.94 212.146L2221.96 209.568H2219.2V213.568ZM2249.59 293.478L2253.34 292.089L2253.34 292.072L2253.33 292.056L2249.59 293.478ZM2254.31 307.102L2250.5 308.321L2250.52 308.389L2250.55 308.457L2254.31 307.102ZM2258.5 319.94L2254.66 321.06L2254.67 321.082L2254.67 321.105L2258.5 319.94ZM2261.38 331.73L2257.45 332.446L2258.04 335.73H2261.38V331.73ZM2262.43 331.73V335.73H2265.58L2266.32 332.663L2262.43 331.73ZM2267.41 314.7L2271.21 315.936L2271.22 315.923L2271.22 315.909L2267.41 314.7ZM2274.48 293.216L2270.72 291.866L2270.71 291.895L2270.7 291.923L2274.48 293.216ZM2303.04 213.568V209.568H2300.23L2299.28 212.218L2303.04 213.568ZM2327.93 213.568L2331.67 214.985L2333.72 209.568H2327.93V213.568ZM2267.41 373.388L2271.15 374.809L2271.15 374.805L2267.41 373.388ZM2255.62 396.182L2252.35 393.882L2252.31 393.932L2252.28 393.984L2255.62 396.182ZM2239.37 411.378L2237.47 407.859L2237.42 407.89L2237.36 407.923L2239.37 411.378ZM2205.31 416.094L2205.97 412.148L2205.86 412.131L2205.76 412.118L2205.31 416.094ZM2197.19 414.784H2193.19V417.966L2196.29 418.682L2197.19 414.784ZM2197.19 396.444L2197.91 392.509L2193.19 391.651V396.444H2197.19ZM2204 397.492L2203.48 401.457L2203.49 401.459L2203.51 401.461L2204 397.492ZM2226.54 394.872L2224.81 391.263L2224.71 391.309L2224.62 391.36L2226.54 394.872ZM2236.75 386.226L2233.57 383.802L2233.55 383.837L2233.52 383.873L2236.75 386.226ZM2243.83 373.126L2240.11 371.659L2240.1 371.683L2240.09 371.707L2243.83 373.126ZM2251.16 354.524L2254.89 355.991L2255.47 354.511L2254.88 353.034L2251.16 354.524ZM2194.57 217.568H2219.2V209.568H2194.57V217.568ZM2215.46 214.99L2245.85 294.9L2253.33 292.056L2222.94 212.146L2215.46 214.99ZM2245.84 294.867C2247.57 299.532 2249.12 304.017 2250.5 308.321L2258.12 305.883C2256.7 301.454 2255.11 296.856 2253.34 292.089L2245.84 294.867ZM2250.55 308.457C2252.09 312.751 2253.46 316.952 2254.66 321.06L2262.34 318.82C2261.09 314.544 2259.67 310.186 2258.07 305.747L2250.55 308.457ZM2254.67 321.105C2255.85 324.985 2256.78 328.765 2257.45 332.446L2265.32 331.014C2264.59 327.009 2263.59 322.929 2262.33 318.775L2254.67 321.105ZM2261.38 335.73H2262.43V327.73H2261.38V335.73ZM2266.32 332.663C2267.33 328.442 2268.96 322.877 2271.21 315.936L2263.6 313.464C2261.32 320.496 2259.62 326.284 2258.54 330.797L2266.32 332.663ZM2271.22 315.909C2273.48 308.776 2275.83 301.642 2278.27 294.509L2270.7 291.923C2268.24 299.112 2265.88 306.302 2263.6 313.491L2271.22 315.909ZM2278.25 294.566L2306.81 214.918L2299.28 212.218L2270.72 291.866L2278.25 294.566ZM2303.04 217.568H2327.93V209.568H2303.04V217.568ZM2324.19 212.151L2263.67 371.971L2271.15 374.805L2331.67 214.985L2324.19 212.151ZM2263.67 371.967C2260.45 380.444 2256.66 387.736 2252.35 393.882L2258.89 398.482C2263.66 391.702 2267.73 383.798 2271.15 374.809L2263.67 371.967ZM2252.28 393.984C2248.24 400.115 2243.31 404.705 2237.47 407.859L2241.28 414.897C2248.37 411.064 2254.26 405.524 2258.96 398.38L2252.28 393.984ZM2237.36 407.923C2231.82 411.156 2224.87 412.88 2216.32 412.88V420.88C2225.94 420.88 2234.36 418.936 2241.39 414.833L2237.36 407.923ZM2216.32 412.88C2212.28 412.88 2208.84 412.627 2205.97 412.148L2204.66 420.04C2208.07 420.609 2211.97 420.88 2216.32 420.88V412.88ZM2205.76 412.118C2202.72 411.781 2200.17 411.366 2198.09 410.886L2196.29 418.682C2198.76 419.25 2201.63 419.709 2204.87 420.07L2205.76 412.118ZM2201.19 414.784V396.444H2193.19V414.784H2201.19ZM2196.48 400.379C2198.48 400.743 2200.81 401.102 2203.48 401.457L2204.53 393.527C2201.96 393.183 2199.75 392.843 2197.91 392.509L2196.48 400.379ZM2203.51 401.461C2206.48 401.832 2209.52 402.016 2212.65 402.016V394.016C2209.84 394.016 2207.12 393.851 2204.5 393.523L2203.51 401.461ZM2212.65 402.016C2218.58 402.016 2223.9 400.867 2228.45 398.384L2224.62 391.36C2221.49 393.069 2217.55 394.016 2212.65 394.016V402.016ZM2228.26 398.481C2232.92 396.253 2236.83 392.922 2239.99 388.579L2233.52 383.873C2231.09 387.216 2228.19 389.648 2224.81 391.263L2228.26 398.481ZM2239.94 388.65C2243 384.628 2245.53 379.909 2247.57 374.545L2240.09 371.707C2238.28 376.474 2236.1 380.488 2233.57 383.802L2239.94 388.65ZM2247.55 374.593L2254.89 355.991L2247.44 353.057L2240.11 371.659L2247.55 374.593ZM2254.88 353.034L2198.28 212.078L2190.86 215.058L2247.45 356.014L2254.88 353.034ZM2441.32 222.476L2444.02 219.525L2444.02 219.525L2441.32 222.476ZM2453.63 354V358H2457.63V354H2453.63ZM2436.86 354L2432.96 354.873L2433.66 358H2436.86V354ZM2432.41 334.088L2436.31 333.215L2435.61 330.088H2432.41V334.088ZM2431.36 334.088V330.088H2429.43L2428.23 331.602L2431.36 334.088ZM2418.78 346.926L2421.27 350.062L2421.27 350.056L2421.28 350.049L2418.78 346.926ZM2404.11 354.262L2403.03 350.411L2403.01 350.416L2403 350.421L2404.11 354.262ZM2361.41 352.166L2359.77 355.817L2359.79 355.825L2359.81 355.833L2361.41 352.166ZM2345.69 338.542L2342.27 340.628L2342.29 340.649L2342.3 340.671L2345.69 338.542ZM2356.43 282.736L2358.68 286.04L2358.7 286.028L2358.72 286.015L2356.43 282.736ZM2407.26 270.16L2407.38 274.158L2407.39 274.158L2407.26 270.16ZM2431.1 269.374L2431.23 273.372L2435.1 273.244V269.374H2431.1ZM2423.5 236.624L2420.83 239.602L2420.83 239.602L2423.5 236.624ZM2381.06 233.218L2382.26 237.032L2382.3 237.018L2382.35 237.003L2381.06 233.218ZM2362.45 240.554L2358.75 242.069L2360.36 246.012L2364.2 244.153L2362.45 240.554ZM2355.38 223.262L2353.47 219.747L2350.32 221.457L2351.68 224.777L2355.38 223.262ZM2377.13 214.878L2378.17 218.739L2378.21 218.729L2378.25 218.718L2377.13 214.878ZM2410.14 286.142L2409.99 282.145L2409.98 282.145L2410.14 286.142ZM2373.72 294.526L2371.39 291.277L2371.37 291.291L2371.35 291.306L2373.72 294.526ZM2370.84 332.516L2368.38 335.673L2368.41 335.695L2368.44 335.716L2370.84 332.516ZM2419.05 328.324L2421.59 331.414L2421.61 331.397L2421.63 331.38L2419.05 328.324ZM2430.84 285.356H2434.84V281.201L2430.68 281.359L2430.84 285.356ZM2403.33 215.21C2419.96 215.21 2431.45 218.875 2438.62 225.427L2444.02 219.525C2434.76 211.056 2420.92 207.21 2403.33 207.21V215.21ZM2438.62 225.427C2445.67 231.88 2449.63 242.535 2449.63 258.37H2457.63C2457.63 241.367 2453.38 228.093 2444.02 219.525L2438.62 225.427ZM2449.63 258.37V354H2457.63V258.37H2449.63ZM2453.63 350H2436.86V358H2453.63V350ZM2440.76 353.127L2436.31 333.215L2428.5 334.961L2432.96 354.873L2440.76 353.127ZM2432.41 330.088H2431.36V338.088H2432.41V330.088ZM2428.23 331.602C2424.37 336.468 2420.38 340.524 2416.28 343.803L2421.28 350.049C2425.92 346.342 2430.32 341.839 2434.49 336.574L2428.23 331.602ZM2416.3 343.79C2412.56 346.753 2408.15 348.97 2403.03 350.411L2405.19 358.113C2411.25 356.41 2416.62 353.737 2421.27 350.062L2416.3 343.79ZM2403 350.421C2398.05 351.855 2391.82 352.62 2384.2 352.62V360.62C2392.3 360.62 2399.34 359.813 2405.23 358.103L2403 350.421ZM2384.2 352.62C2376.29 352.62 2369.25 351.222 2363 348.499L2359.81 355.833C2367.18 359.048 2375.34 360.62 2384.2 360.62V352.62ZM2363.04 348.515C2357.12 345.866 2352.49 341.852 2349.07 336.413L2342.3 340.671C2346.57 347.459 2352.42 352.527 2359.77 355.817L2363.04 348.515ZM2349.1 336.456C2345.73 330.949 2343.92 323.861 2343.92 314.962H2335.92C2335.92 324.927 2337.95 333.559 2342.27 340.628L2349.1 336.456ZM2343.92 314.962C2343.92 302.234 2348.83 292.763 2358.68 286.04L2354.17 279.432C2342.01 287.73 2335.92 299.744 2335.92 314.962H2343.92ZM2358.72 286.015C2368.78 278.99 2384.79 274.848 2407.38 274.158L2407.13 266.162C2383.96 266.869 2366.09 271.111 2354.14 279.457L2358.72 286.015ZM2407.39 274.158L2431.23 273.372L2430.97 265.376L2407.12 266.162L2407.39 274.158ZM2435.1 269.374V260.99H2427.1V269.374H2435.1ZM2435.1 260.99C2435.1 248.927 2432.52 239.343 2426.17 233.646L2420.83 239.602C2424.6 242.988 2427.1 249.648 2427.1 260.99H2435.1ZM2426.17 233.646C2420.14 228.241 2411.9 225.812 2402.02 225.812V233.812C2410.65 233.812 2416.73 235.924 2420.83 239.602L2426.17 233.646ZM2402.02 225.812C2394.26 225.812 2386.83 227.014 2379.76 229.433L2382.35 237.003C2388.55 234.881 2395.1 233.812 2402.02 233.812V225.812ZM2379.85 229.404C2373.04 231.553 2366.66 234.068 2360.71 236.955L2364.2 244.153C2369.77 241.45 2375.79 239.075 2382.26 237.032L2379.85 229.404ZM2366.16 239.039L2359.08 221.747L2351.68 224.777L2358.75 242.069L2366.16 239.039ZM2357.29 226.777C2363.07 223.638 2370.02 220.947 2378.17 218.739L2376.08 211.017C2367.47 213.35 2359.91 216.248 2353.47 219.747L2357.29 226.777ZM2378.25 218.718C2386.25 216.383 2394.61 215.21 2403.33 215.21V207.21C2393.88 207.21 2384.77 208.482 2376.01 211.038L2378.25 218.718ZM2409.98 282.145C2392.41 282.848 2379.23 285.649 2371.39 291.277L2376.05 297.775C2381.84 293.622 2392.93 290.834 2410.3 290.139L2409.98 282.145ZM2371.35 291.306C2363.59 297.018 2359.76 305.164 2359.76 315.224H2367.76C2367.76 307.468 2370.57 301.815 2376.09 297.746L2371.35 291.306ZM2359.76 315.224C2359.76 323.897 2362.4 331.022 2368.38 335.673L2373.29 329.359C2369.84 326.674 2367.76 322.271 2367.76 315.224H2359.76ZM2368.44 335.716C2374.17 340.013 2381.26 342.018 2389.44 342.018V334.018C2382.59 334.018 2377.29 332.355 2373.24 329.316L2368.44 335.716ZM2389.44 342.018C2402.08 342.018 2412.89 338.561 2421.59 331.414L2416.5 325.234C2409.48 331.013 2400.55 334.018 2389.44 334.018V342.018ZM2421.63 331.38C2430.66 323.755 2434.84 312.327 2434.84 297.932H2426.84C2426.84 310.785 2423.15 319.619 2416.46 325.268L2421.63 331.38ZM2434.84 297.932V285.356H2426.84V297.932H2434.84ZM2430.68 281.359L2409.99 282.145L2410.29 290.139L2430.99 289.353L2430.68 281.359Z" fill="#0049FF"/>
</svg>
